<?xml version="1.0" standalone="no"?>
 <!DOCTYPE svg PUBLIC "-//W3C//DTD SVG 1.1//EN" 
 "http://www.w3.org/Graphics/SVG/1.1/DTD/svg11.dtd"> 
<svg
  xmlns:svg="http://www.w3.org/2000/svg"
  xmlns="http://www.w3.org/2000/svg"
  xmlns:xlink="http://www.w3.org/1999/xlink"
  version="1.1"
  width="27.940000cm" height="21.590000cm" viewBox="0 0 279400000 215900000">
<title>SVG Picture created as keyboard-Edge_Cuts.svg date 2022/10/07 18:59:49 </title>
  <desc>Picture generated by PCBNEW </desc>
<g style="fill:#000000; fill-opacity:1.000000;stroke:#000000; stroke-opacity:1.000000;
stroke-linecap:round; stroke-linejoin:round;"
 transform="translate(0 0) scale(1 1)">
</g>
<g style="fill:#000000; fill-opacity:0.0; 
stroke:#000000; stroke-width:0.000000; stroke-opacity:1; 
stroke-linecap:round; stroke-linejoin:round;">
</g>
<g style="fill:#000000; fill-opacity:0.0; 
stroke:#000000; stroke-width:100000.000000; stroke-opacity:1; 
stroke-linecap:round; stroke-linejoin:round;">
<path d="M148193000.000000 56134000.000000 A1000000.000000 1000000.000000 0.0 0 0 147193000.000000 57134000.000000" />
<path d="M67294000.000000 31496000.000000 A1000000.000000 1000000.000000 0.0 0 0 66294000.000000 32496000.000000" />
<path d="M46228000.000000 49260000.000000 A1000000.000000 1000000.000000 0.0 0 0 45228000.000000 48260000.000000" />
<path d="M156099000.000000 71120000.000000 A1000000.000000 1000000.000000 0.0 0 0 157099000.000000 70120000.000000" />
<path d="M142494000 39608000
L142494000 47260000
" />
<path d="M123612471.766214 114870569.244578 A1000000.000000 1000000.000000 0.0 0 0 123264284.000000 114808000.000128" />
<path d="M172758558.152941 128631976.373874 A1000011.000000 1000011.000000 0.0 0 0 172657999.749789 128427555.160842" />
<path d="M46228000.000000 78511400.000000 A482600.000000 482600.000000 0.0 0 0 47193200.000000 78511400.000000" />
<path d="M46228000 59461400
L46228000 49260000
" />
<path d="M154761477.480812 135088310.900368 A1000061.000000 1000061.000000 0.0 0 0 154525335.914563 134713336.085440" />
<path d="M172758562 128631975
L178982172 145769149
" />
<path d="M28143181.000181 85357619.000361 A1000019.000000 1000019.000000 0.0 0 0 29145579.000405 86357616.170228" />
<path d="M86344000 29210000
L122494800 29210000
" />
<path d="M157099000.000000 57134000.000000 A1000000.000000 1000000.000000 0.0 0 0 156099000.000000 56134000.000000" />
<path d="M84344000.000000 31496000.000000 A1000000.000000 1000000.000000 0.0 0 0 85344000.000000 30496000.000000" />
<path d="M159258000 102886000
L159258000 93710000
" />
<path d="M161035987.058301 152298404.820666 A972909.000000 972909.000000 0.0 0 0 162278550.991717 152873725.977094" />
<path d="M67294000 31496000
L84344000 31496000
" />
<path d="M47193200.000000 82804000.000000 A508000.000000 508000.000000 0.0 0 0 46177200.000000 82804000.000000" />
<path d="M65294000 100584000
L48193200 100584000
" />
<path d="M47193200 99584000
L47193200 85368082
" />
<path d="M146034000.000000 92710000.000000 A1000000.000000 1000000.000000 0.0 0 0 145034000.000000 93710000.000000" />
<path d="M46177200 82804000
L46177200 85312039
" />
<path d="M147193000.000000 70120000.000000 A1000000.000000 1000000.000000 0.0 0 0 148193000.000000 71120000.000000" />
<path d="M67294000 105410000
L103343200 105410000
" />
<path d="M104343200 113808000
L104343200 106410000
" />
<path d="M178382279.533392 147050932.832330 A1000034.000000 1000034.000000 0.0 0 0 178982172.063524 145769148.976931" />
<path d="M123264284 114808000
L105343200 114808000
" />
<path d="M162052000 49260000
L162052000 57912000
" />
<path d="M158258000 103886000
L146034000 103886000
" />
<path d="M161052000 48260000
L158242000 48260000
" />
<path d="M45180042.891853 86311995.958975 A1000000.000000 1000000.000000 0.0 0 0 46177199.999239 85312039.000000" />
<path d="M65294000.000000 43434000.000000 A1000000.000000 1000000.000000 0.0 0 0 66294000.000000 42434000.000000" />
<path d="M66294000 101584000
L66294000 104410000
" />
<path d="M142494000.000000 39608000.000000 A1000000.000000 1000000.000000 0.0 0 0 141494000.000000 38608000.000000" />
<path d="M168072028 121336028
L162344893 115608893
" />
<path d="M85344000 30496000
L85344000 30210000
" />
<path d="M66294000 32496000
L66294000 42434000
" />
<path d="M145034000.000000 102886000.000000 A1000000.000000 1000000.000000 0.0 0 0 146034000.000000 103886000.000000" />
<path d="M156099000 71120000
L148193000 71120000
" />
<path d="M141494000 38608000
L124494800 38608000
" />
<path d="M147193000 70120000
L147193000 57134000
" />
<path d="M159258000.000000 93710000.000000 A1000000.000000 1000000.000000 0.0 0 0 158258000.000000 92710000.000000" />
<path d="M172658000 128427555
L168206099 121502376
" />
<path d="M141378315.102638 121566336.896560 A999975.000000 999975.000000 0.0 0 0 141019406.999808 121336009.000518" />
<path d="M47193200.000000 99584000.000000 A1000000.000000 1000000.000000 0.0 0 0 48193200.000000 100584000.000000" />
<path d="M86344000.000000 29210000.000000 A1000000.000000 1000000.000000 0.0 0 0 85344000.000000 30210000.000000" />
<path d="M156099000 56134000
L148193000 56134000
" />
<path d="M162052000.000000 49260000.000000 A1000000.000000 1000000.000000 0.0 0 0 161052000.000000 48260000.000000" />
<path d="M123494800.000000 37608000.000000 A1000000.000000 1000000.000000 0.0 0 0 124494800.000000 38608000.000000" />
<path d="M123494800.000000 30210000.000000 A1000000.000000 1000000.000000 0.0 0 0 122494800.000000 29210000.000000" />
<path d="M47193200 82804000
L47193200 85368082
" />
<path d="M65294000 43434000
L48193200 43434000
" />
<path d="M162052000 114901787
L162052000 57912000
" />
<path d="M47193200 59477400
L47193200 44450000
" />
<path d="M29145579 86357616
L45180043 86312034
" />
<path d="M104343200.000000 113808000.000000 A1000000.000000 1000000.000000 0.0 0 0 105343200.000000 114808000.000000" />
<path d="M154761463 135088316
L161036000 152298400
" />
<path d="M142494000.000000 47260000.000000 A1000000.000000 1000000.000000 0.0 0 0 143494000.000000 48260000.000000" />
<path d="M28143200 85357619
L28143200 49260000
" />
<path d="M157099000 70120000
L157099000 57134000
" />
<path d="M145034000 102886000
L145034000 93710000
" />
<path d="M46228000 78511400
L46253400 64236600
" />
<path d="M46228000.000000 59461400.000000 A482600.000000 482600.000000 0.0 0 0 47193200.000000 59461400.000000" />
<path d="M168206103.220679 121502373.286619 A999920.000000 999920.000000 0.0 0 0 168072028.212295 121336027.787692" />
<path d="M45228000 48260000
L29143200 48260000
" />
<path d="M141378326 121566326
L154525336 134713336
" />
<path d="M143494000 48260000
L158242000 48260000
" />
<path d="M178382272 147050912
L162278551 152873726
" />
<path d="M158258000.000000 103886000.000000 A1000000.000000 1000000.000000 0.0 0 0 159258000.000000 102886000.000000" />
<path d="M123612470 114870574
L141019407 121336009
" />
<path d="M104343200.000000 106410000.000000 A1000000.000000 1000000.000000 0.0 0 0 103343200.000000 105410000.000000" />
<path d="M66294000.000000 104410000.000000 A1000000.000000 1000000.000000 0.0 0 0 67294000.000000 105410000.000000" />
<path d="M162052010.000084 114901787.000130 A999990.000000 999990.000000 0.0 0 0 162344893.289919 115608892.710087" />
<path d="M47218600.000000 64236600.000000 A482600.000000 482600.000000 0.0 0 0 46253400.000000 64236600.000000" />
<path d="M47218600 64236600
L47193200 78511400
" />
<path d="M158258000 92710000
L146034000 92710000
" />
<path d="M66294000.000000 101584000.000000 A1000000.000000 1000000.000000 0.0 0 0 65294000.000000 100584000.000000" />
<path d="M123494800 30210000
L123494800 37608000
" />
<path d="M29143200.000000 48260000.000000 A1000000.000000 1000000.000000 0.0 0 0 28143200.000000 49260000.000000" />
<path d="M48193200.000000 43434000.000000 A1000000.000000 1000000.000000 0.0 0 0 47193200.000000 44434000.000000" />
<g >
</g>
<g >
</g>
<g >
</g>
<g >
</g>
<g >
</g>
<g >
</g>
<g >
</g>
<g >
</g>
<g >
</g>
<g >
</g>
<g >
</g>
<g >
</g>
<g >
</g>
<g >
</g>
<g >
</g>
<g >
</g>
<g >
</g>
<g >
</g>
<g >
</g>
<g >
</g>
<g >
</g>
<g >
</g>
<g >
</g>
<g >
</g>
<g >
</g>
<g >
</g>
<g >
</g>
<g >
</g>
<g >
</g>
<g >
</g>
<g >
</g>
<g >
</g>
<g >
</g>
<g >
</g>
<g >
</g>
<g >
</g>
<g >
</g>
<g >
</g>
<g >
</g>
<g >
</g>
<g >
</g>
<g >
</g>
<g >
</g>
<g >
</g>
<g >
</g>
<g >
</g>
<g >
</g>
<g >
</g>
<g >
</g>
<g >
</g>
<g >
</g>
<g >
</g>
<g >
</g>
<g >
</g>
<g >
</g>
<g >
</g>
<g >
</g>
<g >
</g>
<g >
</g>
<g >
</g>
</g> 
</svg>
