<?xml version="1.0" encoding="utf-8"?>
<!-- Generator: Adobe Illustrator 22.1.0, SVG Export Plug-In . SVG Version: 6.00 Build 0)  -->
<svg version="1.1" id="Layer_1" xmlns:svg="http://www.w3.org/2000/svg"
	 xmlns="http://www.w3.org/2000/svg" xmlns:xlink="http://www.w3.org/1999/xlink" x="0px" y="0px" viewBox="0 0 978.5 544.4"
	 style="enable-background:new 0 0 978.5 544.4;" xml:space="preserve">
<style type="text/css">
	.st0{fill:#231F20;}
</style>
<title>SVG Picture created as keyboard-B_Mask.svg date 2022/12/15 19:44:03</title>
<desc>Picture generated by PCBNEW</desc>
<g transform="translate(0 0) scale(1 1)">
</g>
<circle class="st0" cx="599.7" cy="335.9" r="3.2"/>
<circle class="st0" cx="606.9" cy="335.9" r="3.2"/>
<circle class="st0" cx="614.1" cy="335.9" r="3.2"/>
<circle class="st0" cx="621.3" cy="335.9" r="3.2"/>
<circle class="st0" cx="628.5" cy="335.9" r="3.2"/>
<circle class="st0" cx="328.3" cy="258.8" r="5.7"/>
<circle class="st0" cx="328.9" cy="204.8" r="5.7"/>
<circle class="st0" cx="424.3" cy="144.1" r="5.7"/>
<circle class="st0" cx="599.7" cy="263.1" r="3.2"/>
<circle class="st0" cx="606.9" cy="263.1" r="3.2"/>
<circle class="st0" cx="614.1" cy="263.1" r="3.2"/>
<circle class="st0" cx="621.3" cy="263.1" r="3.2"/>
<circle class="st0" cx="628.5" cy="263.1" r="3.2"/>
<circle class="st0" cx="587" cy="175.4" r="3.2"/>
<circle class="st0" cx="587" cy="182.6" r="3.2"/>
<circle class="st0" cx="587" cy="189.8" r="3.2"/>
<circle class="st0" cx="587" cy="197" r="3.2"/>
<circle class="st0" cx="587" cy="204.2" r="3.2"/>
<circle class="st0" cx="587" cy="211.4" r="3.2"/>
<circle class="st0" cx="587" cy="218.6" r="3.2"/>
<circle class="st0" cx="587" cy="225.8" r="3.2"/>
<circle class="st0" cx="587" cy="233" r="3.2"/>
<circle class="st0" cx="587" cy="240.2" r="3.2"/>
<circle class="st0" cx="587" cy="247.4" r="3.2"/>
<circle class="st0" cx="587" cy="254.6" r="3.2"/>
<circle class="st0" cx="630.2" cy="254.6" r="3.2"/>
<circle class="st0" cx="630.2" cy="247.4" r="3.2"/>
<circle class="st0" cx="630.2" cy="240.2" r="3.2"/>
<circle class="st0" cx="630.2" cy="233" r="3.2"/>
<circle class="st0" cx="630.2" cy="225.8" r="3.2"/>
<circle class="st0" cx="630.2" cy="218.6" r="3.2"/>
<circle class="st0" cx="630.2" cy="211.4" r="3.2"/>
<circle class="st0" cx="630.2" cy="204.2" r="3.2"/>
<circle class="st0" cx="630.2" cy="197" r="3.2"/>
<circle class="st0" cx="630.2" cy="189.8" r="3.2"/>
<circle class="st0" cx="630.2" cy="182.6" r="3.2"/>
<circle class="st0" cx="630.2" cy="175.4" r="3.2"/>
<circle class="st0" cx="608.6" cy="240.2" r="3.2"/>
<path class="st0" d="M421.4,307.3v5.7h-5.7v-5.7H421.4z"/>
<circle class="st0" cx="418.6" cy="295.9" r="2.8"/>
<circle class="st0" cx="418.6" cy="303" r="2.8"/>
<path class="st0" d="M401.9,284.3v5.7h-9.1v-5.7H401.9z"/>
<path class="st0" d="M401.9,316.1v5.7h-9.1v-5.7H401.9z"/>
<circle class="st0" cx="377.5" cy="295.9" r="2.8"/>
<circle class="st0" cx="377.5" cy="310.1" r="2.8"/>
<path class="st0" d="M632.4,356.5l-1.6,1.6l-3.8-3.8l1.6-1.6L632.4,356.5z"/>
<path class="st0" d="M628.6,360.3l-1.6,1.6l-3.8-3.8l1.6-1.6L628.6,360.3z"/>
<path class="st0" d="M624.5,352.4l-1.6,1.6l-3.8-3.8l1.6-1.6L624.5,352.4z"/>
<path class="st0" d="M415.1,165.1h2.8v1.4h-2.8V165.1z"/>
<path class="st0" d="M420.8,167.4h5.1v4h-5.1V167.4z"/>
<path class="st0" d="M407.2,167.4h5.1v4h-5.1V167.4z"/>
<path class="st0" d="M415.1,162.8h2.8v1.4h-2.8V162.8z"/>
<path class="st0" d="M407.2,158h5.1v4h-5.1V158z"/>
<path class="st0" d="M420.8,158h5.1v4h-5.1V158z"/>
<path class="st0" d="M408.8,186.5v-5.7h7.6v5.7H408.8z"/>
<path class="st0" d="M374.5,193.7V188h7.7v5.7H374.5z"/>
<circle class="st0" cx="411.7" cy="198.1" r="3.1"/>
<circle class="st0" cx="382.9" cy="198.1" r="3.1"/>
<circle class="st0" cx="397.3" cy="198.1" r="6.5"/>
<path class="st0" d="M638.7,325.6h-4.3V324h4.3V325.6z"/>
<path class="st0" d="M638.7,328.5h-4.3v-2h4.3V328.5z"/>
<path class="st0" d="M638.7,330.7h-4.3v-1.3h4.3V330.7z"/>
<path class="st0" d="M638.7,333.2h-4.3v-1.7h4.3V333.2z"/>
<path class="st0" d="M439.8,256.9v5.7h-7.6v-5.7H439.8z"/>
<path class="st0" d="M474.1,249.7v5.7h-7.7v-5.7H474.1z"/>
<circle class="st0" cx="436.9" cy="245.3" r="3.1"/>
<circle class="st0" cx="465.7" cy="245.3" r="3.1"/>
<circle class="st0" cx="451.3" cy="245.3" r="6.5"/>
<path class="st0" d="M362,254.2v-2.8h1.4v2.8H362z"/>
<path class="st0" d="M364.3,248.6v-5.1h4v5.1H364.3z"/>
<path class="st0" d="M364.3,262.2v-5.1h4v5.1H364.3z"/>
<path class="st0" d="M359.7,254.2v-2.8h1.4v2.8H359.7z"/>
<path class="st0" d="M354.9,262.2v-5.1h4v5.1H354.9z"/>
<path class="st0" d="M354.9,248.6v-5.1h4v5.1H354.9z"/>
<path class="st0" d="M617,279.4l-0.3-0.1l-0.2-0.1l-0.1-0.2l-0.1-0.3V277l0.1-0.3l0.1-0.2l0.2-0.1l0.3-0.1h1.3l0.3,0.1l0.2,0.1
	l0.1,0.2l0.1,0.3v1.7L619,279l-0.1,0.2l-0.2,0.1l-0.3,0.1H617z"/>
<path class="st0" d="M617,274.5l-0.3-0.1l-0.2-0.1l-0.1-0.2l-0.1-0.3v-1.7l0.1-0.3l0.1-0.2l0.2-0.1l0.3-0.1h1.3l0.3,0.1l0.2,0.1
	l0.1,0.2l0.1,0.3v1.7l-0.1,0.3l-0.1,0.2l-0.2,0.1l-0.3,0.1H617z"/>
<path class="st0" d="M629.2,322.6l0.3,0.1l0.2,0.1l0.1,0.2l0.1,0.3v1.7l-0.1,0.3l-0.1,0.2l-0.2,0.1l-0.3,0.1h-1.3l-0.3-0.1l-0.2-0.1
	l-0.1-0.2l-0.1-0.3v-1.7l0.1-0.3l0.1-0.2l0.2-0.1l0.3-0.1H629.2z"/>
<path class="st0" d="M629.2,327.5l0.3,0.1l0.2,0.1l0.1,0.2l0.1,0.3v1.7l-0.1,0.3l-0.1,0.2l-0.2,0.1l-0.3,0.1h-1.3l-0.3-0.1l-0.2-0.1
	l-0.1-0.2l-0.1-0.3v-1.7l0.1-0.3l0.1-0.2l0.2-0.1l0.3-0.1H629.2z"/>
<path class="st0" d="M645.8,392.2l1.5,2.4l-1.2,0.8l-1.5-2.4L645.8,392.2z"/>
<path class="st0" d="M646.9,398.2l2.7,4.3l-3.3,2.1l-2.7-4.3L646.9,398.2z"/>
<path class="st0" d="M639.6,386.8l2.7,4.3l-3.3,2.1l-2.7-4.3L639.6,386.8z"/>
<path class="st0" d="M647.7,391l1.5,2.4l-1.2,0.8l-1.5-2.4L647.7,391z"/>
<path class="st0" d="M647.5,381.7l2.7,4.3l-3.3,2.1l-2.7-4.3L647.5,381.7z"/>
<path class="st0" d="M654.8,393.2l2.7,4.3l-3.3,2.1l-2.7-4.3L654.8,393.2z"/>
<path class="st0" d="M354.8,166.3v-5.7h7.6v5.7H354.8z"/>
<path class="st0" d="M320.5,173.5v-5.7h7.7v5.7H320.5z"/>
<circle class="st0" cx="357.7" cy="177.8" r="3.1"/>
<circle class="st0" cx="328.9" cy="177.8" r="3.1"/>
<circle class="st0" cx="343.3" cy="177.8" r="6.5"/>
<path class="st0" d="M464.3,157h-3.4v-3.4h3.4V157z"/>
<path class="st0" d="M464.3,146.8h-3.4v-3.4h3.4V146.8z"/>
<path class="st0" d="M640.1,402.5l-0.2,0.1l-0.3,0l-0.2-0.1l-0.2-0.2l-0.9-1.4l-0.1-0.2l0-0.3l0.1-0.2l0.2-0.2l1.1-0.7l0.2-0.1
	l0.3,0l0.2,0.1l0.2,0.2l0.9,1.4l0.1,0.2l0,0.3l-0.1,0.2l-0.2,0.2L640.1,402.5z"/>
<path class="st0" d="M637.5,398.4l-0.2,0.1l-0.3,0l-0.2-0.1l-0.2-0.2l-0.9-1.4l-0.1-0.2l0-0.3l0.1-0.2l0.2-0.2l1.1-0.7l0.2-0.1
	l0.3,0l0.2,0.1l0.2,0.2l0.9,1.4l0.1,0.2l0,0.3l-0.1,0.2l-0.2,0.2L637.5,398.4z"/>
<path class="st0" d="M368.2,201.6l-0.3-0.1l-0.2-0.1l-0.1-0.2l-0.1-0.3v-1.7l0.1-0.3l0.1-0.2l0.2-0.1l0.3-0.1h1.3l0.3,0.1l0.2,0.1
	l0.1,0.2l0.1,0.3v1.7l-0.1,0.3l-0.1,0.2l-0.2,0.1l-0.3,0.1H368.2z"/>
<path class="st0" d="M368.2,196.7l-0.3-0.1l-0.2-0.1l-0.1-0.2l-0.1-0.3v-1.7l0.1-0.3l0.1-0.2l0.2-0.1l0.3-0.1h1.3l0.3,0.1l0.2,0.1
	l0.1,0.2l0.1,0.3v1.7l-0.1,0.3l-0.1,0.2l-0.2,0.1l-0.3,0.1H368.2z"/>
<path class="st0" d="M401.6,157.5l2.4,2.4l-2.4,2.4l-2.4-2.4L401.6,157.5z"/>
<path class="st0" d="M394.3,164.7l2.4,2.4l-2.4,2.4l-2.4-2.4L394.3,164.7z"/>
<path class="st0" d="M570.8,152.8v-5.7h7.6v5.7H570.8z"/>
<path class="st0" d="M536.5,160v-5.7h7.7v5.7H536.5z"/>
<circle class="st0" cx="573.7" cy="164.3" r="3.1"/>
<circle class="st0" cx="544.9" cy="164.3" r="3.1"/>
<circle class="st0" cx="559.3" cy="164.3" r="6.5"/>
<path class="st0" d="M634.8,372l-0.2-0.2l-0.1-0.3l0.1-0.3l0.2-0.2l1.6-1.6l0.2-0.2l0.3-0.1l0.3,0.1l0.2,0.2l2.5,2.5l0.2,0.2
	l0.1,0.3l-0.1,0.3l-0.2,0.2l-1.6,1.6l-0.2,0.2l-0.3,0.1l-0.3-0.1l-0.2-0.2L634.8,372z"/>
<path class="st0" d="M641,365.8l-0.2-0.2l-0.1-0.3l0.1-0.3l0.2-0.2l1.6-1.6l0.2-0.2l0.3-0.1l0.3,0.1l0.2,0.2l2.5,2.5l0.2,0.2
	l0.1,0.3l-0.1,0.3l-0.2,0.2l-1.6,1.6l-0.2,0.2l-0.3,0.1l-0.3-0.1l-0.2-0.2L641,365.8z"/>
<path class="st0" d="M509.2,142.5l-0.1,0.3l-0.1,0.2l-0.2,0.1l-0.3,0.1h-1.7l-0.3-0.1l-0.2-0.1l-0.1-0.2l-0.1-0.3v-1.3l0.1-0.3
	l0.1-0.2l0.2-0.1l0.3-0.1h1.7l0.3,0.1l0.2,0.1l0.1,0.2l0.1,0.3V142.5z"/>
<path class="st0" d="M504.3,142.5l-0.1,0.3l-0.1,0.2l-0.2,0.1l-0.3,0.1h-1.7l-0.3-0.1l-0.2-0.1l-0.1-0.2l-0.1-0.3v-1.3l0.1-0.3
	l0.1-0.2l0.2-0.1l0.3-0.1h1.7l0.3,0.1l0.2,0.1l0.1,0.2l0.1,0.3V142.5z"/>
<path class="st0" d="M425.3,289.7h1.1v4.3h-1.1V289.7z"/>
<path class="st0" d="M427.2,289.7h1.1v4.3h-1.1V289.7z"/>
<path class="st0" d="M429,289.7h1.1v4.3H429V289.7z"/>
<path class="st0" d="M429,297.2h1.1v4.3H429V297.2z"/>
<path class="st0" d="M427.2,297.2h1.1v4.3h-1.1V297.2z"/>
<path class="st0" d="M425.3,297.2h1.1v4.3h-1.1V297.2z"/>
<path class="st0" d="M462.8,125.8v-5.7h7.6v5.7H462.8z"/>
<path class="st0" d="M428.5,133v-5.7h7.7v5.7H428.5z"/>
<circle class="st0" cx="465.7" cy="137.3" r="3.1"/>
<circle class="st0" cx="436.9" cy="137.3" r="3.1"/>
<circle class="st0" cx="451.3" cy="137.3" r="6.5"/>
<path class="st0" d="M477.2,120.7v-2.3h2.8v2.3H477.2z"/>
<path class="st0" d="M497.9,114.4v-2.3h2.8v2.3H497.9z"/>
<path class="st0" d="M497.9,120.7v-2.3h2.8v2.3H497.9z"/>
<path class="st0" d="M477.2,114.4v-2.3h2.8v2.3H477.2z"/>
<path class="st0" d="M481.6,123.5v-4.3h2v4.3H481.6z"/>
<path class="st0" d="M490.1,123.5v-4.3h2v4.3H490.1z"/>
<path class="st0" d="M494.3,123.5v-4.3h2v4.3H494.3z"/>
<path class="st0" d="M638.7,273.1h-4.3v-1.6h4.3V273.1z"/>
<path class="st0" d="M638.7,276.1h-4.3v-2h4.3V276.1z"/>
<path class="st0" d="M638.7,278.2h-4.3v-1.3h4.3V278.2z"/>
<path class="st0" d="M638.7,280.8h-4.3v-1.7h4.3V280.8z"/>
<path class="st0" d="M547.8,229.9v5.7h-7.6v-5.7H547.8z"/>
<path class="st0" d="M582.1,222.7v5.7h-7.7v-5.7H582.1z"/>
<circle class="st0" cx="544.9" cy="218.3" r="3.1"/>
<circle class="st0" cx="573.7" cy="218.3" r="3.1"/>
<circle class="st0" cx="559.3" cy="218.3" r="6.5"/>
<path class="st0" d="M410.4,235H407v-3.4h3.4V235z"/>
<path class="st0" d="M410.4,224.8H407v-3.4h3.4V224.8z"/>
<path class="st0" d="M439.8,310.9v5.7h-7.6v-5.7H439.8z"/>
<path class="st0" d="M474.1,303.7v5.7h-7.7v-5.7H474.1z"/>
<circle class="st0" cx="436.9" cy="299.3" r="3.1"/>
<circle class="st0" cx="465.7" cy="299.3" r="3.1"/>
<circle class="st0" cx="451.3" cy="299.3" r="6.5"/>
<path class="st0" d="M385.8,263.6v5.7h-7.6v-5.7H385.8z"/>
<path class="st0" d="M420.1,256.4v5.7h-7.7v-5.7H420.1z"/>
<circle class="st0" cx="382.9" cy="252.1" r="3.1"/>
<circle class="st0" cx="411.7" cy="252.1" r="3.1"/>
<circle class="st0" cx="397.3" cy="252.1" r="6.5"/>
<path class="st0" d="M387.7,217.4h-3.4V214h3.4V217.4z"/>
<path class="st0" d="M387.7,207.2h-3.4v-3.4h3.4V207.2z"/>
<path class="st0" d="M428.3,276.1h-2.8v-1.4h2.8V276.1z"/>
<path class="st0" d="M422.6,273.8h-5.1v-4h5.1V273.8z"/>
<path class="st0" d="M436.2,273.8h-5.1v-4h5.1V273.8z"/>
<path class="st0" d="M428.3,278.3h-2.8v-1.4h2.8V278.3z"/>
<path class="st0" d="M436.2,283.2h-5.1v-4h5.1V283.2z"/>
<path class="st0" d="M422.6,283.2h-5.1v-4h5.1V283.2z"/>
<path class="st0" d="M609.8,279.4l-0.3-0.1l-0.2-0.1l-0.1-0.2l-0.1-0.3V277l0.1-0.3l0.1-0.2l0.2-0.1l0.3-0.1h1.3l0.3,0.1l0.2,0.1
	l0.1,0.2l0.1,0.3v1.7l-0.1,0.3l-0.1,0.2l-0.2,0.1l-0.3,0.1H609.8z"/>
<path class="st0" d="M609.8,274.5l-0.3-0.1l-0.2-0.1l-0.1-0.2l-0.1-0.3v-1.7l0.1-0.3l0.1-0.2l0.2-0.1l0.3-0.1h1.3l0.3,0.1l0.2,0.1
	l0.1,0.2l0.1,0.3v1.7l-0.1,0.3l-0.1,0.2l-0.2,0.1l-0.3,0.1H609.8z"/>
<path class="st0" d="M464.3,174.6h-3.4v-3.4h3.4V174.6z"/>
<path class="st0" d="M464.3,164.4h-3.4V161h3.4V164.4z"/>
<path class="st0" d="M391.4,308.8l0.1-0.3l0.2-0.2l0.2-0.2l0.3-0.1h2.3l0.3,0.1l0.2,0.2l0.2,0.2l0.1,0.3v3.5l-0.1,0.3l-0.2,0.2
	l-0.2,0.2l-0.3,0.1h-2.3l-0.3-0.1l-0.2-0.2l-0.2-0.2l-0.1-0.3V308.8z"/>
<path class="st0" d="M400.2,308.8l0.1-0.3l0.2-0.2l0.2-0.2l0.3-0.1h2.3l0.3,0.1l0.2,0.2l0.2,0.2l0.1,0.3v3.5l-0.1,0.3l-0.2,0.2
	l-0.2,0.2l-0.3,0.1h-2.3l-0.3-0.1l-0.2-0.2l-0.2-0.2l-0.1-0.3V308.8z"/>
<path class="st0" d="M439.8,202.9v5.7h-7.6v-5.7H439.8z"/>
<path class="st0" d="M474.1,195.7v5.7h-7.7v-5.7H474.1z"/>
<circle class="st0" cx="436.9" cy="191.3" r="3.1"/>
<circle class="st0" cx="465.7" cy="191.3" r="3.1"/>
<circle class="st0" cx="451.3" cy="191.3" r="6.5"/>
<path class="st0" d="M520,137.6h2.8v1.4H520V137.6z"/>
<path class="st0" d="M525.7,139.9h5.1v4h-5.1V139.9z"/>
<path class="st0" d="M512.1,139.9h5.1v4h-5.1V139.9z"/>
<path class="st0" d="M520,135.3h2.8v1.4H520V135.3z"/>
<path class="st0" d="M512.1,130.5h5.1v4h-5.1V130.5z"/>
<path class="st0" d="M525.7,130.5h5.1v4h-5.1V130.5z"/>
<path class="st0" d="M430.6,267.3l-0.1,0.3l-0.1,0.2l-0.2,0.1l-0.3,0.1h-1.7l-0.3-0.1l-0.2-0.1l-0.1-0.2l-0.1-0.3V266l0.1-0.3
	l0.1-0.2l0.2-0.1l0.3-0.1h1.7l0.3,0.1l0.2,0.1l0.1,0.2l0.1,0.3V267.3z"/>
<path class="st0" d="M425.7,267.3l-0.1,0.3l-0.1,0.2l-0.2,0.1L425,268h-1.7l-0.3-0.1l-0.2-0.1l-0.1-0.2l-0.1-0.3V266l0.1-0.3
	l0.1-0.2l0.2-0.1l0.3-0.1h1.7l0.3,0.1l0.2,0.1l0.1,0.2l0.1,0.3V267.3z"/>
<path class="st0" d="M377.3,159.9l2.4-2.4l2.4,2.4l-2.4,2.4L377.3,159.9z"/>
<path class="st0" d="M384.5,167.1l2.4-2.4l2.4,2.4l-2.4,2.4L384.5,167.1z"/>
<path class="st0" d="M371.6,256.8l-0.3-0.1l-0.2-0.1l-0.1-0.2l-0.1-0.3v-1.7l0.1-0.3l0.1-0.2l0.2-0.1l0.3-0.1h1.3l0.3,0.1l0.2,0.1
	l0.1,0.2l0.1,0.3v1.7l-0.1,0.3l-0.1,0.2l-0.2,0.1l-0.3,0.1H371.6z"/>
<path class="st0" d="M371.6,251.9l-0.3-0.1l-0.2-0.1l-0.1-0.2l-0.1-0.3v-1.7l0.1-0.3l0.1-0.2l0.2-0.1l0.3-0.1h1.3l0.3,0.1l0.2,0.1
	l0.1,0.2l0.1,0.3v1.7l-0.1,0.3l-0.1,0.2l-0.2,0.1l-0.3,0.1H371.6z"/>
<path class="st0" d="M638.7,176.1h-4.3v-1.6h4.3V176.1z"/>
<path class="st0" d="M638.7,179.1h-4.3v-2h4.3V179.1z"/>
<path class="st0" d="M638.7,181.2h-4.3v-1.3h4.3V181.2z"/>
<path class="st0" d="M638.7,183.8h-4.3v-1.7h4.3V183.8z"/>
<path class="st0" d="M570.8,260.8v-5.7h7.6v5.7H570.8z"/>
<path class="st0" d="M536.5,268v-5.7h7.7v5.7H536.5z"/>
<circle class="st0" cx="573.7" cy="272.3" r="3.1"/>
<circle class="st0" cx="544.9" cy="272.3" r="3.1"/>
<circle class="st0" cx="559.3" cy="272.3" r="6.5"/>
<path class="st0" d="M539.8,334.8l-0.1,0.2l-0.2,0.2l-0.2,0.1l-0.3,0l-1.7-0.3l-0.2-0.1l-0.2-0.2l-0.1-0.2l0-0.3l0.2-1.3l0.1-0.2
	l0.2-0.2l0.2-0.1l0.3,0l1.7,0.3l0.2,0.1l0.2,0.2l0.1,0.2l0,0.3L539.8,334.8z"/>
<path class="st0" d="M535,333.9l-0.1,0.2l-0.2,0.2l-0.2,0.1l-0.3,0l-1.7-0.3l-0.2-0.1l-0.2-0.2l-0.1-0.2l0-0.3l0.2-1.3l0.1-0.2
	l0.2-0.2l0.2-0.1l0.3,0l1.7,0.3l0.2,0.1l0.2,0.2l0.1,0.2l0,0.3L535,333.9z"/>
<path class="st0" d="M433.1,165.8h-3.4v-3.4h3.4V165.8z"/>
<path class="st0" d="M433.1,155.6h-3.4v-3.4h3.4V155.6z"/>
<path class="st0" d="M628,366l-0.2-0.2l-0.1-0.3l0.1-0.3l0.2-0.2l1.6-1.6l0.2-0.2l0.3-0.1l0.3,0.1l0.2,0.2l2.5,2.5l0.2,0.2l0.1,0.3
	l-0.1,0.3l-0.2,0.2l-1.6,1.6l-0.2,0.2l-0.3,0.1l-0.3-0.1l-0.2-0.2L628,366z"/>
<path class="st0" d="M634.2,359.8l-0.2-0.2l-0.1-0.3l0.1-0.3l0.2-0.2l1.6-1.6l0.2-0.2l0.3-0.1l0.3,0.1l0.2,0.2l2.5,2.5l0.2,0.2
	l0.1,0.3l-0.1,0.3l-0.2,0.2l-1.6,1.6l-0.2,0.2l-0.3,0.1l-0.3-0.1l-0.2-0.2L634.2,359.8z"/>
<path class="st0" d="M470.5,227.7l-2.4,2.4l-2.4-2.4l2.4-2.4L470.5,227.7z"/>
<path class="st0" d="M463.3,220.5l-2.4,2.4l-2.4-2.4l2.4-2.4L463.3,220.5z"/>
<path class="st0" d="M447.1,230.2l-2.4-2.4l2.4-2.4l2.4,2.4L447.1,230.2z"/>
<path class="st0" d="M454.3,223l-2.4-2.4l2.4-2.4l2.4,2.4L454.3,223z"/>
<path class="st0" d="M599.3,351.5l2.4,1.5l-0.8,1.2l-2.4-1.5L599.3,351.5z"/>
<path class="st0" d="M602.8,356.4l4.3,2.7l-2.1,3.3l-4.3-2.7L602.8,356.4z"/>
<path class="st0" d="M591.4,349.1l4.3,2.7l-2.1,3.3l-4.3-2.7L591.4,349.1z"/>
<path class="st0" d="M600.5,349.6l2.4,1.5l-0.8,1.2l-2.4-1.5L600.5,349.6z"/>
<path class="st0" d="M596.4,341.2l4.3,2.7l-2.1,3.3l-4.3-2.7L596.4,341.2z"/>
<path class="st0" d="M607.9,348.5l4.3,2.7l-2.1,3.3l-4.3-2.7L607.9,348.5z"/>
<path class="st0" d="M399.1,223.1h-3.4v-3.4h3.4V223.1z"/>
<path class="st0" d="M399.1,212.8h-3.4v-3.4h3.4V212.8z"/>
<path class="st0" d="M408.1,297.8l-0.3-0.1l-0.2-0.2l-0.2-0.2l-0.1-0.3v-2.3l0.1-0.3l0.2-0.2l0.2-0.2l0.3-0.1h3.5l0.3,0.1l0.2,0.2
	l0.2,0.2l0.1,0.3v2.3l-0.1,0.3l-0.2,0.2l-0.2,0.2l-0.3,0.1H408.1z"/>
<path class="st0" d="M408.1,289l-0.3-0.1l-0.2-0.2l-0.2-0.2l-0.1-0.3V286l0.1-0.3l0.2-0.2l0.2-0.2l0.3-0.1h3.5l0.3,0.1l0.2,0.2
	l0.2,0.2l0.1,0.3v2.3l-0.1,0.3l-0.2,0.2l-0.2,0.2l-0.3,0.1H408.1z"/>
<path class="st0" d="M593.4,342.3l0.2,0.2l0.1,0.2l0,0.3l-0.1,0.2l-0.9,1.4l-0.2,0.2l-0.2,0.1l-0.3,0l-0.2-0.1l-1.1-0.7l-0.2-0.2
	l-0.1-0.2l0-0.3l0.1-0.2l0.9-1.4l0.2-0.2l0.2-0.1l0.3,0l0.2,0.1L593.4,342.3z"/>
<path class="st0" d="M590.8,346.4l0.2,0.2l0.1,0.2l0,0.3l-0.1,0.2l-0.9,1.4l-0.2,0.2l-0.2,0.1l-0.3,0l-0.2-0.1l-1.1-0.7l-0.2-0.2
	l-0.1-0.2l0-0.3l0.1-0.2l0.9-1.4l0.2-0.2l0.2-0.1l0.3,0l0.2,0.1L590.8,346.4z"/>
<path class="st0" d="M489.1,128.8l2.6,2.6l-2.6,2.6l-2.6-2.6L489.1,128.8z"/>
<path class="st0" d="M481.1,128.8l2.6,2.6l-2.6,2.6l-2.6-2.6L481.1,128.8z"/>
<circle class="st0" cx="485.1" cy="135.5" r="2.1"/>
<path class="st0" d="M391.1,294.4l0.1-0.3l0.2-0.2l0.2-0.2l0.3-0.1h2.3l0.3,0.1l0.2,0.2l0.2,0.2l0.1,0.3v3.5l-0.1,0.3l-0.2,0.2
	l-0.2,0.2l-0.3,0.1h-2.3l-0.3-0.1l-0.2-0.2l-0.2-0.2l-0.1-0.3V294.4z"/>
<path class="st0" d="M399.9,294.4l0.1-0.3l0.2-0.2l0.2-0.2l0.3-0.1h2.3l0.3,0.1l0.2,0.2l0.2,0.2l0.1,0.3v3.5l-0.1,0.3l-0.2,0.2
	l-0.2,0.2l-0.3,0.1h-2.3l-0.3-0.1l-0.2-0.2l-0.2-0.2l-0.1-0.3V294.4z"/>
<path class="st0" d="M638.7,222h-4.3v-1.6h4.3V222z"/>
<path class="st0" d="M638.7,225h-4.3v-2h4.3V225z"/>
<path class="st0" d="M638.7,227.1h-4.3v-1.3h4.3V227.1z"/>
<path class="st0" d="M638.7,229.6h-4.3v-1.7h4.3V229.6z"/>
<path class="st0" d="M379.2,226.2h-3.4v-3.4h3.4V226.2z"/>
<path class="st0" d="M379.2,216h-3.4v-3.4h3.4V216z"/>
<path class="st0" d="M472.8,165.5h-3.4v-3.4h3.4V165.5z"/>
<path class="st0" d="M472.8,155.3h-3.4v-3.4h3.4V155.3z"/>
<path class="st0" d="M408.8,132.5v-5.7h7.6v5.7H408.8z"/>
<path class="st0" d="M374.5,139.7V134h7.7v5.7H374.5z"/>
<circle class="st0" cx="411.7" cy="144.1" r="3.1"/>
<circle class="st0" cx="382.9" cy="144.1" r="3.1"/>
<circle class="st0" cx="397.3" cy="144.1" r="6.5"/>
<path class="st0" d="M399.1,242.9h-3.4v-3.4h3.4V242.9z"/>
<path class="st0" d="M399.1,232.7h-3.4v-3.4h3.4V232.7z"/>
<path class="st0" d="M354.8,274.3v-5.7h7.6v5.7H354.8z"/>
<path class="st0" d="M320.5,281.5v-5.7h7.7v5.7H320.5z"/>
<circle class="st0" cx="357.7" cy="285.8" r="3.1"/>
<circle class="st0" cx="328.9" cy="285.8" r="3.1"/>
<circle class="st0" cx="343.3" cy="285.8" r="6.5"/>
<path class="st0" d="M529.9,111.6v4.8h-2.6v-4.8H529.9z"/>
<path class="st0" d="M520.2,111.6v4.8h-2.6v-4.8H520.2z"/>
<path class="st0" d="M536.4,324l2.8,0.5l-0.2,1.4l-2.8-0.5L536.4,324z"/>
<path class="st0" d="M541.6,327.2l5,0.9L546,332l-5-0.9L541.6,327.2z"/>
<path class="st0" d="M528.2,324.8l5,0.9l-0.7,3.9l-5-0.9L528.2,324.8z"/>
<path class="st0" d="M536.8,321.7l2.8,0.5l-0.2,1.4l-2.8-0.5L536.8,321.7z"/>
<path class="st0" d="M529.9,315.6l5,0.9l-0.7,3.9l-5-0.9L529.9,315.6z"/>
<path class="st0" d="M543.3,318l5,0.9l-0.7,3.9l-5-0.9L543.3,318z"/>
<path class="st0" d="M411.6,308.7l0.3,0.1l0.2,0.2l0.2,0.2l0.1,0.3v2.3l-0.1,0.3l-0.2,0.2l-0.2,0.2l-0.3,0.1h-3.5l-0.3-0.1l-0.2-0.2
	l-0.2-0.2l-0.1-0.3v-2.3l0.1-0.3l0.2-0.2l0.2-0.2l0.3-0.1H411.6z"/>
<path class="st0" d="M411.6,317.4l0.3,0.1l0.2,0.2l0.2,0.2l0.1,0.3v2.3l-0.1,0.3l-0.2,0.2l-0.2,0.2l-0.3,0.1h-3.5l-0.3-0.1l-0.2-0.2
	l-0.2-0.2l-0.1-0.3v-2.3l0.1-0.3l0.2-0.2l0.2-0.2l0.3-0.1H411.6z"/>
<path class="st0" d="M410.4,217.4H407V214h3.4V217.4z"/>
<path class="st0" d="M410.4,207.2H407v-3.4h3.4V207.2z"/>
<path class="st0" d="M359.2,199v-2.8h1.4v2.8H359.2z"/>
<path class="st0" d="M361.5,193.3v-5.1h4v5.1H361.5z"/>
<path class="st0" d="M361.5,206.9v-5.1h4v5.1H361.5z"/>
<path class="st0" d="M356.9,199v-2.8h1.4v2.8H356.9z"/>
<path class="st0" d="M352.1,206.9v-5.1h4v5.1H352.1z"/>
<path class="st0" d="M352.1,193.3v-5.1h4v5.1H352.1z"/>
<path class="st0" d="M416.7,318.5l0.1-0.3l0.1-0.2l0.2-0.1l0.3-0.1h1.7l0.3,0.1l0.2,0.1l0.1,0.2l0.1,0.3v1.3l-0.1,0.3l-0.1,0.2
	l-0.2,0.1l-0.3,0.1h-1.7l-0.3-0.1l-0.2-0.1l-0.1-0.2l-0.1-0.3V318.5z"/>
<path class="st0" d="M421.6,318.5l0.1-0.3l0.1-0.2l0.2-0.1l0.3-0.1h1.7l0.3,0.1l0.2,0.1l0.1,0.2l0.1,0.3v1.3l-0.1,0.3l-0.1,0.2
	l-0.2,0.1l-0.3,0.1h-1.7l-0.3-0.1l-0.2-0.1l-0.1-0.2l-0.1-0.3V318.5z"/>
<path class="st0" d="M387.7,234.4h-3.4V231h3.4V234.4z"/>
<path class="st0" d="M387.7,224.2h-3.4v-3.4h3.4V224.2z"/>
<path class="st0" d="M516.8,152.8v-5.7h7.6v5.7H516.8z"/>
<path class="st0" d="M482.5,160v-5.7h7.7v5.7H482.5z"/>
<circle class="st0" cx="519.7" cy="164.3" r="3.1"/>
<circle class="st0" cx="490.9" cy="164.3" r="3.1"/>
<circle class="st0" cx="505.3" cy="164.3" r="6.5"/>
<path class="st0" d="M552.1,344.1l-1.9,5.3l-7.2-2.6l1.9-5.3L552.1,344.1z"/>
<path class="st0" d="M586.8,349.1l-1.9,5.3l-7.2-2.6l1.9-5.3L586.8,349.1z"/>
<circle class="st0" cx="553.3" cy="332.3" r="3.1"/>
<circle class="st0" cx="580.4" cy="342.1" r="3.1"/>
<circle class="st0" cx="566.8" cy="337.2" r="6.5"/>
<path class="st0" d="M441.6,157h-3.4v-3.4h3.4V157z"/>
<path class="st0" d="M441.6,146.8h-3.4v-3.4h3.4V146.8z"/>
<path class="st0" d="M489.5,304.8h2.8v1.4h-2.8V304.8z"/>
<path class="st0" d="M495.2,307h5.1v4h-5.1V307z"/>
<path class="st0" d="M481.5,307h5.1v4h-5.1V307z"/>
<path class="st0" d="M489.5,302.5h2.8v1.4h-2.8V302.5z"/>
<path class="st0" d="M481.5,297.7h5.1v4h-5.1V297.7z"/>
<path class="st0" d="M495.2,297.7h5.1v4h-5.1V297.7z"/>
<path class="st0" d="M493.8,337.9v5.7h-7.6v-5.7H493.8z"/>
<path class="st0" d="M528.1,330.7v5.7h-7.7v-5.7H528.1z"/>
<circle class="st0" cx="490.9" cy="326.3" r="3.1"/>
<circle class="st0" cx="519.7" cy="326.3" r="3.1"/>
<circle class="st0" cx="505.3" cy="326.3" r="6.5"/>
<path class="st0" d="M452.9,182.5h-3.4v-3.4h3.4V182.5z"/>
<path class="st0" d="M452.9,172.3h-3.4v-3.4h3.4V172.3z"/>
<path class="st0" d="M493.8,229.9v5.7h-7.6v-5.7H493.8z"/>
<path class="st0" d="M528.1,222.7v5.7h-7.7v-5.7H528.1z"/>
<circle class="st0" cx="490.9" cy="218.3" r="3.1"/>
<circle class="st0" cx="519.7" cy="218.3" r="3.1"/>
<circle class="st0" cx="505.3" cy="218.3" r="6.5"/>
<path class="st0" d="M441.6,174h-3.4v-3.4h3.4V174z"/>
<path class="st0" d="M441.6,163.8h-3.4v-3.4h3.4V163.8z"/>
<path class="st0" d="M640.6,419.6l-5.3,1.9l-2.6-7.2l5.3-1.9L640.6,419.6z"/>
<path class="st0" d="M659.1,449.4l-5.3,1.9l-2.6-7.2l5.3-1.9L659.1,449.4z"/>
<circle class="st0" cx="650.5" cy="413" r="3.1"/>
<circle class="st0" cx="660.3" cy="440" r="3.1"/>
<circle class="st0" cx="655.4" cy="426.5" r="6.5"/>
<path class="st0" d="M418.9,225.9h-3.4v-3.4h3.4V225.9z"/>
<path class="st0" d="M418.9,215.7h-3.4v-3.4h3.4V215.7z"/>
<path class="st0" d="M604.5,371.8l-4,4l-5.4-5.4l4-4L604.5,371.8z"/>
<path class="st0" d="M633.9,391l-4,4l-5.4-5.4l4-4L633.9,391z"/>
<circle class="st0" cx="610.7" cy="361.6" r="3.1"/>
<circle class="st0" cx="631" cy="382" r="3.1"/>
<circle class="st0" cx="620.8" cy="371.8" r="6.5"/>
<path class="st0" d="M452.9,162.7h-3.4v-3.4h3.4V162.7z"/>
<path class="st0" d="M452.9,152.5h-3.4v-3.4h3.4V152.5z"/>
<path class="st0" d="M354.8,220.3v-5.7h7.6v5.7H354.8z"/>
<path class="st0" d="M320.5,227.5v-5.7h7.7v5.7H320.5z"/>
<circle class="st0" cx="357.7" cy="231.8" r="3.1"/>
<circle class="st0" cx="328.9" cy="231.8" r="3.1"/>
<circle class="st0" cx="343.3" cy="231.8" r="6.5"/>
<path class="st0" d="M416.7,286.1l0.1-0.3l0.1-0.2l0.2-0.1l0.3-0.1h1.7l0.3,0.1l0.2,0.1l0.1,0.2l0.1,0.3v1.3l-0.1,0.3l-0.1,0.2
	l-0.2,0.1l-0.3,0.1h-1.7l-0.3-0.1l-0.2-0.1l-0.1-0.2l-0.1-0.3V286.1z"/>
<path class="st0" d="M421.6,286.1l0.1-0.3l0.1-0.2l0.2-0.1l0.3-0.1h1.7l0.3,0.1l0.2,0.1l0.1,0.2l0.1,0.3v1.3l-0.1,0.3l-0.1,0.2
	l-0.2,0.1l-0.3,0.1h-1.7l-0.3-0.1l-0.2-0.1l-0.1-0.2l-0.1-0.3V286.1z"/>
<path class="st0" d="M494.9,316.1l-0.1,0.3l-0.1,0.2l-0.2,0.1l-0.3,0.1h-1.7l-0.3-0.1l-0.2-0.1l-0.1-0.2l-0.1-0.3v-1.3l0.1-0.3
	l0.1-0.2l0.2-0.1l0.3-0.1h1.7l0.3,0.1l0.2,0.1l0.1,0.2l0.1,0.3V316.1z"/>
<path class="st0" d="M490.1,316.1l-0.1,0.3l-0.1,0.2l-0.2,0.1l-0.3,0.1h-1.7l-0.3-0.1l-0.2-0.1l-0.1-0.2l-0.1-0.3v-1.3l0.1-0.3
	l0.1-0.2l0.2-0.1l0.3-0.1h1.7l0.3,0.1l0.2,0.1l0.1,0.2l0.1,0.3V316.1z"/>
<path class="st0" d="M636,192.7l-0.3-0.1l-0.2-0.1l-0.1-0.2l-0.1-0.3v-1.7l0.1-0.3l0.1-0.2l0.2-0.1l0.3-0.1h1.3l0.3,0.1l0.2,0.1
	l0.1,0.2l0.1,0.3v1.7l-0.1,0.3l-0.1,0.2l-0.2,0.1l-0.3,0.1H636z"/>
<path class="st0" d="M636,187.8l-0.3-0.1l-0.2-0.1l-0.1-0.2l-0.1-0.3v-1.7l0.1-0.3l0.1-0.2l0.2-0.1l0.3-0.1h1.3l0.3,0.1l0.2,0.1
	l0.1,0.2l0.1,0.3v1.7l-0.1,0.3l-0.1,0.2l-0.2,0.1l-0.3,0.1H636z"/>
<path class="st0" d="M516.8,260.8v-5.7h7.6v5.7H516.8z"/>
<path class="st0" d="M482.5,268v-5.7h7.7v5.7H482.5z"/>
<circle class="st0" cx="519.7" cy="272.3" r="3.1"/>
<circle class="st0" cx="490.9" cy="272.3" r="3.1"/>
<circle class="st0" cx="505.3" cy="272.3" r="6.5"/>
<path class="st0" d="M412.4,174.4l0.1-0.3l0.1-0.2l0.2-0.1l0.3-0.1h1.7l0.3,0.1l0.2,0.1l0.1,0.2l0.1,0.3v1.3l-0.1,0.3l-0.1,0.2
	l-0.2,0.1l-0.3,0.1h-1.7l-0.3-0.1l-0.2-0.1l-0.1-0.2l-0.1-0.3V174.4z"/>
<path class="st0" d="M417.3,174.4l0.1-0.3l0.1-0.2l0.2-0.1l0.3-0.1h1.7l0.3,0.1l0.2,0.1l0.1,0.2l0.1,0.3v1.3l-0.1,0.3l-0.1,0.2
	l-0.2,0.1l-0.3,0.1H418l-0.3-0.1l-0.2-0.1l-0.1-0.2l-0.1-0.3V174.4z"/>
<path class="st0" d="M442.2,227.7l-2.4,2.4l-2.4-2.4l2.4-2.4L442.2,227.7z"/>
<path class="st0" d="M434.9,220.5l-2.4,2.4l-2.4-2.4l2.4-2.4L434.9,220.5z"/>
</svg>
