0
SECTION
2
HEADER
9
$INSUNITS
70
4
9
$ACADVER
1
AC1014
9
$HANDSEED
5
FFFF
0
ENDSEC
0
SECTION
2
TABLES
0
TABLE
2
VPORT
5
8
100
AcDbSymbolTable
0
ENDTAB
0
TABLE
2
LTYPE
5
5
100
AcDbSymbolTable
0
LTYPE
5
14
100
AcDbSymbolTableRecord
100
AcDbLinetypeTableRecord
2
BYBLOCK
70
0
0
LTYPE
5
15
100
AcDbSymbolTableRecord
100
AcDbLinetypeTableRecord
2
BYLAYER
70
0
0
ENDTAB
0
TABLE
2
LAYER
5
2
100
AcDbSymbolTable
70
2
0
LAYER
5
50
100
AcDbSymbolTableRecord
100
AcDbLayerTableRecord
2
0
70
0
6
CONTINUOUS
0
ENDTAB
0
TABLE
2
STYLE
5
3
100
AcDbSymbolTable
70
1
0
STYLE
5
11
100
AcDbSymbolTableRecord
100
AcDbTextStyleTableRecord
2
STANDARD
70
0
0
ENDTAB
0
TABLE
2
VIEW
5
6
100
AcDbSymbolTable
70
0
0
ENDTAB
0
TABLE
2
UCS
5
7
100
AcDbSymbolTable
70
0
0
ENDTAB
0
TABLE
2
APPID
5
9
100
AcDbSymbolTable
70
2
0
APPID
5
12
100
AcDbSymbolTableRecord
100
AcDbRegAppTableRecord
2
ACAD
70
0
0
ENDTAB
0
TABLE
2
DIMSTYLE
5
A
100
AcDbSymbolTable
70
1
0
ENDTAB
0
TABLE
2
BLOCK_RECORD
5
1
100
AcDbSymbolTable
70
1
0
BLOCK_RECORD
5
1F
100
AcDbSymbolTableRecord
100
AcDbBlockTableRecord
2
*MODEL_SPACE
0
BLOCK_RECORD
5
1B
100
AcDbSymbolTableRecord
100
AcDbBlockTableRecord
2
*PAPER_SPACE
0
ENDTAB
0
ENDSEC
0
SECTION
2
BLOCKS
0
BLOCK
5
20
100
AcDbEntity
100
AcDbBlockBegin
2
*MODEL_SPACE
0
ENDBLK
5
21
100
AcDbEntity
100
AcDbBlockEnd
0
BLOCK
5
1C
100
AcDbEntity
100
AcDbBlockBegin
2
*PAPER_SPACE
0
ENDBLK
5
1D
100
AcDbEntity
100
AcDbBlockEnd
0
ENDSEC
0
SECTION
2
ENTITIES
0
LWPOLYLINE
5
100
100
AcDbEntity
8
0
100
AcDbPolyline
90
58
70
1
43
0.0
10
14.69850530071934
20
6.3816375133921177
42
0.41373089796569312
10
13.4185548828283
20
6.980328191593193
10
-1.6227749294983695
20
1.5398471956452298
42
0.41487530941232209
10
-2.2222443700670977
20
0.25721161997466213
10
2.9723733659710838
20
-14.003586548898639
10
8.9278217267011861
20
-24.1965654739945
10
13.29687393635078
20
-28.325748150565303
42
-0.20625649573865873
10
13.609999374994509
20
-29.052524138722333
10
13.609999374994501
20
-79.759996846545604
42
0.41421356237309698
10
14.609999374994507
20
-80.759996846545604
10
30.10999867431595
20
-80.759996846545619
42
-0.41421356237310153
10
31.109998674315953
20
-81.75999684654559
10
31.109998674315928
20
-104.2599958655955
42
0.41421356237309631
10
32.109998674315932
20
-105.2599958655955
10
46.609998013676055
20
-105.2599958655955
42
-0.41421356237309503
10
47.609998013676048
20
-106.2599958655955
10
47.609998013676048
20
-113.251952368625
42
0.41185025597842628
10
48.601922532085894
20
-114.25191976139192
10
86.507603808563402
20
-114.55803637431815
42
0.41532223188465472
10
87.515670080311892
20
-113.56236078751758
10
87.517191483984163
20
-113.20787373188432
42
-0.41218921867850528
10
88.514557611267023
20
-112.2121689822842
10
105.58122260580269
20
-112.16737458597311
42
0.41303451717152351
10
106.57859695939109
20
-111.16878055357141
10
106.58580318642883
20
-106.03074067567647
42
-0.41303451717152351
10
107.58317754001723
20
-105.03214664327476
10
124.64473055880941
20
-104.98736566422281
42
0.41406404707726346
10
125.64210366109478
20
-103.9852549484763
10
125.63635316398995
20
-101.26526981789067
42
-0.41514075088161145
10
126.63740134873939
20
-100.26315620940144
10
143.66864139012421
20
-100.2810461674281
42
0.41443272607140563
10
144.66969176404854
20
-99.28134892520967
10
144.68029712811611
20
-64.188199225426644
42
0.41491660427280269
10
143.67819964299866
20
-63.187899219155966
10
126.61419415519507
20
-63.223691574662695
42
-0.41503283000378727
10
125.6120968685824
20
-62.222994962633855
10
125.62069471575141
20
-49.919475663726288
42
0.4147755379956245
10
124.61947544863216
20
-48.918777595481515
10
110.21806837912351
20
-48.936340287029658
42
-0.414263734098063
10
109.2168494172153
20
-47.937389248087349
10
109.20894748941323
20
-40.39895012494101
42
0.41390657984774565
10
108.2089480387933
20
-39.39999834239449
10
69.486851035593148
20
-39.399998342394483
42
-0.41390625776069623
10
68.486851586126789
20
-38.401047659760138
10
68.478946522827158
20
-30.867522335205699
42
0.41432434865812795
10
67.477519523066633
20
-29.868572671521797
10
52.720040046205199
20
-29.889639737156092
42
-0.042074966691823326
10
52.552611398314546
20
-29.875766323971376
10
48.083871062258638
20
-29.123513441749452
42
-0.045852708245650867
10
47.906922157924313
20
-29.076741532617913
10
35.526867056605475
20
-24.556889098523698
42
-0.084724203876030912
10
35.234711658943731
20
-24.389960925781345
10
31.692392316960323
20
-21.477387244594944
42
-0.024191562916943035
10
31.620748692333454
20
-21.4124261158439
10
22.151910440838112
20
-11.953162018293408
42
-0.074595373854005914
10
21.975421859922125
20
-11.714623383182971
10
19.794660708678084
20
-7.6070853111611587
42
-0.034855176019262121
10
19.738083977576895
20
-7.4798451365811118
0
ENDSEC
0
SECTION
2
OBJECTS
0
DICTIONARY
5
C
100
AcDbDictionary
3
ACAD_GROUP
350
D
3
ACAD_MLINESTYLE
350
17
0
DICTIONARY
5
D
100
AcDbDictionary
0
DICTIONARY
5
1A
330
C
100
AcDbDictionary
0
DICTIONARY
5
17
100
AcDbDictionary
0
ENDSEC
0
EOF
