<?xml version="1.0" encoding="utf-8"?>
<!-- Generator: Adobe Illustrator 22.1.0, SVG Export Plug-In . SVG Version: 6.00 Build 0)  -->
<svg version="1.1" id="_x30_" xmlns="http://www.w3.org/2000/svg" xmlns:xlink="http://www.w3.org/1999/xlink" x="0px" y="0px"
	 viewBox="0 0 612 792" style="enable-background:new 0 0 612 792;" xml:space="preserve">
<style type="text/css">
	.st0{fill:none;stroke:#000000;stroke-width:0.7087;stroke-linecap:round;stroke-linejoin:round;stroke-miterlimit:10;}
</style>
<g id="LWPOLYLINE">
	<path class="st0" d="M430.9,448.2l12.4,12.4c0.1,0.1,0.1,0.2,0.2,0.3l9.1,14.9c0,0.1,0.1,0.2,0.1,0.3l13.3,36.5
		c0.3,0.7-0.1,1.5-0.8,1.8L430,527.3c-0.7,0.3-1.5-0.1-1.8-0.8l-13.5-36.9c-0.1-0.2-0.2-0.4-0.3-0.5c0,0-28.2-28.2-28.2-28.2
		l0.1,0.1c-0.1-0.1-0.3-0.3-0.5-0.3L348.5,447c-0.2-0.1-0.3-0.1-0.5-0.1h-38.8c-0.8,0-1.4-0.6-1.4-1.4v-17.4c0-0.8-0.6-1.4-1.4-1.4
		H227l0.2,0c-0.8,0-1.4-0.6-1.4-1.4l0.1-17.4c0-0.8-0.6-1.4-1.4-1.4c0,0,0,0,0,0h-36.7c-0.8,0-1.4-0.6-1.4-1.4v-27.5
		c0-0.8-0.6-1.4-1.4-1.4h-37.7c-0.8,0-1.4-0.6-1.4-1.4v-39.1v-39.1c0-0.8,0.6-1.4,1.4-1.4h37.7c0.8,0,1.4-0.6,1.4-1.4v-7.4
		c0-0.8,0.6-1.4,1.4-1.4h37.7c0.8,0,1.4-0.6,1.4-1.4v-12.2c0-0.8,0.6-1.4,1.4-1.4h37.7c0.8,0,1.4-0.6,1.4-1.4v-2.3
		c0-0.8,0.6-1.4,1.4-1.4h78.2c0.8,0,1.4,0.6,1.4,1.4v17.4c0,0.8,0.6,1.4,1.4,1.4h38.5c0.4,0,0.7,0.2,1,0.4l40.8,41.1
		c0.3,0.3,0.4,0.6,0.4,1v119.8C430.4,447.6,430.6,448,430.9,448.2z"/>
</g>
</svg>
