  0
SECTION
  2
HEADER
  9
$ANGBASE
  50
0.0
  9
$ANGDIR
  70
1
  9
$MEASUREMENT
  70
0
  0
ENDSEC
  0
SECTION
  2
TABLES
  0
TABLE
  2
LTYPE
  70
4
  0
LTYPE
  5
40F
  2
CONTINUOUS
  70
0
  3
Solid line
  72
65
  73
0
  40
0.0
  0
LTYPE
  5
410
  2
DASHDOT
 70
0
  3
Dash Dot ____ _ ____ _
 72
65
 73
4
 40
2.0
 49
1.25
 49
-0.25
 49
0.25
 49
-0.25
  0
LTYPE
  5
411
  2
DASHED
 70
0
  3
Dashed __ __ __ __ __
 72
65
 73
2
 40
0.75
 49
0.5
 49
-0.25
  0
LTYPE
  5
43B
  2
DOTTED
 70
0
  3
Dotted .  .  .  .
 72
65
 73
2
 40
0.2
 49
0.0
 49
-0.2
  0
ENDTAB
  0
TABLE
  2
STYLE
  70
4
  0
STYLE
  2
KICAD
  70
0
  40
0
  41
1
  42
1
  50
0
  71
0
  3
isocp.shx
  0
STYLE
  2
KICADB
  70
0
  40
0
  41
1
  42
1
  50
0
  71
0
  3
isocp.shx
  0
STYLE
  2
KICADI
  70
0
  40
0
  41
1
  42
1
  50
15
  71
0
  3
isocp.shx
  0
STYLE
  2
KICADBI
  70
0
  40
0
  41
1
  42
1
  50
15
  71
0
  3
isocp.shx
  0
ENDTAB
  0
TABLE
  2
LAYER
  70
1
  0
LAYER
  2
BLACK
  70
0
  62
7
  6
CONTINUOUS
  0
ENDTAB
  0
ENDSEC
  0
SECTION
  2
ENTITIES
0
LINE
8
BLACK
6
CONTINUOUS
10
4.83921
20
-1.14384
11
4.84512
21
-1.14564
0
LINE
8
BLACK
6
CONTINUOUS
10
4.84512
20
-1.14564
11
4.85056
21
-1.14855
0
LINE
8
BLACK
6
CONTINUOUS
10
4.85056
20
-1.14855
11
4.85533
21
-1.15246
0
LINE
8
BLACK
6
CONTINUOUS
10
4.85533
20
-1.15246
11
4.85925
21
-1.15724
0
LINE
8
BLACK
6
CONTINUOUS
10
4.85925
20
-1.15724
11
4.86216
21
-1.16268
0
LINE
8
BLACK
6
CONTINUOUS
10
4.86216
20
-1.16268
11
4.86396
21
-1.16859
0
LINE
8
BLACK
6
CONTINUOUS
10
4.86396
20
-1.16859
11
4.86456
21
-1.17473
0
LINE
8
BLACK
6
CONTINUOUS
10
4.86456
20
-1.17473
11
4.86456
21
-1.17473
0
LINE
8
BLACK
6
CONTINUOUS
10
4.86456
20
-1.17473
11
4.86456
21
-1.17473
0
LINE
8
BLACK
6
CONTINUOUS
10
4.86456
20
-1.17473
11
4.86456
21
-1.17473
0
LINE
8
BLACK
6
CONTINUOUS
10
4.86456
20
-1.17473
11
4.86456
21
-1.49724
0
LINE
8
BLACK
6
CONTINUOUS
10
4.86456
20
-1.49724
11
4.86449
21
-1.49775
0
LINE
8
BLACK
6
CONTINUOUS
10
4.86449
20
-1.49775
11
4.86496
21
-1.50194
0
LINE
8
BLACK
6
CONTINUOUS
10
4.86496
20
-1.50194
11
4.86652
21
-1.50641
0
LINE
8
BLACK
6
CONTINUOUS
10
4.86652
20
-1.50641
11
4.86904
21
-1.51041
0
LINE
8
BLACK
6
CONTINUOUS
10
4.86904
20
-1.51041
11
4.87238
21
-1.51376
0
LINE
8
BLACK
6
CONTINUOUS
10
4.87238
20
-1.51376
11
4.87639
21
-1.51628
0
LINE
8
BLACK
6
CONTINUOUS
10
4.87639
20
-1.51628
11
4.88086
21
-1.51784
0
LINE
8
BLACK
6
CONTINUOUS
10
4.88086
20
-1.51784
11
4.88521
21
-1.51833
0
LINE
8
BLACK
6
CONTINUOUS
10
4.88521
20
-1.51833
11
4.88555
21
-1.51824
0
LINE
8
BLACK
6
CONTINUOUS
10
4.88555
20
-1.51824
11
4.88556
21
-1.51824
0
LINE
8
BLACK
6
CONTINUOUS
10
4.88556
20
-1.51824
11
5.59838
21
-1.51824
0
LINE
8
BLACK
6
CONTINUOUS
10
5.59838
20
-1.51824
11
5.60333
21
-1.51863
0
LINE
8
BLACK
6
CONTINUOUS
10
5.60333
20
-1.51863
11
5.60816
21
-1.51979
0
LINE
8
BLACK
6
CONTINUOUS
10
5.60816
20
-1.51979
11
5.61274
21
-1.5217
0
LINE
8
BLACK
6
CONTINUOUS
10
5.61274
20
-1.5217
11
5.61697
21
-1.52431
0
LINE
8
BLACK
6
CONTINUOUS
10
5.61697
20
-1.52431
11
5.62073
21
-1.52754
0
LINE
8
BLACK
6
CONTINUOUS
10
5.62073
20
-1.52754
11
5.62073
21
-1.52754
0
LINE
8
BLACK
6
CONTINUOUS
10
5.62073
20
-1.52754
11
5.62073
21
-1.52754
0
LINE
8
BLACK
6
CONTINUOUS
10
5.62073
20
-1.52754
11
5.62073
21
-1.52754
0
LINE
8
BLACK
6
CONTINUOUS
10
5.62073
20
-1.52754
11
6.37625
21
-2.2885
0
LINE
8
BLACK
6
CONTINUOUS
10
6.37625
20
-2.2885
11
6.37625
21
-2.2885
0
LINE
8
BLACK
6
CONTINUOUS
10
6.37625
20
-2.2885
11
6.37625
21
-2.2885
0
LINE
8
BLACK
6
CONTINUOUS
10
6.37625
20
-2.2885
11
6.38013
21
-2.29327
0
LINE
8
BLACK
6
CONTINUOUS
10
6.38013
20
-2.29327
11
6.38302
21
-2.29869
0
LINE
8
BLACK
6
CONTINUOUS
10
6.38302
20
-2.29869
11
6.38479
21
-2.30458
0
LINE
8
BLACK
6
CONTINUOUS
10
6.38479
20
-2.30458
11
6.38539
21
-2.31069
0
LINE
8
BLACK
6
CONTINUOUS
10
6.38539
20
-2.31069
11
6.38539
21
-2.31069
0
LINE
8
BLACK
6
CONTINUOUS
10
6.38539
20
-2.31069
11
6.38539
21
-4.52928
0
LINE
8
BLACK
6
CONTINUOUS
10
6.38539
20
-4.52928
11
6.38539
21
-4.52928
0
LINE
8
BLACK
6
CONTINUOUS
10
6.38539
20
-4.52928
11
6.38539
21
-4.52928
0
LINE
8
BLACK
6
CONTINUOUS
10
6.38539
20
-4.52928
11
6.38539
21
-4.52928
0
LINE
8
BLACK
6
CONTINUOUS
10
6.38539
20
-4.52928
11
6.38533
21
-4.5297
0
LINE
8
BLACK
6
CONTINUOUS
10
6.38533
20
-4.5297
11
6.3857
21
-4.5334
0
LINE
8
BLACK
6
CONTINUOUS
10
6.3857
20
-4.5334
11
6.3869
21
-4.53736
0
LINE
8
BLACK
6
CONTINUOUS
10
6.3869
20
-4.53736
11
6.38885
21
-4.541
0
LINE
8
BLACK
6
CONTINUOUS
10
6.38885
20
-4.541
11
6.39129
21
-4.54399
0
LINE
8
BLACK
6
CONTINUOUS
10
6.39129
20
-4.54399
11
6.39154
21
-4.54413
0
LINE
8
BLACK
6
CONTINUOUS
10
6.39154
20
-4.54413
11
6.39154
21
-4.54413
0
LINE
8
BLACK
6
CONTINUOUS
10
6.39154
20
-4.54413
11
6.39154
21
-4.54413
0
LINE
8
BLACK
6
CONTINUOUS
10
6.39154
20
-4.54413
11
6.62194
21
-4.77453
0
LINE
8
BLACK
6
CONTINUOUS
10
6.62194
20
-4.77453
11
6.62194
21
-4.77453
0
LINE
8
BLACK
6
CONTINUOUS
10
6.62194
20
-4.77453
11
6.62362
21
-4.77634
0
LINE
8
BLACK
6
CONTINUOUS
10
6.62362
20
-4.77634
11
6.62514
21
-4.77828
0
LINE
8
BLACK
6
CONTINUOUS
10
6.62514
20
-4.77828
11
6.62651
21
-4.78032
0
LINE
8
BLACK
6
CONTINUOUS
10
6.62651
20
-4.78032
11
6.62651
21
-4.78032
0
LINE
8
BLACK
6
CONTINUOUS
10
6.62651
20
-4.78032
11
6.62651
21
-4.78032
0
LINE
8
BLACK
6
CONTINUOUS
10
6.62651
20
-4.78032
11
6.62651
21
-4.78032
0
LINE
8
BLACK
6
CONTINUOUS
10
6.62651
20
-4.78032
11
6.79574
21
-5.056
0
LINE
8
BLACK
6
CONTINUOUS
10
6.79574
20
-5.056
11
6.79574
21
-5.056
0
LINE
8
BLACK
6
CONTINUOUS
10
6.79574
20
-5.056
11
6.79574
21
-5.056
0
LINE
8
BLACK
6
CONTINUOUS
10
6.79574
20
-5.056
11
6.79678
21
-5.05782
0
LINE
8
BLACK
6
CONTINUOUS
10
6.79678
20
-5.05782
11
6.79769
21
-5.05971
0
LINE
8
BLACK
6
CONTINUOUS
10
6.79769
20
-5.05971
11
6.79848
21
-5.06166
0
LINE
8
BLACK
6
CONTINUOUS
10
6.79848
20
-5.06166
11
6.79848
21
-5.06166
0
LINE
8
BLACK
6
CONTINUOUS
10
6.79848
20
-5.06166
11
6.79848
21
-5.06166
0
LINE
8
BLACK
6
CONTINUOUS
10
6.79848
20
-5.06166
11
7.04551
21
-5.73731
0
LINE
8
BLACK
6
CONTINUOUS
10
7.04551
20
-5.73731
11
7.04551
21
-5.73731
0
LINE
8
BLACK
6
CONTINUOUS
10
7.04551
20
-5.73731
11
7.04705
21
-5.74329
0
LINE
8
BLACK
6
CONTINUOUS
10
7.04705
20
-5.74329
11
7.04739
21
-5.74945
0
LINE
8
BLACK
6
CONTINUOUS
10
7.04739
20
-5.74945
11
7.04653
21
-5.75557
0
LINE
8
BLACK
6
CONTINUOUS
10
7.04653
20
-5.75557
11
7.04449
21
-5.7614
0
LINE
8
BLACK
6
CONTINUOUS
10
7.04449
20
-5.7614
11
7.04135
21
-5.76672
0
LINE
8
BLACK
6
CONTINUOUS
10
7.04135
20
-5.76672
11
7.03724
21
-5.77132
0
LINE
8
BLACK
6
CONTINUOUS
10
7.03724
20
-5.77132
11
7.0323
21
-5.77503
0
LINE
8
BLACK
6
CONTINUOUS
10
7.0323
20
-5.77503
11
7.02674
21
-5.77771
0
LINE
8
BLACK
6
CONTINUOUS
10
7.02674
20
-5.77771
11
7.02674
21
-5.77771
0
LINE
8
BLACK
6
CONTINUOUS
10
7.02674
20
-5.77771
11
6.37326
21
-6.01663
0
LINE
8
BLACK
6
CONTINUOUS
10
6.37326
20
-6.01663
11
6.37326
21
-6.01663
0
LINE
8
BLACK
6
CONTINUOUS
10
6.37326
20
-6.01663
11
6.37326
21
-6.01663
0
LINE
8
BLACK
6
CONTINUOUS
10
6.37326
20
-6.01663
11
6.37326
21
-6.01663
0
LINE
8
BLACK
6
CONTINUOUS
10
6.37326
20
-6.01663
11
6.36728
21
-6.01817
0
LINE
8
BLACK
6
CONTINUOUS
10
6.36728
20
-6.01817
11
6.36112
21
-6.01852
0
LINE
8
BLACK
6
CONTINUOUS
10
6.36112
20
-6.01852
11
6.355
21
-6.01765
0
LINE
8
BLACK
6
CONTINUOUS
10
6.355
20
-6.01765
11
6.34918
21
-6.01561
0
LINE
8
BLACK
6
CONTINUOUS
10
6.34918
20
-6.01561
11
6.34386
21
-6.01248
0
LINE
8
BLACK
6
CONTINUOUS
10
6.34386
20
-6.01248
11
6.33926
21
-6.00836
0
LINE
8
BLACK
6
CONTINUOUS
10
6.33926
20
-6.00836
11
6.33554
21
-6.00343
0
LINE
8
BLACK
6
CONTINUOUS
10
6.33554
20
-6.00343
11
6.33287
21
-5.99787
0
LINE
8
BLACK
6
CONTINUOUS
10
6.33287
20
-5.99787
11
6.08276
21
-5.31407
0
LINE
8
BLACK
6
CONTINUOUS
10
6.08276
20
-5.31407
11
6.08276
21
-5.31407
0
LINE
8
BLACK
6
CONTINUOUS
10
6.08276
20
-5.31407
11
6.08276
21
-5.31407
0
LINE
8
BLACK
6
CONTINUOUS
10
6.08276
20
-5.31407
11
6.08276
21
-5.31407
0
LINE
8
BLACK
6
CONTINUOUS
10
6.08276
20
-5.31407
11
6.08271
21
-5.31381
0
LINE
8
BLACK
6
CONTINUOUS
10
6.08271
20
-5.31381
11
6.08156
21
-5.31127
0
LINE
8
BLACK
6
CONTINUOUS
10
6.08156
20
-5.31127
11
6.07992
21
-5.3087
0
LINE
8
BLACK
6
CONTINUOUS
10
6.07992
20
-5.3087
11
6.07804
21
-5.30652
0
LINE
8
BLACK
6
CONTINUOUS
10
6.07804
20
-5.30652
11
6.07789
21
-5.30643
0
LINE
8
BLACK
6
CONTINUOUS
10
6.07789
20
-5.30643
11
6.07789
21
-5.30643
0
LINE
8
BLACK
6
CONTINUOUS
10
6.07789
20
-5.30643
11
6.07789
21
-5.30643
0
LINE
8
BLACK
6
CONTINUOUS
10
6.07789
20
-5.30643
11
5.55731
21
-4.78585
0
LINE
8
BLACK
6
CONTINUOUS
10
5.55731
20
-4.78585
11
5.55715
21
-4.78564
0
LINE
8
BLACK
6
CONTINUOUS
10
5.55715
20
-4.78564
11
5.55504
21
-4.78382
0
LINE
8
BLACK
6
CONTINUOUS
10
5.55504
20
-4.78382
11
5.55247
21
-4.78218
0
LINE
8
BLACK
6
CONTINUOUS
10
5.55247
20
-4.78218
11
5.54983
21
-4.78099
0
LINE
8
BLACK
6
CONTINUOUS
10
5.54983
20
-4.78099
11
5.54966
21
-4.78098
0
LINE
8
BLACK
6
CONTINUOUS
10
5.54966
20
-4.78098
11
5.54966
21
-4.78098
0
LINE
8
BLACK
6
CONTINUOUS
10
5.54966
20
-4.78098
11
5.54966
21
-4.78098
0
LINE
8
BLACK
6
CONTINUOUS
10
5.54966
20
-4.78098
11
4.86187
21
-4.53001
0
LINE
8
BLACK
6
CONTINUOUS
10
4.86187
20
-4.53001
11
4.86187
21
-4.53001
0
LINE
8
BLACK
6
CONTINUOUS
10
4.86187
20
-4.53001
11
4.86187
21
-4.53001
0
LINE
8
BLACK
6
CONTINUOUS
10
4.86187
20
-4.53001
11
4.86187
21
-4.53001
0
LINE
8
BLACK
6
CONTINUOUS
10
4.86187
20
-4.53001
11
4.86171
21
-4.52993
0
LINE
8
BLACK
6
CONTINUOUS
10
4.86171
20
-4.52993
11
4.85953
21
-4.52927
0
LINE
8
BLACK
6
CONTINUOUS
10
4.85953
20
-4.52927
11
4.85712
21
-4.52884
0
LINE
8
BLACK
6
CONTINUOUS
10
4.85712
20
-4.52884
11
4.85478
21
-4.52871
0
LINE
8
BLACK
6
CONTINUOUS
10
4.85478
20
-4.52871
11
4.85467
21
-4.52874
0
LINE
8
BLACK
6
CONTINUOUS
10
4.85467
20
-4.52874
11
4.85467
21
-4.52874
0
LINE
8
BLACK
6
CONTINUOUS
10
4.85467
20
-4.52874
11
4.85467
21
-4.52874
0
LINE
8
BLACK
6
CONTINUOUS
10
4.85467
20
-4.52874
11
4.13556
21
-4.52874
0
LINE
8
BLACK
6
CONTINUOUS
10
4.13556
20
-4.52874
11
4.13556
21
-4.52874
0
LINE
8
BLACK
6
CONTINUOUS
10
4.13556
20
-4.52874
11
4.13556
21
-4.52874
0
LINE
8
BLACK
6
CONTINUOUS
10
4.13556
20
-4.52874
11
4.12941
21
-4.52813
0
LINE
8
BLACK
6
CONTINUOUS
10
4.12941
20
-4.52813
11
4.1235
21
-4.52634
0
LINE
8
BLACK
6
CONTINUOUS
10
4.1235
20
-4.52634
11
4.11806
21
-4.52343
0
LINE
8
BLACK
6
CONTINUOUS
10
4.11806
20
-4.52343
11
4.11329
21
-4.51951
0
LINE
8
BLACK
6
CONTINUOUS
10
4.11329
20
-4.51951
11
4.10937
21
-4.51474
0
LINE
8
BLACK
6
CONTINUOUS
10
4.10937
20
-4.51474
11
4.10646
21
-4.50929
0
LINE
8
BLACK
6
CONTINUOUS
10
4.10646
20
-4.50929
11
4.10467
21
-4.50338
0
LINE
8
BLACK
6
CONTINUOUS
10
4.10467
20
-4.50338
11
4.10406
21
-4.49725
0
LINE
8
BLACK
6
CONTINUOUS
10
4.10406
20
-4.49725
11
4.10406
21
-4.49724
0
LINE
8
BLACK
6
CONTINUOUS
10
4.10406
20
-4.49724
11
4.10406
21
-4.17473
0
LINE
8
BLACK
6
CONTINUOUS
10
4.10406
20
-4.17473
11
4.10414
21
-4.17421
0
LINE
8
BLACK
6
CONTINUOUS
10
4.10414
20
-4.17421
11
4.10367
21
-4.17003
0
LINE
8
BLACK
6
CONTINUOUS
10
4.10367
20
-4.17003
11
4.1021
21
-4.16557
0
LINE
8
BLACK
6
CONTINUOUS
10
4.1021
20
-4.16557
11
4.09958
21
-4.16156
0
LINE
8
BLACK
6
CONTINUOUS
10
4.09958
20
-4.16156
11
4.09624
21
-4.15821
0
LINE
8
BLACK
6
CONTINUOUS
10
4.09624
20
-4.15821
11
4.09223
21
-4.1557
0
LINE
8
BLACK
6
CONTINUOUS
10
4.09223
20
-4.1557
11
4.08777
21
-4.15413
0
LINE
8
BLACK
6
CONTINUOUS
10
4.08777
20
-4.15413
11
4.08341
21
-4.15364
0
LINE
8
BLACK
6
CONTINUOUS
10
4.08341
20
-4.15364
11
4.08306
21
-4.15374
0
LINE
8
BLACK
6
CONTINUOUS
10
4.08306
20
-4.15374
11
4.08306
21
-4.15374
0
LINE
8
BLACK
6
CONTINUOUS
10
4.08306
20
-4.15374
11
2.63849
21
-4.15376
0
LINE
8
BLACK
6
CONTINUOUS
10
2.63849
20
-4.15376
11
2.63848
21
-4.15376
0
LINE
8
BLACK
6
CONTINUOUS
10
2.63848
20
-4.15376
11
2.63847
21
-4.15376
0
LINE
8
BLACK
6
CONTINUOUS
10
2.63847
20
-4.15376
11
2.63233
21
-4.15313
0
LINE
8
BLACK
6
CONTINUOUS
10
2.63233
20
-4.15313
11
2.62644
21
-4.15131
0
LINE
8
BLACK
6
CONTINUOUS
10
2.62644
20
-4.15131
11
2.62101
21
-4.14838
0
LINE
8
BLACK
6
CONTINUOUS
10
2.62101
20
-4.14838
11
2.61626
21
-4.14444
0
LINE
8
BLACK
6
CONTINUOUS
10
2.61626
20
-4.14444
11
2.61237
21
-4.13965
0
LINE
8
BLACK
6
CONTINUOUS
10
2.61237
20
-4.13965
11
2.60949
21
-4.1342
0
LINE
8
BLACK
6
CONTINUOUS
10
2.60949
20
-4.1342
11
2.60773
21
-4.12829
0
LINE
8
BLACK
6
CONTINUOUS
10
2.60773
20
-4.12829
11
2.60715
21
-4.12219
0
LINE
8
BLACK
6
CONTINUOUS
10
2.60715
20
-4.12219
11
2.60715
21
-4.12217
0
LINE
8
BLACK
6
CONTINUOUS
10
2.60715
20
-4.12217
11
2.60741
21
-3.79982
0
LINE
8
BLACK
6
CONTINUOUS
10
2.60741
20
-3.79982
11
2.60741
21
-3.79981
0
LINE
8
BLACK
6
CONTINUOUS
10
2.60741
20
-3.79981
11
2.60741
21
-3.79981
0
LINE
8
BLACK
6
CONTINUOUS
10
2.60741
20
-3.79981
11
2.60741
21
-3.79979
0
LINE
8
BLACK
6
CONTINUOUS
10
2.60741
20
-3.79979
11
2.60748
21
-3.7993
0
LINE
8
BLACK
6
CONTINUOUS
10
2.60748
20
-3.7993
11
2.60702
21
-3.7951
0
LINE
8
BLACK
6
CONTINUOUS
10
2.60702
20
-3.7951
11
2.60547
21
-3.79062
0
LINE
8
BLACK
6
CONTINUOUS
10
2.60547
20
-3.79062
11
2.60295
21
-3.78659
0
LINE
8
BLACK
6
CONTINUOUS
10
2.60295
20
-3.78659
11
2.59961
21
-3.78323
0
LINE
8
BLACK
6
CONTINUOUS
10
2.59961
20
-3.78323
11
2.5956
21
-3.78071
0
LINE
8
BLACK
6
CONTINUOUS
10
2.5956
20
-3.78071
11
2.59112
21
-3.77914
0
LINE
8
BLACK
6
CONTINUOUS
10
2.59112
20
-3.77914
11
2.58676
21
-3.77864
0
LINE
8
BLACK
6
CONTINUOUS
10
2.58676
20
-3.77864
11
2.58641
21
-3.77873
0
LINE
8
BLACK
6
CONTINUOUS
10
2.58641
20
-3.77873
11
2.58641
21
-3.77874
0
LINE
8
BLACK
6
CONTINUOUS
10
2.58641
20
-3.77874
11
1.88556
21
-3.77874
0
LINE
8
BLACK
6
CONTINUOUS
10
1.88556
20
-3.77874
11
1.88556
21
-3.77874
0
LINE
8
BLACK
6
CONTINUOUS
10
1.88556
20
-3.77874
11
1.88556
21
-3.77874
0
LINE
8
BLACK
6
CONTINUOUS
10
1.88556
20
-3.77874
11
1.87941
21
-3.77813
0
LINE
8
BLACK
6
CONTINUOUS
10
1.87941
20
-3.77813
11
1.8735
21
-3.77634
0
LINE
8
BLACK
6
CONTINUOUS
10
1.8735
20
-3.77634
11
1.86806
21
-3.77343
0
LINE
8
BLACK
6
CONTINUOUS
10
1.86806
20
-3.77343
11
1.86329
21
-3.76951
0
LINE
8
BLACK
6
CONTINUOUS
10
1.86329
20
-3.76951
11
1.85937
21
-3.76474
0
LINE
8
BLACK
6
CONTINUOUS
10
1.85937
20
-3.76474
11
1.85646
21
-3.75929
0
LINE
8
BLACK
6
CONTINUOUS
10
1.85646
20
-3.75929
11
1.85467
21
-3.75338
0
LINE
8
BLACK
6
CONTINUOUS
10
1.85467
20
-3.75338
11
1.85406
21
-3.74725
0
LINE
8
BLACK
6
CONTINUOUS
10
1.85406
20
-3.74725
11
1.85406
21
-3.74724
0
LINE
8
BLACK
6
CONTINUOUS
10
1.85406
20
-3.74724
11
1.85406
21
-3.23862
0
LINE
8
BLACK
6
CONTINUOUS
10
1.85406
20
-3.23862
11
1.85406
21
-3.23862
0
LINE
8
BLACK
6
CONTINUOUS
10
1.85406
20
-3.23862
11
1.85413
21
-3.23811
0
LINE
8
BLACK
6
CONTINUOUS
10
1.85413
20
-3.23811
11
1.85366
21
-3.23392
0
LINE
8
BLACK
6
CONTINUOUS
10
1.85366
20
-3.23392
11
1.8521
21
-3.22945
0
LINE
8
BLACK
6
CONTINUOUS
10
1.8521
20
-3.22945
11
1.84958
21
-3.22545
0
LINE
8
BLACK
6
CONTINUOUS
10
1.84958
20
-3.22545
11
1.84624
21
-3.2221
0
LINE
8
BLACK
6
CONTINUOUS
10
1.84624
20
-3.2221
11
1.84223
21
-3.21959
0
LINE
8
BLACK
6
CONTINUOUS
10
1.84223
20
-3.21959
11
1.83776
21
-3.21802
0
LINE
8
BLACK
6
CONTINUOUS
10
1.83776
20
-3.21802
11
1.83341
21
-3.21753
0
LINE
8
BLACK
6
CONTINUOUS
10
1.83341
20
-3.21753
11
1.83306
21
-3.21763
0
LINE
8
BLACK
6
CONTINUOUS
10
1.83306
20
-3.21763
11
1.83306
21
-3.21763
0
LINE
8
BLACK
6
CONTINUOUS
10
1.83306
20
-3.21763
11
1.13556
21
-3.21763
0
LINE
8
BLACK
6
CONTINUOUS
10
1.13556
20
-3.21763
11
1.13556
21
-3.21763
0
LINE
8
BLACK
6
CONTINUOUS
10
1.13556
20
-3.21763
11
1.13556
21
-3.21763
0
LINE
8
BLACK
6
CONTINUOUS
10
1.13556
20
-3.21763
11
1.12941
21
-3.21702
0
LINE
8
BLACK
6
CONTINUOUS
10
1.12941
20
-3.21702
11
1.1235
21
-3.21523
0
LINE
8
BLACK
6
CONTINUOUS
10
1.1235
20
-3.21523
11
1.11806
21
-3.21232
0
LINE
8
BLACK
6
CONTINUOUS
10
1.11806
20
-3.21232
11
1.11329
21
-3.2084
0
LINE
8
BLACK
6
CONTINUOUS
10
1.11329
20
-3.2084
11
1.10937
21
-3.20363
0
LINE
8
BLACK
6
CONTINUOUS
10
1.10937
20
-3.20363
11
1.10646
21
-3.19818
0
LINE
8
BLACK
6
CONTINUOUS
10
1.10646
20
-3.19818
11
1.10467
21
-3.19227
0
LINE
8
BLACK
6
CONTINUOUS
10
1.10467
20
-3.19227
11
1.10406
21
-3.18613
0
LINE
8
BLACK
6
CONTINUOUS
10
1.10406
20
-3.18613
11
1.10406
21
-3.18613
0
LINE
8
BLACK
6
CONTINUOUS
10
1.10406
20
-3.18613
11
1.10406
21
-3.18613
0
LINE
8
BLACK
6
CONTINUOUS
10
1.10406
20
-3.18613
11
1.10406
21
-3.18613
0
LINE
8
BLACK
6
CONTINUOUS
10
1.10406
20
-3.18613
11
1.10406
21
-1.73862
0
LINE
8
BLACK
6
CONTINUOUS
10
1.10406
20
-1.73862
11
1.10406
21
-1.73862
0
LINE
8
BLACK
6
CONTINUOUS
10
1.10406
20
-1.73862
11
1.10406
21
-1.73862
0
LINE
8
BLACK
6
CONTINUOUS
10
1.10406
20
-1.73862
11
1.10467
21
-1.73248
0
LINE
8
BLACK
6
CONTINUOUS
10
1.10467
20
-1.73248
11
1.10646
21
-1.72657
0
LINE
8
BLACK
6
CONTINUOUS
10
1.10646
20
-1.72657
11
1.10937
21
-1.72113
0
LINE
8
BLACK
6
CONTINUOUS
10
1.10937
20
-1.72113
11
1.11329
21
-1.71635
0
LINE
8
BLACK
6
CONTINUOUS
10
1.11329
20
-1.71635
11
1.11806
21
-1.71244
0
LINE
8
BLACK
6
CONTINUOUS
10
1.11806
20
-1.71244
11
1.1235
21
-1.70953
0
LINE
8
BLACK
6
CONTINUOUS
10
1.1235
20
-1.70953
11
1.12941
21
-1.70773
0
LINE
8
BLACK
6
CONTINUOUS
10
1.12941
20
-1.70773
11
1.13555
21
-1.70713
0
LINE
8
BLACK
6
CONTINUOUS
10
1.13555
20
-1.70713
11
1.13556
21
-1.70713
0
LINE
8
BLACK
6
CONTINUOUS
10
1.13556
20
-1.70713
11
1.13556
21
-1.70713
0
LINE
8
BLACK
6
CONTINUOUS
10
1.13556
20
-1.70713
11
1.13556
21
-1.70713
0
LINE
8
BLACK
6
CONTINUOUS
10
1.13556
20
-1.70713
11
1.83306
21
-1.70713
0
LINE
8
BLACK
6
CONTINUOUS
10
1.83306
20
-1.70713
11
1.83358
21
-1.7072
0
LINE
8
BLACK
6
CONTINUOUS
10
1.83358
20
-1.7072
11
1.83777
21
-1.70673
0
LINE
8
BLACK
6
CONTINUOUS
10
1.83777
20
-1.70673
11
1.84223
21
-1.70517
0
LINE
8
BLACK
6
CONTINUOUS
10
1.84223
20
-1.70517
11
1.84624
21
-1.70265
0
LINE
8
BLACK
6
CONTINUOUS
10
1.84624
20
-1.70265
11
1.84958
21
-1.6993
0
LINE
8
BLACK
6
CONTINUOUS
10
1.84958
20
-1.6993
11
1.8521
21
-1.6953
0
LINE
8
BLACK
6
CONTINUOUS
10
1.8521
20
-1.6953
11
1.85366
21
-1.69083
0
LINE
8
BLACK
6
CONTINUOUS
10
1.85366
20
-1.69083
11
1.85415
21
-1.68648
0
LINE
8
BLACK
6
CONTINUOUS
10
1.85415
20
-1.68648
11
1.85406
21
-1.68613
0
LINE
8
BLACK
6
CONTINUOUS
10
1.85406
20
-1.68613
11
1.85406
21
-1.54973
0
LINE
8
BLACK
6
CONTINUOUS
10
1.85406
20
-1.54973
11
1.85406
21
-1.54973
0
LINE
8
BLACK
6
CONTINUOUS
10
1.85406
20
-1.54973
11
1.85467
21
-1.54359
0
LINE
8
BLACK
6
CONTINUOUS
10
1.85467
20
-1.54359
11
1.85646
21
-1.53768
0
LINE
8
BLACK
6
CONTINUOUS
10
1.85646
20
-1.53768
11
1.85937
21
-1.53224
0
LINE
8
BLACK
6
CONTINUOUS
10
1.85937
20
-1.53224
11
1.86329
21
-1.52746
0
LINE
8
BLACK
6
CONTINUOUS
10
1.86329
20
-1.52746
11
1.86806
21
-1.52355
0
LINE
8
BLACK
6
CONTINUOUS
10
1.86806
20
-1.52355
11
1.8735
21
-1.52063
0
LINE
8
BLACK
6
CONTINUOUS
10
1.8735
20
-1.52063
11
1.87941
21
-1.51884
0
LINE
8
BLACK
6
CONTINUOUS
10
1.87941
20
-1.51884
11
1.88556
21
-1.51824
0
LINE
8
BLACK
6
CONTINUOUS
10
1.88556
20
-1.51824
11
1.88556
21
-1.51824
0
LINE
8
BLACK
6
CONTINUOUS
10
1.88556
20
-1.51824
11
2.58306
21
-1.51824
0
LINE
8
BLACK
6
CONTINUOUS
10
2.58306
20
-1.51824
11
2.58359
21
-1.51831
0
LINE
8
BLACK
6
CONTINUOUS
10
2.58359
20
-1.51831
11
2.58776
21
-1.51784
0
LINE
8
BLACK
6
CONTINUOUS
10
2.58776
20
-1.51784
11
2.59223
21
-1.51628
0
LINE
8
BLACK
6
CONTINUOUS
10
2.59223
20
-1.51628
11
2.59624
21
-1.51376
0
LINE
8
BLACK
6
CONTINUOUS
10
2.59624
20
-1.51376
11
2.59958
21
-1.51042
0
LINE
8
BLACK
6
CONTINUOUS
10
2.59958
20
-1.51042
11
2.6021
21
-1.50641
0
LINE
8
BLACK
6
CONTINUOUS
10
2.6021
20
-1.50641
11
2.60366
21
-1.50194
0
LINE
8
BLACK
6
CONTINUOUS
10
2.60366
20
-1.50194
11
2.60415
21
-1.49759
0
LINE
8
BLACK
6
CONTINUOUS
10
2.60415
20
-1.49759
11
2.60406
21
-1.49724
0
LINE
8
BLACK
6
CONTINUOUS
10
2.60406
20
-1.49724
11
2.60406
21
-1.49724
0
LINE
8
BLACK
6
CONTINUOUS
10
2.60406
20
-1.49724
11
2.60406
21
-1.27057
0
LINE
8
BLACK
6
CONTINUOUS
10
2.60406
20
-1.27057
11
2.60406
21
-1.27057
0
LINE
8
BLACK
6
CONTINUOUS
10
2.60406
20
-1.27057
11
2.60466
21
-1.26442
0
LINE
8
BLACK
6
CONTINUOUS
10
2.60466
20
-1.26442
11
2.60646
21
-1.25851
0
LINE
8
BLACK
6
CONTINUOUS
10
2.60646
20
-1.25851
11
2.60937
21
-1.25307
0
LINE
8
BLACK
6
CONTINUOUS
10
2.60937
20
-1.25307
11
2.61328
21
-1.2483
0
LINE
8
BLACK
6
CONTINUOUS
10
2.61328
20
-1.2483
11
2.61806
21
-1.24438
0
LINE
8
BLACK
6
CONTINUOUS
10
2.61806
20
-1.24438
11
2.6235
21
-1.24147
0
LINE
8
BLACK
6
CONTINUOUS
10
2.6235
20
-1.24147
11
2.62941
21
-1.23968
0
LINE
8
BLACK
6
CONTINUOUS
10
2.62941
20
-1.23968
11
2.63555
21
-1.23907
0
LINE
8
BLACK
6
CONTINUOUS
10
2.63555
20
-1.23907
11
2.63556
21
-1.23907
0
LINE
8
BLACK
6
CONTINUOUS
10
2.63556
20
-1.23907
11
3.33306
21
-1.23907
0
LINE
8
BLACK
6
CONTINUOUS
10
3.33306
20
-1.23907
11
3.33358
21
-1.23915
0
LINE
8
BLACK
6
CONTINUOUS
10
3.33358
20
-1.23915
11
3.33777
21
-1.23868
0
LINE
8
BLACK
6
CONTINUOUS
10
3.33777
20
-1.23868
11
3.34223
21
-1.23711
0
LINE
8
BLACK
6
CONTINUOUS
10
3.34223
20
-1.23711
11
3.34624
21
-1.2346
0
LINE
8
BLACK
6
CONTINUOUS
10
3.34624
20
-1.2346
11
3.34958
21
-1.23125
0
LINE
8
BLACK
6
CONTINUOUS
10
3.34958
20
-1.23125
11
3.3521
21
-1.22724
0
LINE
8
BLACK
6
CONTINUOUS
10
3.3521
20
-1.22724
11
3.35366
21
-1.22278
0
LINE
8
BLACK
6
CONTINUOUS
10
3.35366
20
-1.22278
11
3.35415
21
-1.21842
0
LINE
8
BLACK
6
CONTINUOUS
10
3.35415
20
-1.21842
11
3.35406
21
-1.21807
0
LINE
8
BLACK
6
CONTINUOUS
10
3.35406
20
-1.21807
11
3.35406
21
-1.21807
0
LINE
8
BLACK
6
CONTINUOUS
10
3.35406
20
-1.21807
11
3.35406
21
-1.21807
0
LINE
8
BLACK
6
CONTINUOUS
10
3.35406
20
-1.21807
11
3.35406
21
-1.17473
0
LINE
8
BLACK
6
CONTINUOUS
10
3.35406
20
-1.17473
11
3.35406
21
-1.17473
0
LINE
8
BLACK
6
CONTINUOUS
10
3.35406
20
-1.17473
11
3.35467
21
-1.16859
0
LINE
8
BLACK
6
CONTINUOUS
10
3.35467
20
-1.16859
11
3.35646
21
-1.16268
0
LINE
8
BLACK
6
CONTINUOUS
10
3.35646
20
-1.16268
11
3.35937
21
-1.15724
0
LINE
8
BLACK
6
CONTINUOUS
10
3.35937
20
-1.15724
11
3.36329
21
-1.15246
0
LINE
8
BLACK
6
CONTINUOUS
10
3.36329
20
-1.15246
11
3.36806
21
-1.14855
0
LINE
8
BLACK
6
CONTINUOUS
10
3.36806
20
-1.14855
11
3.3735
21
-1.14563
0
LINE
8
BLACK
6
CONTINUOUS
10
3.3735
20
-1.14563
11
3.37941
21
-1.14384
0
LINE
8
BLACK
6
CONTINUOUS
10
3.37941
20
-1.14384
11
3.38556
21
-1.14324
0
LINE
8
BLACK
6
CONTINUOUS
10
3.38556
20
-1.14324
11
3.38556
21
-1.14324
0
LINE
8
BLACK
6
CONTINUOUS
10
3.38556
20
-1.14324
11
4.83306
21
-1.14324
0
LINE
8
BLACK
6
CONTINUOUS
10
4.83306
20
-1.14324
11
4.83921
21
-1.14384
0
LINE
8
BLACK
6
CONTINUOUS
10
3.38556
20
-1.15374
11
3.38556
21
-1.15374
0
LINE
8
BLACK
6
CONTINUOUS
10
3.38556
20
-1.15374
11
3.38556
21
-1.15374
0
LINE
8
BLACK
6
CONTINUOUS
10
3.38556
20
-1.15374
11
3.38504
21
-1.15366
0
LINE
8
BLACK
6
CONTINUOUS
10
3.38504
20
-1.15366
11
3.38085
21
-1.15413
0
LINE
8
BLACK
6
CONTINUOUS
10
3.38085
20
-1.15413
11
3.37639
21
-1.1557
0
LINE
8
BLACK
6
CONTINUOUS
10
3.37639
20
-1.1557
11
3.37238
21
-1.15821
0
LINE
8
BLACK
6
CONTINUOUS
10
3.37238
20
-1.15821
11
3.36904
21
-1.16156
0
LINE
8
BLACK
6
CONTINUOUS
10
3.36904
20
-1.16156
11
3.36652
21
-1.16557
0
LINE
8
BLACK
6
CONTINUOUS
10
3.36652
20
-1.16557
11
3.36496
21
-1.17003
0
LINE
8
BLACK
6
CONTINUOUS
10
3.36496
20
-1.17003
11
3.36447
21
-1.17438
0
LINE
8
BLACK
6
CONTINUOUS
10
3.36447
20
-1.17438
11
3.36456
21
-1.17473
0
LINE
8
BLACK
6
CONTINUOUS
10
3.36456
20
-1.17473
11
3.36456
21
-1.17473
0
LINE
8
BLACK
6
CONTINUOUS
10
3.36456
20
-1.17473
11
3.36456
21
-1.17473
0
LINE
8
BLACK
6
CONTINUOUS
10
3.36456
20
-1.17473
11
3.36456
21
-1.21807
0
LINE
8
BLACK
6
CONTINUOUS
10
3.36456
20
-1.21807
11
3.36395
21
-1.22422
0
LINE
8
BLACK
6
CONTINUOUS
10
3.36395
20
-1.22422
11
3.36216
21
-1.23013
0
LINE
8
BLACK
6
CONTINUOUS
10
3.36216
20
-1.23013
11
3.35925
21
-1.23557
0
LINE
8
BLACK
6
CONTINUOUS
10
3.35925
20
-1.23557
11
3.35533
21
-1.24035
0
LINE
8
BLACK
6
CONTINUOUS
10
3.35533
20
-1.24035
11
3.35056
21
-1.24426
0
LINE
8
BLACK
6
CONTINUOUS
10
3.35056
20
-1.24426
11
3.34512
21
-1.24717
0
LINE
8
BLACK
6
CONTINUOUS
10
3.34512
20
-1.24717
11
3.33921
21
-1.24897
0
LINE
8
BLACK
6
CONTINUOUS
10
3.33921
20
-1.24897
11
3.33306
21
-1.24957
0
LINE
8
BLACK
6
CONTINUOUS
10
3.33306
20
-1.24957
11
3.33306
21
-1.24957
0
LINE
8
BLACK
6
CONTINUOUS
10
3.33306
20
-1.24957
11
2.63556
21
-1.24957
0
LINE
8
BLACK
6
CONTINUOUS
10
2.63556
20
-1.24957
11
2.63556
21
-1.24957
0
LINE
8
BLACK
6
CONTINUOUS
10
2.63556
20
-1.24957
11
2.63556
21
-1.24957
0
LINE
8
BLACK
6
CONTINUOUS
10
2.63556
20
-1.24957
11
2.63555
21
-1.24957
0
LINE
8
BLACK
6
CONTINUOUS
10
2.63555
20
-1.24957
11
2.63504
21
-1.2495
0
LINE
8
BLACK
6
CONTINUOUS
10
2.63504
20
-1.2495
11
2.63085
21
-1.24997
0
LINE
8
BLACK
6
CONTINUOUS
10
2.63085
20
-1.24997
11
2.62639
21
-1.25153
0
LINE
8
BLACK
6
CONTINUOUS
10
2.62639
20
-1.25153
11
2.62238
21
-1.25405
0
LINE
8
BLACK
6
CONTINUOUS
10
2.62238
20
-1.25405
11
2.61904
21
-1.25739
0
LINE
8
BLACK
6
CONTINUOUS
10
2.61904
20
-1.25739
11
2.61652
21
-1.2614
0
LINE
8
BLACK
6
CONTINUOUS
10
2.61652
20
-1.2614
11
2.61496
21
-1.26586
0
LINE
8
BLACK
6
CONTINUOUS
10
2.61496
20
-1.26586
11
2.61447
21
-1.27022
0
LINE
8
BLACK
6
CONTINUOUS
10
2.61447
20
-1.27022
11
2.61456
21
-1.27057
0
LINE
8
BLACK
6
CONTINUOUS
10
2.61456
20
-1.27057
11
2.61456
21
-1.27057
0
LINE
8
BLACK
6
CONTINUOUS
10
2.61456
20
-1.27057
11
2.61456
21
-1.27057
0
LINE
8
BLACK
6
CONTINUOUS
10
2.61456
20
-1.27057
11
2.61456
21
-1.49724
0
LINE
8
BLACK
6
CONTINUOUS
10
2.61456
20
-1.49724
11
2.61395
21
-1.50339
0
LINE
8
BLACK
6
CONTINUOUS
10
2.61395
20
-1.50339
11
2.61216
21
-1.50929
0
LINE
8
BLACK
6
CONTINUOUS
10
2.61216
20
-1.50929
11
2.60925
21
-1.51474
0
LINE
8
BLACK
6
CONTINUOUS
10
2.60925
20
-1.51474
11
2.60533
21
-1.51951
0
LINE
8
BLACK
6
CONTINUOUS
10
2.60533
20
-1.51951
11
2.60056
21
-1.52343
0
LINE
8
BLACK
6
CONTINUOUS
10
2.60056
20
-1.52343
11
2.59512
21
-1.52634
0
LINE
8
BLACK
6
CONTINUOUS
10
2.59512
20
-1.52634
11
2.58921
21
-1.52813
0
LINE
8
BLACK
6
CONTINUOUS
10
2.58921
20
-1.52813
11
2.58306
21
-1.52874
0
LINE
8
BLACK
6
CONTINUOUS
10
2.58306
20
-1.52874
11
2.58306
21
-1.52874
0
LINE
8
BLACK
6
CONTINUOUS
10
2.58306
20
-1.52874
11
2.58306
21
-1.52874
0
LINE
8
BLACK
6
CONTINUOUS
10
2.58306
20
-1.52874
11
2.58306
21
-1.52874
0
LINE
8
BLACK
6
CONTINUOUS
10
2.58306
20
-1.52874
11
1.88556
21
-1.52874
0
LINE
8
BLACK
6
CONTINUOUS
10
1.88556
20
-1.52874
11
1.88556
21
-1.52874
0
LINE
8
BLACK
6
CONTINUOUS
10
1.88556
20
-1.52874
11
1.88556
21
-1.52874
0
LINE
8
BLACK
6
CONTINUOUS
10
1.88556
20
-1.52874
11
1.88556
21
-1.52874
0
LINE
8
BLACK
6
CONTINUOUS
10
1.88556
20
-1.52874
11
1.88504
21
-1.52866
0
LINE
8
BLACK
6
CONTINUOUS
10
1.88504
20
-1.52866
11
1.88085
21
-1.52913
0
LINE
8
BLACK
6
CONTINUOUS
10
1.88085
20
-1.52913
11
1.87639
21
-1.5307
0
LINE
8
BLACK
6
CONTINUOUS
10
1.87639
20
-1.5307
11
1.87238
21
-1.53321
0
LINE
8
BLACK
6
CONTINUOUS
10
1.87238
20
-1.53321
11
1.86904
21
-1.53656
0
LINE
8
BLACK
6
CONTINUOUS
10
1.86904
20
-1.53656
11
1.86652
21
-1.54057
0
LINE
8
BLACK
6
CONTINUOUS
10
1.86652
20
-1.54057
11
1.86496
21
-1.54503
0
LINE
8
BLACK
6
CONTINUOUS
10
1.86496
20
-1.54503
11
1.86447
21
-1.54938
0
LINE
8
BLACK
6
CONTINUOUS
10
1.86447
20
-1.54938
11
1.86456
21
-1.54973
0
LINE
8
BLACK
6
CONTINUOUS
10
1.86456
20
-1.54973
11
1.86456
21
-1.54973
0
LINE
8
BLACK
6
CONTINUOUS
10
1.86456
20
-1.54973
11
1.86456
21
-1.54973
0
LINE
8
BLACK
6
CONTINUOUS
10
1.86456
20
-1.54973
11
1.86456
21
-1.68613
0
LINE
8
BLACK
6
CONTINUOUS
10
1.86456
20
-1.68613
11
1.86456
21
-1.68613
0
LINE
8
BLACK
6
CONTINUOUS
10
1.86456
20
-1.68613
11
1.86395
21
-1.69227
0
LINE
8
BLACK
6
CONTINUOUS
10
1.86395
20
-1.69227
11
1.86216
21
-1.69818
0
LINE
8
BLACK
6
CONTINUOUS
10
1.86216
20
-1.69818
11
1.85925
21
-1.70363
0
LINE
8
BLACK
6
CONTINUOUS
10
1.85925
20
-1.70363
11
1.85533
21
-1.7084
0
LINE
8
BLACK
6
CONTINUOUS
10
1.85533
20
-1.7084
11
1.85056
21
-1.71232
0
LINE
8
BLACK
6
CONTINUOUS
10
1.85056
20
-1.71232
11
1.84512
21
-1.71523
0
LINE
8
BLACK
6
CONTINUOUS
10
1.84512
20
-1.71523
11
1.83921
21
-1.71702
0
LINE
8
BLACK
6
CONTINUOUS
10
1.83921
20
-1.71702
11
1.83306
21
-1.71763
0
LINE
8
BLACK
6
CONTINUOUS
10
1.83306
20
-1.71763
11
1.83306
21
-1.71763
0
LINE
8
BLACK
6
CONTINUOUS
10
1.83306
20
-1.71763
11
1.13556
21
-1.71763
0
LINE
8
BLACK
6
CONTINUOUS
10
1.13556
20
-1.71763
11
1.13504
21
-1.71755
0
LINE
8
BLACK
6
CONTINUOUS
10
1.13504
20
-1.71755
11
1.13086
21
-1.71802
0
LINE
8
BLACK
6
CONTINUOUS
10
1.13086
20
-1.71802
11
1.12639
21
-1.71959
0
LINE
8
BLACK
6
CONTINUOUS
10
1.12639
20
-1.71959
11
1.12238
21
-1.7221
0
LINE
8
BLACK
6
CONTINUOUS
10
1.12238
20
-1.7221
11
1.11904
21
-1.72545
0
LINE
8
BLACK
6
CONTINUOUS
10
1.11904
20
-1.72545
11
1.11652
21
-1.72946
0
LINE
8
BLACK
6
CONTINUOUS
10
1.11652
20
-1.72946
11
1.11496
21
-1.73392
0
LINE
8
BLACK
6
CONTINUOUS
10
1.11496
20
-1.73392
11
1.11447
21
-1.73827
0
LINE
8
BLACK
6
CONTINUOUS
10
1.11447
20
-1.73827
11
1.11456
21
-1.73862
0
LINE
8
BLACK
6
CONTINUOUS
10
1.11456
20
-1.73862
11
1.11456
21
-1.73862
0
LINE
8
BLACK
6
CONTINUOUS
10
1.11456
20
-1.73862
11
1.11456
21
-3.18613
0
LINE
8
BLACK
6
CONTINUOUS
10
1.11456
20
-3.18613
11
1.11448
21
-3.18665
0
LINE
8
BLACK
6
CONTINUOUS
10
1.11448
20
-3.18665
11
1.11496
21
-3.19083
0
LINE
8
BLACK
6
CONTINUOUS
10
1.11496
20
-3.19083
11
1.11652
21
-3.1953
0
LINE
8
BLACK
6
CONTINUOUS
10
1.11652
20
-3.1953
11
1.11904
21
-3.1993
0
LINE
8
BLACK
6
CONTINUOUS
10
1.11904
20
-3.1993
11
1.12238
21
-3.20265
0
LINE
8
BLACK
6
CONTINUOUS
10
1.12238
20
-3.20265
11
1.12639
21
-3.20517
0
LINE
8
BLACK
6
CONTINUOUS
10
1.12639
20
-3.20517
11
1.13086
21
-3.20673
0
LINE
8
BLACK
6
CONTINUOUS
10
1.13086
20
-3.20673
11
1.13521
21
-3.20722
0
LINE
8
BLACK
6
CONTINUOUS
10
1.13521
20
-3.20722
11
1.13555
21
-3.20713
0
LINE
8
BLACK
6
CONTINUOUS
10
1.13555
20
-3.20713
11
1.13556
21
-3.20713
0
LINE
8
BLACK
6
CONTINUOUS
10
1.13556
20
-3.20713
11
1.83306
21
-3.20713
0
LINE
8
BLACK
6
CONTINUOUS
10
1.83306
20
-3.20713
11
1.83921
21
-3.20773
0
LINE
8
BLACK
6
CONTINUOUS
10
1.83921
20
-3.20773
11
1.84512
21
-3.20952
0
LINE
8
BLACK
6
CONTINUOUS
10
1.84512
20
-3.20952
11
1.85056
21
-3.21244
0
LINE
8
BLACK
6
CONTINUOUS
10
1.85056
20
-3.21244
11
1.85533
21
-3.21635
0
LINE
8
BLACK
6
CONTINUOUS
10
1.85533
20
-3.21635
11
1.85925
21
-3.22112
0
LINE
8
BLACK
6
CONTINUOUS
10
1.85925
20
-3.22112
11
1.86216
21
-3.22657
0
LINE
8
BLACK
6
CONTINUOUS
10
1.86216
20
-3.22657
11
1.86395
21
-3.23248
0
LINE
8
BLACK
6
CONTINUOUS
10
1.86395
20
-3.23248
11
1.86456
21
-3.23862
0
LINE
8
BLACK
6
CONTINUOUS
10
1.86456
20
-3.23862
11
1.86456
21
-3.23862
0
LINE
8
BLACK
6
CONTINUOUS
10
1.86456
20
-3.23862
11
1.86456
21
-3.23862
0
LINE
8
BLACK
6
CONTINUOUS
10
1.86456
20
-3.23862
11
1.86456
21
-3.74724
0
LINE
8
BLACK
6
CONTINUOUS
10
1.86456
20
-3.74724
11
1.86449
21
-3.74775
0
LINE
8
BLACK
6
CONTINUOUS
10
1.86449
20
-3.74775
11
1.86496
21
-3.75194
0
LINE
8
BLACK
6
CONTINUOUS
10
1.86496
20
-3.75194
11
1.86652
21
-3.75641
0
LINE
8
BLACK
6
CONTINUOUS
10
1.86652
20
-3.75641
11
1.86904
21
-3.76041
0
LINE
8
BLACK
6
CONTINUOUS
10
1.86904
20
-3.76041
11
1.87238
21
-3.76376
0
LINE
8
BLACK
6
CONTINUOUS
10
1.87238
20
-3.76376
11
1.87639
21
-3.76628
0
LINE
8
BLACK
6
CONTINUOUS
10
1.87639
20
-3.76628
11
1.88086
21
-3.76784
0
LINE
8
BLACK
6
CONTINUOUS
10
1.88086
20
-3.76784
11
1.88521
21
-3.76833
0
LINE
8
BLACK
6
CONTINUOUS
10
1.88521
20
-3.76833
11
1.88555
21
-3.76824
0
LINE
8
BLACK
6
CONTINUOUS
10
1.88555
20
-3.76824
11
1.88556
21
-3.76824
0
LINE
8
BLACK
6
CONTINUOUS
10
1.88556
20
-3.76824
11
2.58641
21
-3.76824
0
LINE
8
BLACK
6
CONTINUOUS
10
2.58641
20
-3.76824
11
2.58641
21
-3.76824
0
LINE
8
BLACK
6
CONTINUOUS
10
2.58641
20
-3.76824
11
2.58641
21
-3.76824
0
LINE
8
BLACK
6
CONTINUOUS
10
2.58641
20
-3.76824
11
2.59257
21
-3.76885
0
LINE
8
BLACK
6
CONTINUOUS
10
2.59257
20
-3.76885
11
2.59849
21
-3.77065
0
LINE
8
BLACK
6
CONTINUOUS
10
2.59849
20
-3.77065
11
2.60394
21
-3.77357
0
LINE
8
BLACK
6
CONTINUOUS
10
2.60394
20
-3.77357
11
2.60872
21
-3.7775
0
LINE
8
BLACK
6
CONTINUOUS
10
2.60872
20
-3.7775
11
2.61263
21
-3.78229
0
LINE
8
BLACK
6
CONTINUOUS
10
2.61263
20
-3.78229
11
2.61554
21
-3.78776
0
LINE
8
BLACK
6
CONTINUOUS
10
2.61554
20
-3.78776
11
2.61732
21
-3.79369
0
LINE
8
BLACK
6
CONTINUOUS
10
2.61732
20
-3.79369
11
2.6179
21
-3.79982
0
LINE
8
BLACK
6
CONTINUOUS
10
2.6179
20
-3.79982
11
2.6179
21
-3.79983
0
LINE
8
BLACK
6
CONTINUOUS
10
2.6179
20
-3.79983
11
2.61765
21
-4.12218
0
LINE
8
BLACK
6
CONTINUOUS
10
2.61765
20
-4.12218
11
2.61765
21
-4.12219
0
LINE
8
BLACK
6
CONTINUOUS
10
2.61765
20
-4.12219
11
2.61765
21
-4.1222
0
LINE
8
BLACK
6
CONTINUOUS
10
2.61765
20
-4.1222
11
2.61764
21
-4.12222
0
LINE
8
BLACK
6
CONTINUOUS
10
2.61764
20
-4.12222
11
2.61757
21
-4.1227
0
LINE
8
BLACK
6
CONTINUOUS
10
2.61757
20
-4.1227
11
2.61802
21
-4.12689
0
LINE
8
BLACK
6
CONTINUOUS
10
2.61802
20
-4.12689
11
2.61956
21
-4.13136
0
LINE
8
BLACK
6
CONTINUOUS
10
2.61956
20
-4.13136
11
2.62206
21
-4.13537
0
LINE
8
BLACK
6
CONTINUOUS
10
2.62206
20
-4.13537
11
2.62538
21
-4.13873
0
LINE
8
BLACK
6
CONTINUOUS
10
2.62538
20
-4.13873
11
2.62937
21
-4.14126
0
LINE
8
BLACK
6
CONTINUOUS
10
2.62937
20
-4.14126
11
2.63383
21
-4.14285
0
LINE
8
BLACK
6
CONTINUOUS
10
2.63383
20
-4.14285
11
2.63817
21
-4.14336
0
LINE
8
BLACK
6
CONTINUOUS
10
2.63817
20
-4.14336
11
2.63828
21
-4.14333
0
LINE
8
BLACK
6
CONTINUOUS
10
2.63828
20
-4.14333
11
2.63849
21
-4.14326
0
LINE
8
BLACK
6
CONTINUOUS
10
2.63849
20
-4.14326
11
4.08306
21
-4.14324
0
LINE
8
BLACK
6
CONTINUOUS
10
4.08306
20
-4.14324
11
4.08306
21
-4.14324
0
LINE
8
BLACK
6
CONTINUOUS
10
4.08306
20
-4.14324
11
4.08921
21
-4.14384
0
LINE
8
BLACK
6
CONTINUOUS
10
4.08921
20
-4.14384
11
4.09512
21
-4.14564
0
LINE
8
BLACK
6
CONTINUOUS
10
4.09512
20
-4.14564
11
4.10056
21
-4.14855
0
LINE
8
BLACK
6
CONTINUOUS
10
4.10056
20
-4.14855
11
4.10533
21
-4.15246
0
LINE
8
BLACK
6
CONTINUOUS
10
4.10533
20
-4.15246
11
4.10925
21
-4.15724
0
LINE
8
BLACK
6
CONTINUOUS
10
4.10925
20
-4.15724
11
4.11216
21
-4.16268
0
LINE
8
BLACK
6
CONTINUOUS
10
4.11216
20
-4.16268
11
4.11396
21
-4.16859
0
LINE
8
BLACK
6
CONTINUOUS
10
4.11396
20
-4.16859
11
4.11456
21
-4.17473
0
LINE
8
BLACK
6
CONTINUOUS
10
4.11456
20
-4.17473
11
4.11456
21
-4.17473
0
LINE
8
BLACK
6
CONTINUOUS
10
4.11456
20
-4.17473
11
4.11456
21
-4.17473
0
LINE
8
BLACK
6
CONTINUOUS
10
4.11456
20
-4.17473
11
4.11456
21
-4.17473
0
LINE
8
BLACK
6
CONTINUOUS
10
4.11456
20
-4.17473
11
4.11456
21
-4.49724
0
LINE
8
BLACK
6
CONTINUOUS
10
4.11456
20
-4.49724
11
4.11449
21
-4.49775
0
LINE
8
BLACK
6
CONTINUOUS
10
4.11449
20
-4.49775
11
4.11496
21
-4.50194
0
LINE
8
BLACK
6
CONTINUOUS
10
4.11496
20
-4.50194
11
4.11652
21
-4.50641
0
LINE
8
BLACK
6
CONTINUOUS
10
4.11652
20
-4.50641
11
4.11904
21
-4.51041
0
LINE
8
BLACK
6
CONTINUOUS
10
4.11904
20
-4.51041
11
4.12238
21
-4.51376
0
LINE
8
BLACK
6
CONTINUOUS
10
4.12238
20
-4.51376
11
4.12639
21
-4.51628
0
LINE
8
BLACK
6
CONTINUOUS
10
4.12639
20
-4.51628
11
4.13086
21
-4.51784
0
LINE
8
BLACK
6
CONTINUOUS
10
4.13086
20
-4.51784
11
4.13521
21
-4.51833
0
LINE
8
BLACK
6
CONTINUOUS
10
4.13521
20
-4.51833
11
4.13555
21
-4.51824
0
LINE
8
BLACK
6
CONTINUOUS
10
4.13555
20
-4.51824
11
4.13556
21
-4.51824
0
LINE
8
BLACK
6
CONTINUOUS
10
4.13556
20
-4.51824
11
4.85467
21
-4.51824
0
LINE
8
BLACK
6
CONTINUOUS
10
4.85467
20
-4.51824
11
4.85467
21
-4.51824
0
LINE
8
BLACK
6
CONTINUOUS
10
4.85467
20
-4.51824
11
4.85834
21
-4.51845
0
LINE
8
BLACK
6
CONTINUOUS
10
4.85834
20
-4.51845
11
4.86195
21
-4.51909
0
LINE
8
BLACK
6
CONTINUOUS
10
4.86195
20
-4.51909
11
4.86546
21
-4.52015
0
LINE
8
BLACK
6
CONTINUOUS
10
4.86546
20
-4.52015
11
4.86547
21
-4.52015
0
LINE
8
BLACK
6
CONTINUOUS
10
4.86547
20
-4.52015
11
5.55326
21
-4.77112
0
LINE
8
BLACK
6
CONTINUOUS
10
5.55326
20
-4.77112
11
5.55326
21
-4.77112
0
LINE
8
BLACK
6
CONTINUOUS
10
5.55326
20
-4.77112
11
5.55743
21
-4.77299
0
LINE
8
BLACK
6
CONTINUOUS
10
5.55743
20
-4.77299
11
5.56128
21
-4.77544
0
LINE
8
BLACK
6
CONTINUOUS
10
5.56128
20
-4.77544
11
5.56473
21
-4.77843
0
LINE
8
BLACK
6
CONTINUOUS
10
5.56473
20
-4.77843
11
5.56473
21
-4.77843
0
LINE
8
BLACK
6
CONTINUOUS
10
5.56473
20
-4.77843
11
5.56473
21
-4.77843
0
LINE
8
BLACK
6
CONTINUOUS
10
5.56473
20
-4.77843
11
5.56473
21
-4.77843
0
LINE
8
BLACK
6
CONTINUOUS
10
5.56473
20
-4.77843
11
6.08531
21
-5.29901
0
LINE
8
BLACK
6
CONTINUOUS
10
6.08531
20
-5.29901
11
6.08531
21
-5.29901
0
LINE
8
BLACK
6
CONTINUOUS
10
6.08531
20
-5.29901
11
6.08829
21
-5.30246
0
LINE
8
BLACK
6
CONTINUOUS
10
6.08829
20
-5.30246
11
6.09075
21
-5.3063
0
LINE
8
BLACK
6
CONTINUOUS
10
6.09075
20
-5.3063
11
6.09262
21
-5.31046
0
LINE
8
BLACK
6
CONTINUOUS
10
6.09262
20
-5.31046
11
6.09262
21
-5.31046
0
LINE
8
BLACK
6
CONTINUOUS
10
6.09262
20
-5.31046
11
6.34273
21
-5.99426
0
LINE
8
BLACK
6
CONTINUOUS
10
6.34273
20
-5.99426
11
6.34283
21
-5.99477
0
LINE
8
BLACK
6
CONTINUOUS
10
6.34283
20
-5.99477
11
6.34471
21
-5.99854
0
LINE
8
BLACK
6
CONTINUOUS
10
6.34471
20
-5.99854
11
6.34771
21
-6.0022
0
LINE
8
BLACK
6
CONTINUOUS
10
6.34771
20
-6.0022
11
6.35145
21
-6.00509
0
LINE
8
BLACK
6
CONTINUOUS
10
6.35145
20
-6.00509
11
6.35575
21
-6.00709
0
LINE
8
BLACK
6
CONTINUOUS
10
6.35575
20
-6.00709
11
6.36037
21
-6.00808
0
LINE
8
BLACK
6
CONTINUOUS
10
6.36037
20
-6.00808
11
6.3651
21
-6.00801
0
LINE
8
BLACK
6
CONTINUOUS
10
6.3651
20
-6.00801
11
6.36936
21
-6.00698
0
LINE
8
BLACK
6
CONTINUOUS
10
6.36936
20
-6.00698
11
6.36966
21
-6.00677
0
LINE
8
BLACK
6
CONTINUOUS
10
6.36966
20
-6.00677
11
6.36966
21
-6.00677
0
LINE
8
BLACK
6
CONTINUOUS
10
6.36966
20
-6.00677
11
7.02313
21
-5.76785
0
LINE
8
BLACK
6
CONTINUOUS
10
7.02313
20
-5.76785
11
7.02313
21
-5.76785
0
LINE
8
BLACK
6
CONTINUOUS
10
7.02313
20
-5.76785
11
7.02314
21
-5.76785
0
LINE
8
BLACK
6
CONTINUOUS
10
7.02314
20
-5.76785
11
7.02314
21
-5.76785
0
LINE
8
BLACK
6
CONTINUOUS
10
7.02314
20
-5.76785
11
7.02365
21
-5.76774
0
LINE
8
BLACK
6
CONTINUOUS
10
7.02365
20
-5.76774
11
7.02742
21
-5.76586
0
LINE
8
BLACK
6
CONTINUOUS
10
7.02742
20
-5.76586
11
7.03107
21
-5.76286
0
LINE
8
BLACK
6
CONTINUOUS
10
7.03107
20
-5.76286
11
7.03397
21
-5.75912
0
LINE
8
BLACK
6
CONTINUOUS
10
7.03397
20
-5.75912
11
7.03597
21
-5.75483
0
LINE
8
BLACK
6
CONTINUOUS
10
7.03597
20
-5.75483
11
7.03695
21
-5.7502
0
LINE
8
BLACK
6
CONTINUOUS
10
7.03695
20
-5.7502
11
7.03689
21
-5.74547
0
LINE
8
BLACK
6
CONTINUOUS
10
7.03689
20
-5.74547
11
7.03585
21
-5.74121
0
LINE
8
BLACK
6
CONTINUOUS
10
7.03585
20
-5.74121
11
7.03565
21
-5.74092
0
LINE
8
BLACK
6
CONTINUOUS
10
7.03565
20
-5.74092
11
7.03565
21
-5.74092
0
LINE
8
BLACK
6
CONTINUOUS
10
7.03565
20
-5.74092
11
7.03564
21
-5.74092
0
LINE
8
BLACK
6
CONTINUOUS
10
7.03564
20
-5.74092
11
6.78862
21
-5.06526
0
LINE
8
BLACK
6
CONTINUOUS
10
6.78862
20
-5.06526
11
6.7886
21
-5.0652
0
LINE
8
BLACK
6
CONTINUOUS
10
6.7886
20
-5.0652
11
6.7881
21
-5.06396
0
LINE
8
BLACK
6
CONTINUOUS
10
6.7881
20
-5.06396
11
6.78749
21
-5.0627
0
LINE
8
BLACK
6
CONTINUOUS
10
6.78749
20
-5.0627
11
6.78682
21
-5.06152
0
LINE
8
BLACK
6
CONTINUOUS
10
6.78682
20
-5.06152
11
6.78679
21
-5.06149
0
LINE
8
BLACK
6
CONTINUOUS
10
6.78679
20
-5.06149
11
6.78679
21
-5.06149
0
LINE
8
BLACK
6
CONTINUOUS
10
6.78679
20
-5.06149
11
6.61757
21
-4.78582
0
LINE
8
BLACK
6
CONTINUOUS
10
6.61757
20
-4.78582
11
6.61753
21
-4.78573
0
LINE
8
BLACK
6
CONTINUOUS
10
6.61753
20
-4.78573
11
6.61667
21
-4.78444
0
LINE
8
BLACK
6
CONTINUOUS
10
6.61667
20
-4.78444
11
6.61565
21
-4.78315
0
LINE
8
BLACK
6
CONTINUOUS
10
6.61565
20
-4.78315
11
6.61457
21
-4.78198
0
LINE
8
BLACK
6
CONTINUOUS
10
6.61457
20
-4.78198
11
6.61452
21
-4.78195
0
LINE
8
BLACK
6
CONTINUOUS
10
6.61452
20
-4.78195
11
6.61452
21
-4.78195
0
LINE
8
BLACK
6
CONTINUOUS
10
6.61452
20
-4.78195
11
6.61452
21
-4.78195
0
LINE
8
BLACK
6
CONTINUOUS
10
6.61452
20
-4.78195
11
6.38412
21
-4.55155
0
LINE
8
BLACK
6
CONTINUOUS
10
6.38412
20
-4.55155
11
6.38412
21
-4.55155
0
LINE
8
BLACK
6
CONTINUOUS
10
6.38412
20
-4.55155
11
6.38091
21
-4.5478
0
LINE
8
BLACK
6
CONTINUOUS
10
6.38091
20
-4.5478
11
6.37833
21
-4.54358
0
LINE
8
BLACK
6
CONTINUOUS
10
6.37833
20
-4.54358
11
6.37643
21
-4.53902
0
LINE
8
BLACK
6
CONTINUOUS
10
6.37643
20
-4.53902
11
6.37528
21
-4.53421
0
LINE
8
BLACK
6
CONTINUOUS
10
6.37528
20
-4.53421
11
6.37489
21
-4.52928
0
LINE
8
BLACK
6
CONTINUOUS
10
6.37489
20
-4.52928
11
6.37489
21
-4.52928
0
LINE
8
BLACK
6
CONTINUOUS
10
6.37489
20
-4.52928
11
6.37489
21
-2.31069
0
LINE
8
BLACK
6
CONTINUOUS
10
6.37489
20
-2.31069
11
6.37495
21
-2.31028
0
LINE
8
BLACK
6
CONTINUOUS
10
6.37495
20
-2.31028
11
6.37459
21
-2.3066
0
LINE
8
BLACK
6
CONTINUOUS
10
6.37459
20
-2.3066
11
6.3734
21
-2.30265
0
LINE
8
BLACK
6
CONTINUOUS
10
6.3734
20
-2.30265
11
6.37147
21
-2.29902
0
LINE
8
BLACK
6
CONTINUOUS
10
6.37147
20
-2.29902
11
6.36905
21
-2.29604
0
LINE
8
BLACK
6
CONTINUOUS
10
6.36905
20
-2.29604
11
6.3688
21
-2.2959
0
LINE
8
BLACK
6
CONTINUOUS
10
6.3688
20
-2.2959
11
6.3688
21
-2.2959
0
LINE
8
BLACK
6
CONTINUOUS
10
6.3688
20
-2.2959
11
5.61328
21
-1.53494
0
LINE
8
BLACK
6
CONTINUOUS
10
5.61328
20
-1.53494
11
5.61303
21
-1.5346
0
LINE
8
BLACK
6
CONTINUOUS
10
5.61303
20
-1.5346
11
5.61015
21
-1.53222
0
LINE
8
BLACK
6
CONTINUOUS
10
5.61015
20
-1.53222
11
5.60649
21
-1.53026
0
LINE
8
BLACK
6
CONTINUOUS
10
5.60649
20
-1.53026
11
5.60252
21
-1.52904
0
LINE
8
BLACK
6
CONTINUOUS
10
5.60252
20
-1.52904
11
5.59866
21
-1.52866
0
LINE
8
BLACK
6
CONTINUOUS
10
5.59866
20
-1.52866
11
5.59839
21
-1.52874
0
LINE
8
BLACK
6
CONTINUOUS
10
5.59839
20
-1.52874
11
5.59838
21
-1.52874
0
LINE
8
BLACK
6
CONTINUOUS
10
5.59838
20
-1.52874
11
4.88556
21
-1.52874
0
LINE
8
BLACK
6
CONTINUOUS
10
4.88556
20
-1.52874
11
4.88556
21
-1.52874
0
LINE
8
BLACK
6
CONTINUOUS
10
4.88556
20
-1.52874
11
4.88556
21
-1.52874
0
LINE
8
BLACK
6
CONTINUOUS
10
4.88556
20
-1.52874
11
4.87941
21
-1.52813
0
LINE
8
BLACK
6
CONTINUOUS
10
4.87941
20
-1.52813
11
4.8735
21
-1.52634
0
LINE
8
BLACK
6
CONTINUOUS
10
4.8735
20
-1.52634
11
4.86806
21
-1.52343
0
LINE
8
BLACK
6
CONTINUOUS
10
4.86806
20
-1.52343
11
4.86329
21
-1.51951
0
LINE
8
BLACK
6
CONTINUOUS
10
4.86329
20
-1.51951
11
4.85937
21
-1.51474
0
LINE
8
BLACK
6
CONTINUOUS
10
4.85937
20
-1.51474
11
4.85646
21
-1.50929
0
LINE
8
BLACK
6
CONTINUOUS
10
4.85646
20
-1.50929
11
4.85467
21
-1.50338
0
LINE
8
BLACK
6
CONTINUOUS
10
4.85467
20
-1.50338
11
4.85406
21
-1.49725
0
LINE
8
BLACK
6
CONTINUOUS
10
4.85406
20
-1.49725
11
4.85406
21
-1.49724
0
LINE
8
BLACK
6
CONTINUOUS
10
4.85406
20
-1.49724
11
4.85406
21
-1.17473
0
LINE
8
BLACK
6
CONTINUOUS
10
4.85406
20
-1.17473
11
4.85414
21
-1.17421
0
LINE
8
BLACK
6
CONTINUOUS
10
4.85414
20
-1.17421
11
4.85367
21
-1.17003
0
LINE
8
BLACK
6
CONTINUOUS
10
4.85367
20
-1.17003
11
4.8521
21
-1.16557
0
LINE
8
BLACK
6
CONTINUOUS
10
4.8521
20
-1.16557
11
4.84958
21
-1.16156
0
LINE
8
BLACK
6
CONTINUOUS
10
4.84958
20
-1.16156
11
4.84624
21
-1.15821
0
LINE
8
BLACK
6
CONTINUOUS
10
4.84624
20
-1.15821
11
4.84223
21
-1.1557
0
LINE
8
BLACK
6
CONTINUOUS
10
4.84223
20
-1.1557
11
4.83777
21
-1.15413
0
LINE
8
BLACK
6
CONTINUOUS
10
4.83777
20
-1.15413
11
4.83341
21
-1.15364
0
LINE
8
BLACK
6
CONTINUOUS
10
4.83341
20
-1.15364
11
4.83306
21
-1.15374
0
LINE
8
BLACK
6
CONTINUOUS
10
4.83306
20
-1.15374
11
4.83306
21
-1.15374
0
LINE
8
BLACK
6
CONTINUOUS
10
4.83306
20
-1.15374
11
3.38556
21
-1.15374
0
LINE
8
BLACK
6
CONTINUOUS
10
3.38556
20
-1.15374
11
3.38556
21
-1.15374
  0
ENDSEC
  0
EOF
