<?xml version="1.0" standalone="no"?>
 <!DOCTYPE svg PUBLIC "-//W3C//DTD SVG 1.1//EN" 
 "http://www.w3.org/Graphics/SVG/1.1/DTD/svg11.dtd"> 
<svg
  xmlns:svg="http://www.w3.org/2000/svg"
  xmlns="http://www.w3.org/2000/svg"
  xmlns:xlink="http://www.w3.org/1999/xlink"
  version="1.1"
  width="27.940000cm" height="21.590000cm" viewBox="0 0 279400000 215900000">
<title>SVG Picture created as keyboard-Edge_Cuts.svg date 2022/09/13 00:43:36 </title>
  <desc>Picture generated by PCBNEW </desc>
<g style="fill:#000000; fill-opacity:1.000000;stroke:#000000; stroke-opacity:1.000000;
stroke-linecap:round; stroke-linejoin:round;"
 transform="translate(0 0) scale(1 1)">
</g>
<g style="fill:#000000; fill-opacity:0.0; 
stroke:#000000; stroke-width:0.000000; stroke-opacity:1; 
stroke-linecap:round; stroke-linejoin:round;">
</g>
<g style="fill:#000000; fill-opacity:0.0; 
stroke:#000000; stroke-width:266666.000000; stroke-opacity:1; 
stroke-linecap:round; stroke-linejoin:round;">
<path d="M172556112 128611909
L178830607 145773501
" />
<path d="M104376523.997563 106038242.995640 A666724.000000 666724.000000 0.0 0 0 103709806.000000 105371576.000027" />
<path d="M47893140.000180 38696573.001200 A666627.000000 666627.000000 0.0 0 0 47226473.001387 39363243.000000" />
<path d="M162055621.999981 58691595.000135 A666722.000000 666722.000000 0.0 0 0 161862066.985949 58221886.013949" />
<path d="M85326473 30939076
L85326473 29838243
" />
<path d="M65694774 95846576
L47893140 95846576
" />
<path d="M162250902 115515172
L168103085 121367355
" />
<path d="M66354972.270592 104703188.178835 A665935.000000 665935.000000 0.0 0 0 67017740.002361 105372227.502541" />
<path d="M142672021 38893534
L161862067 58221886
" />
<path d="M66943140 31605743
L84659806 31605743
" />
<path d="M123426523.997563 29838242.995640 A666724.000000 666724.000000 0.0 0 0 122759806.000000 29171576.000027" />
<path d="M46559806.000171 43494372.999973 A666673.000000 666673.000000 0.0 0 0 47226472.999873 42827687.000000" />
<path d="M85993140.000180 29171573.001200 A666627.000000 666627.000000 0.0 0 0 85326473.001387 29838243.000000" />
<path d="M85993140 29171576
L122759806 29171576
" />
<path d="M47893140 38696576
L65609806 38696576
" />
<path d="M28843140 43494354
L46559806 43494354
" />
<path d="M103709806 105371576
L67017740 105372228
" />
<path d="M28843140.001710 43494373.002700 A666727.000000 666727.000000 0.0 0 0 28176473.004680 44161021.000001" />
<path d="M46559806 81594354
L28843140 81594354
" />
<path d="M66361419.935845 96515627.943910 A666724.000000 666724.000000 0.0 0 0 65694774.000000 95846576.004107" />
<path d="M104376524.000061 114229908.999312 A666676.000000 666676.000000 0.0 0 0 105043140.000000 114896575.997300" />
<path d="M47226524.000061 95179908.999312 A666676.000000 666676.000000 0.0 0 0 47893140.000000 95846575.997300" />
<path d="M104376473 114229909
L104376473 106038243
" />
<path d="M124093140 38696576
L142198927 38696576
" />
<path d="M178433398 146628553
L161835023 152697129
" />
<path d="M123426524.000061 38029908.999312 A666676.000000 666676.000000 0.0 0 0 124093140.000000 38696575.997300" />
<path d="M172556109.178119 128611910.031731 A666858.000000 666858.000000 0.0 0 0 172498139.930324 128492060.042766" />
<path d="M47226473 42827687
L47226473 39363243
" />
<path d="M47226473 95179909
L47226473 82261021
" />
<path d="M162055640 58691595
L162055640 115043767
" />
<path d="M168199844.053347 121489985.897823 A666540.000000 666540.000000 0.0 0 0 168103084.952980 121367355.047026" />
<path d="M162055632.000817 115043766.999604 A666568.000000 666568.000000 0.0 0 0 162250902.248511 115515171.751450" />
<path d="M28176473 80927687
L28176473 44161021
" />
<path d="M160979999.052237 152300000.346650 A666666.000000 666666.000000 0.0 0 0 161835023.074940 152697129.204970" />
<path d="M142672040.530433 38893514.603933 A666824.000000 666824.000000 0.0 0 0 142198927.000000 38696576.000547" />
<path d="M123308642 114896576
L105043140 114896576
" />
<path d="M47226445.999669 82261020.999150 A666646.000000 666646.000000 0.0 0 0 46559806.000000 81594354.000027" />
<path d="M123537160.659615 114936978.887695 A666124.000000 666124.000000 0.0 0 0 123308642.000000 114896576.002525" />
<path d="M66276473 38029909
L66276473 32272409
" />
<path d="M141007108 121311601
L123537165 114936967
" />
<path d="M65609806.015421 38696672.991572 A666773.000000 666773.000000 0.0 0 0 66276472.999939 38029909.000000" />
<path d="M123426473 29838243
L123426473 38029909
" />
<path d="M66354934 104703188
L66361436 96515628
" />
<path d="M168199839 121489989
L172498140 128492060
" />
<path d="M66943139.993696 31605773.014702 A666527.000000 666527.000000 0.0 0 0 66276473.008913 32272408.999999" />
<path d="M84659806.000270 31605772.999973 A666673.000000 666673.000000 0.0 0 0 85326472.999568 30939076.000000" />
<path d="M141249947.564126 121466415.433676 A666683.000000 666683.000000 0.0 0 0 141007107.968902 121311601.085234" />
<path d="M160980000 152300000
L154627330 134931528
" />
<path d="M154472633 134689125
L141249940 121466423
" />
<path d="M154627319.727599 134931531.754632 A666100.000000 666100.000000 0.0 0 0 154472632.821624 134689125.178430" />
<path d="M28176446.005676 80927687.003522 A666754.000000 666754.000000 0.0 0 0 28843140.000000 81594353.997300" />
<path d="M178433406.757809 146628576.963727 A666577.000000 666577.000000 0.0 0 0 178830606.711796 145773501.105428" />
<g >
</g>
<g >
</g>
<g >
</g>
<g >
</g>
<g >
</g>
<g >
</g>
<g >
</g>
<g >
</g>
<g >
</g>
<g >
</g>
<g >
</g>
<g >
</g>
<g >
</g>
<g >
</g>
<g >
</g>
<g >
</g>
<g >
</g>
<g >
</g>
<g >
</g>
<g >
</g>
<g >
</g>
<g >
</g>
<g >
</g>
<g >
</g>
<g >
</g>
<g >
</g>
<g >
</g>
<g >
</g>
<g >
</g>
<g >
</g>
<g >
</g>
<g >
</g>
<g >
</g>
<g >
</g>
<g >
</g>
<g >
</g>
<g >
</g>
<g >
</g>
<g >
</g>
<g >
</g>
<g >
</g>
<g >
</g>
<g >
</g>
<g >
</g>
<g >
</g>
<g >
</g>
<g >
</g>
<g >
</g>
<g >
</g>
<g >
</g>
<g >
</g>
<g >
</g>
<g >
</g>
<g >
</g>
<g >
</g>
<g >
</g>
<g >
</g>
<g >
</g>
<g >
</g>
<g >
</g>
<g >
</g>
<g >
</g>
<g >
</g>
<g >
</g>
<g >
</g>
<g >
</g>
<g >
</g>
<g >
</g>
<g >
</g>
<g >
</g>
<g >
</g>
<g >
</g>
<g >
</g>
<g >
</g>
<g >
</g>
<g >
</g>
<g >
</g>
<g >
</g>
<g >
</g>
<g >
</g>
<g >
</g>
<g >
</g>
<g >
</g>
<g >
</g>
<g >
</g>
<g >
</g>
<g >
</g>
<g >
</g>
<g >
</g>
<g >
</g>
<g >
</g>
<g >
</g>
<g >
</g>
<g >
</g>
<g >
</g>
<g >
</g>
<g >
</g>
<g >
</g>
<g >
</g>
<g >
</g>
<g >
</g>
<g >
</g>
<g >
</g>
</g> 
</svg>
