<?xml version="1.0" encoding="utf-8"?>
<!-- Generator: Adobe Illustrator 22.1.0, SVG Export Plug-In . SVG Version: 6.00 Build 0)  -->
<svg version="1.1" id="Layer_1" xmlns="http://www.w3.org/2000/svg" xmlns:xlink="http://www.w3.org/1999/xlink" x="0px" y="0px"
	 viewBox="0 0 792 612" style="enable-background:new 0 0 792 612;" xml:space="preserve">
<style type="text/css">
	.st0{fill:#FFFFFF;}
	.st1{fill:none;stroke:#000000;stroke-width:0.48;stroke-linecap:round;stroke-linejoin:round;stroke-miterlimit:10;}
	.st2{fill:none;stroke:#000000;stroke-width:0.36;stroke-linecap:round;stroke-linejoin:round;stroke-miterlimit:10;}
</style>
<rect class="st0" width="1584" height="1224"/>
<line class="st1" x1="564.5" y1="392.4" x2="562.4" y2="390.4"/>
<line class="st1" x1="534.4" y1="366.4" x2="536.4" y2="364.3"/>
<line class="st1" x1="536.4" y1="364.3" x2="538.4" y2="366.4"/>
<line class="st1" x1="502.1" y1="319.9" x2="574.6" y2="392.4"/>
<line class="st1" x1="559.1" y1="472.6" x2="561.7" y2="471.6"/>
<line class="st1" x1="596.4" y1="459" x2="595.4" y2="456.4"/>
<line class="st1" x1="558.1" y1="469.9" x2="559.1" y2="472.6"/>
<line class="st1" x1="596.4" y1="459" x2="593.8" y2="460"/>
<line class="st1" x1="605.5" y1="463.2" x2="554.9" y2="481.7"/>
<line class="st1" x1="587" y1="412.6" x2="605.5" y2="463.2"/>
<line class="st1" x1="554.9" y1="481.7" x2="536.1" y2="430.3"/>
<line class="st1" x1="536.4" y1="431" x2="587" y2="412.6"/>
<line class="st1" x1="582.8" y1="421.7" x2="583.8" y2="424.3"/>
<line class="st1" x1="536.4" y1="420.5" x2="538.4" y2="418.4"/>
<line class="st1" x1="548.2" y1="434.3" x2="545.5" y2="435.2"/>
<line class="st1" x1="545.5" y1="435.2" x2="546.5" y2="437.9"/>
<line class="st1" x1="580.2" y1="422.6" x2="582.8" y2="421.7"/>
<line class="st1" x1="564.5" y1="392.4" x2="562.4" y2="394.4"/>
<line class="st1" x1="536.4" y1="430.6" x2="498.2" y2="392.4"/>
<line class="st1" x1="534.4" y1="418.4" x2="536.4" y2="420.5"/>
<line class="st1" x1="508.3" y1="392.4" x2="510.4" y2="394.4"/>
<line class="st1" x1="574.6" y1="392.4" x2="536.4" y2="430.6"/>
<line class="st1" x1="510.4" y1="390.4" x2="508.3" y2="392.4"/>
<line class="st1" x1="498.2" y1="392.4" x2="536.4" y2="354.2"/>
<line class="st1" x1="495.2" y1="380.6" x2="494.3" y2="383.3"/>
<line class="st1" x1="498.5" y1="392.4" x2="517" y2="341.8"/>
<line class="st1" x1="557.3" y1="213.8" x2="557.3" y2="375.1"/>
<line class="st1" x1="501.8" y1="265.9" x2="501.8" y2="211.9"/>
<line class="st1" x1="494.8" y1="256" x2="494.8" y2="258.8"/>
<line class="st1" x1="494.8" y1="258.8" x2="491.9" y2="258.8"/>
<line class="st1" x1="447.8" y1="265.9" x2="501.8" y2="265.9"/>
<line class="st1" x1="457.9" y1="258.8" x2="455" y2="258.8"/>
<line class="st1" x1="455" y1="273.1" x2="457.9" y2="273.1"/>
<line class="st1" x1="494.8" y1="273.1" x2="491.9" y2="273.1"/>
<line class="st1" x1="501.8" y1="265.9" x2="447.8" y2="265.9"/>
<line class="st1" x1="501.8" y1="319.9" x2="501.8" y2="265.9"/>
<line class="st1" x1="494.8" y1="276" x2="494.8" y2="273.1"/>
<line class="st1" x1="447.8" y1="265.9" x2="447.8" y2="319.9"/>
<line class="st1" x1="447.8" y1="319.9" x2="501.8" y2="319.9"/>
<line class="st1" x1="447.8" y1="319.9" x2="447.8" y2="265.9"/>
<line class="st1" x1="455" y1="312.8" x2="455" y2="310"/>
<line class="st1" x1="457.9" y1="312.8" x2="455" y2="312.8"/>
<line class="st1" x1="517" y1="341.8" x2="466.3" y2="323.3"/>
<line class="st1" x1="494.8" y1="310" x2="494.8" y2="312.8"/>
<line class="st1" x1="494.8" y1="312.8" x2="491.9" y2="312.8"/>
<line class="st1" x1="507.8" y1="346" x2="505.2" y2="345"/>
<line class="st1" x1="506.9" y1="348.6" x2="507.8" y2="346"/>
<line class="st1" x1="447.8" y1="211.9" x2="501.8" y2="211.9"/>
<line class="st1" x1="455" y1="219.1" x2="457.9" y2="219.1"/>
<line class="st1" x1="494.8" y1="219.1" x2="491.9" y2="219.1"/>
<line class="st1" x1="501.8" y1="211.9" x2="447.8" y2="211.9"/>
<line class="st1" x1="494.8" y1="222" x2="494.8" y2="219.1"/>
<line class="st1" x1="447.8" y1="157.9" x2="447.8" y2="211.9"/>
<line class="st1" x1="455" y1="165.1" x2="455" y2="168"/>
<line class="st1" x1="457.9" y1="204.8" x2="455" y2="204.8"/>
<line class="st1" x1="455" y1="165.1" x2="457.9" y2="165.1"/>
<line class="st1" x1="447.8" y1="211.9" x2="447.8" y2="130.9"/>
<line class="st1" x1="501.8" y1="157.9" x2="447.8" y2="157.9"/>
<line class="st1" x1="494.8" y1="168" x2="494.8" y2="165.1"/>
<line class="st1" x1="494.8" y1="202" x2="494.8" y2="204.8"/>
<line class="st1" x1="494.8" y1="165.1" x2="491.9" y2="165.1"/>
<line class="st1" x1="501.8" y1="157.9" x2="557.3" y2="213.8"/>
<line class="st1" x1="501.8" y1="211.9" x2="501.8" y2="157.9"/>
<line class="st1" x1="494.8" y1="204.8" x2="491.9" y2="204.8"/>
<line class="st1" x1="447.8" y1="157.9" x2="393.8" y2="157.9"/>
<line class="st1" x1="401" y1="204.8" x2="401" y2="202"/>
<line class="st1" x1="440.8" y1="165.1" x2="437.9" y2="165.1"/>
<line class="st1" x1="440.8" y1="168" x2="440.8" y2="165.1"/>
<line class="st1" x1="401" y1="165.1" x2="403.9" y2="165.1"/>
<line class="st1" x1="401" y1="165.1" x2="401" y2="168"/>
<line class="st1" x1="386.8" y1="283" x2="386.8" y2="285.8"/>
<line class="st1" x1="386.8" y1="249" x2="386.8" y2="246.1"/>
<line class="st1" x1="455" y1="273.1" x2="455" y2="276"/>
<line class="st1" x1="401" y1="219.1" x2="401" y2="222"/>
<line class="st1" x1="440.8" y1="273.1" x2="437.9" y2="273.1"/>
<line class="st1" x1="440.8" y1="276" x2="440.8" y2="273.1"/>
<line class="st1" x1="401" y1="273.1" x2="403.9" y2="273.1"/>
<line class="st1" x1="401" y1="273.1" x2="401" y2="276"/>
<line class="st1" x1="455" y1="204.8" x2="455" y2="202"/>
<line class="st1" x1="440.8" y1="202" x2="440.8" y2="204.8"/>
<line class="st1" x1="403.9" y1="204.8" x2="401" y2="204.8"/>
<line class="st1" x1="440.8" y1="204.8" x2="437.9" y2="204.8"/>
<line class="st1" x1="455" y1="258.8" x2="455" y2="256"/>
<line class="st1" x1="447.8" y1="211.9" x2="447.8" y2="265.9"/>
<line class="st1" x1="455" y1="219.1" x2="455" y2="222"/>
<line class="st1" x1="440.8" y1="256" x2="440.8" y2="258.8"/>
<line class="st1" x1="447.8" y1="265.9" x2="447.8" y2="211.9"/>
<line class="st1" x1="393.8" y1="211.9" x2="447.8" y2="211.9"/>
<line class="st1" x1="401" y1="219.1" x2="403.9" y2="219.1"/>
<line class="st1" x1="440.8" y1="219.1" x2="437.9" y2="219.1"/>
<line class="st1" x1="440.8" y1="222" x2="440.8" y2="219.1"/>
<line class="st1" x1="447.8" y1="211.9" x2="393.8" y2="211.9"/>
<line class="st1" x1="393.8" y1="265.9" x2="447.8" y2="265.9"/>
<line class="st1" x1="401" y1="258.8" x2="401" y2="256"/>
<line class="st1" x1="403.9" y1="258.8" x2="401" y2="258.8"/>
<line class="st1" x1="440.8" y1="258.8" x2="437.9" y2="258.8"/>
<line class="st1" x1="447.8" y1="265.9" x2="393.8" y2="265.9"/>
<line class="st1" x1="393.8" y1="373.9" x2="447.8" y2="373.9"/>
<line class="st1" x1="403.9" y1="366.8" x2="401" y2="366.8"/>
<line class="st1" x1="401" y1="366.8" x2="401" y2="364"/>
<line class="st1" x1="393.8" y1="319.9" x2="393.8" y2="373.9"/>
<line class="st1" x1="447.8" y1="319.9" x2="393.8" y2="319.9"/>
<line class="st1" x1="393.8" y1="319.9" x2="447.8" y2="319.9"/>
<line class="st1" x1="459.6" y1="370.7" x2="457" y2="369.7"/>
<line class="st1" x1="447.8" y1="373.9" x2="498.5" y2="392.4"/>
<line class="st1" x1="494.3" y1="383.3" x2="491.6" y2="382.3"/>
<line class="st1" x1="457" y1="369.7" x2="457.9" y2="367.1"/>
<line class="st1" x1="470.5" y1="332.4" x2="469.6" y2="335"/>
<line class="st1" x1="466.3" y1="323.3" x2="447.8" y2="373.9"/>
<line class="st1" x1="470.5" y1="332.4" x2="473.2" y2="333.4"/>
<line class="st1" x1="447.8" y1="373.9" x2="447.8" y2="319.9"/>
<line class="st1" x1="440.8" y1="366.8" x2="437.9" y2="366.8"/>
<line class="st1" x1="440.8" y1="364" x2="440.8" y2="366.8"/>
<line class="st1" x1="440.8" y1="327.1" x2="437.9" y2="327.1"/>
<line class="st1" x1="440.8" y1="330" x2="440.8" y2="327.1"/>
<line class="st1" x1="401" y1="327.1" x2="401" y2="330"/>
<line class="st1" x1="401" y1="327.1" x2="403.9" y2="327.1"/>
<line class="st1" x1="401" y1="312.8" x2="401" y2="310"/>
<line class="st1" x1="440.8" y1="310" x2="440.8" y2="312.8"/>
<line class="st1" x1="440.8" y1="312.8" x2="437.9" y2="312.8"/>
<line class="st1" x1="403.9" y1="312.8" x2="401" y2="312.8"/>
<path class="st2" d="M334.3,323.3c0,11.8-9.6,21.4-21.4,21.4s-21.2-9.6-21.2-21.4c0-11.8,9.5-21.2,21.2-21.2
	S334.3,311.5,334.3,323.3z"/>
<line class="st1" x1="349.9" y1="285.8" x2="347" y2="285.8"/>
<line class="st1" x1="339.8" y1="292.9" x2="339.8" y2="346.9"/>
<line class="st1" x1="332.8" y1="289.7" x2="332.8" y2="292.6"/>
<line class="st1" x1="386.8" y1="300.1" x2="383.9" y2="300.1"/>
<line class="st1" x1="347" y1="300.1" x2="349.9" y2="300.1"/>
<line class="st1" x1="347" y1="300.1" x2="347" y2="303"/>
<line class="st1" x1="349.9" y1="339.8" x2="347" y2="339.8"/>
<line class="st1" x1="347" y1="339.8" x2="347" y2="337"/>
<line class="st1" x1="386.8" y1="337" x2="386.8" y2="339.8"/>
<line class="st1" x1="386.8" y1="303" x2="386.8" y2="300.1"/>
<line class="st1" x1="393.8" y1="346.9" x2="393.8" y2="292.9"/>
<line class="st1" x1="286" y1="346.9" x2="393.8" y2="346.9"/>
<line class="st1" x1="386.8" y1="339.8" x2="383.9" y2="339.8"/>
<line class="st1" x1="347" y1="285.8" x2="347" y2="283"/>
<line class="st1" x1="293" y1="292.6" x2="293" y2="289.7"/>
<line class="st1" x1="293" y1="252.8" x2="295.9" y2="252.8"/>
<line class="st1" x1="295.9" y1="292.6" x2="293" y2="292.6"/>
<line class="st1" x1="332.8" y1="252.8" x2="329.9" y2="252.8"/>
<line class="st1" x1="332.8" y1="255.7" x2="332.8" y2="252.8"/>
<line class="st1" x1="332.8" y1="292.6" x2="329.9" y2="292.6"/>
<line class="st1" x1="293" y1="252.8" x2="293" y2="255.7"/>
<line class="st1" x1="347" y1="246.1" x2="347" y2="249"/>
<line class="st1" x1="347" y1="246.1" x2="349.9" y2="246.1"/>
<line class="st1" x1="386.8" y1="246.1" x2="383.9" y2="246.1"/>
<line class="st1" x1="339.8" y1="299.8" x2="339.8" y2="245.8"/>
<line class="st1" x1="393.8" y1="265.9" x2="393.8" y2="319.9"/>
<line class="st1" x1="332.8" y1="198.8" x2="329.9" y2="198.8"/>
<line class="st1" x1="332.8" y1="235.7" x2="332.8" y2="238.6"/>
<line class="st1" x1="332.8" y1="238.6" x2="329.9" y2="238.6"/>
<line class="st1" x1="332.8" y1="201.7" x2="332.8" y2="198.8"/>
<line class="st1" x1="293" y1="198.8" x2="293" y2="201.7"/>
<line class="st1" x1="293" y1="198.8" x2="295.9" y2="198.8"/>
<line class="st1" x1="332.8" y1="184.6" x2="329.9" y2="184.6"/>
<line class="st1" x1="285.8" y1="191.8" x2="339.8" y2="191.8"/>
<line class="st1" x1="285.8" y1="191.8" x2="285.8" y2="245.8"/>
<line class="st1" x1="339.8" y1="191.8" x2="285.8" y2="191.8"/>
<line class="st1" x1="339.8" y1="245.8" x2="339.8" y2="191.8"/>
<line class="st1" x1="339.8" y1="245.8" x2="285.8" y2="245.8"/>
<line class="st1" x1="285.8" y1="265.9" x2="285.8" y2="211.9"/>
<line class="st1" x1="278.8" y1="219.1" x2="275.9" y2="219.1"/>
<line class="st1" x1="278.8" y1="222" x2="278.8" y2="219.1"/>
<line class="st1" x1="278.8" y1="273.1" x2="275.9" y2="273.1"/>
<line class="st1" x1="278.8" y1="276" x2="278.8" y2="273.1"/>
<line class="st1" x1="278.8" y1="256" x2="278.8" y2="258.8"/>
<line class="st1" x1="278.8" y1="258.8" x2="275.9" y2="258.8"/>
<line class="st1" x1="393.8" y1="238.9" x2="339.8" y2="238.9"/>
<line class="st1" x1="386.8" y1="285.8" x2="383.9" y2="285.8"/>
<line class="st1" x1="339.8" y1="292.9" x2="393.8" y2="292.9"/>
<line class="st1" x1="393.8" y1="292.9" x2="393.8" y2="238.9"/>
<line class="st1" x1="393.8" y1="292.9" x2="339.8" y2="292.9"/>
<line class="st1" x1="393.8" y1="211.9" x2="393.8" y2="265.9"/>
<line class="st1" x1="386.8" y1="138.1" x2="383.9" y2="138.1"/>
<line class="st1" x1="386.8" y1="177.8" x2="383.9" y2="177.8"/>
<line class="st1" x1="386.8" y1="175" x2="386.8" y2="177.8"/>
<line class="st1" x1="386.8" y1="141" x2="386.8" y2="138.1"/>
<line class="st1" x1="393.8" y1="184.9" x2="393.8" y2="130.9"/>
<line class="st1" x1="393.8" y1="157.9" x2="393.8" y2="211.9"/>
<line class="st1" x1="447.8" y1="130.9" x2="339.8" y2="130.9"/>
<line class="st1" x1="347" y1="177.8" x2="347" y2="175"/>
<line class="st1" x1="349.9" y1="177.8" x2="347" y2="177.8"/>
<line class="st1" x1="339.8" y1="184.9" x2="393.8" y2="184.9"/>
<line class="st1" x1="393.8" y1="184.9" x2="339.8" y2="184.9"/>
<line class="st1" x1="347" y1="231.8" x2="347" y2="229"/>
<line class="st1" x1="339.8" y1="238.9" x2="393.8" y2="238.9"/>
<line class="st1" x1="339.8" y1="184.9" x2="339.8" y2="238.9"/>
<line class="st1" x1="349.9" y1="231.8" x2="347" y2="231.8"/>
<line class="st1" x1="393.8" y1="238.9" x2="393.8" y2="184.9"/>
<line class="st1" x1="386.8" y1="229" x2="386.8" y2="231.8"/>
<line class="st1" x1="347" y1="192.1" x2="349.9" y2="192.1"/>
<line class="st1" x1="386.8" y1="192.1" x2="383.9" y2="192.1"/>
<line class="st1" x1="386.8" y1="195" x2="386.8" y2="192.1"/>
<line class="st1" x1="347" y1="192.1" x2="347" y2="195"/>
<line class="st1" x1="386.8" y1="231.8" x2="383.9" y2="231.8"/>
<line class="st1" x1="347" y1="138.1" x2="349.9" y2="138.1"/>
<line class="st1" x1="339.8" y1="130.9" x2="339.8" y2="184.9"/>
<line class="st1" x1="347" y1="138.1" x2="347" y2="141"/>
<line class="st1" x1="332.8" y1="147.7" x2="332.8" y2="144.8"/>
<line class="st1" x1="332.8" y1="144.8" x2="329.9" y2="144.8"/>
<line class="st1" x1="332.8" y1="181.7" x2="332.8" y2="184.6"/>
<line class="st1" x1="339.8" y1="191.8" x2="339.8" y2="137.8"/>
<line class="st1" x1="285.8" y1="157.9" x2="231.8" y2="157.9"/>
<line class="st1" x1="239" y1="165.1" x2="239" y2="168"/>
<line class="st1" x1="239" y1="165.1" x2="241.9" y2="165.1"/>
<line class="st1" x1="231.8" y1="157.9" x2="231.8" y2="211.9"/>
<line class="st1" x1="285.8" y1="211.9" x2="285.8" y2="157.9"/>
<line class="st1" x1="278.8" y1="202" x2="278.8" y2="204.8"/>
<line class="st1" x1="231.8" y1="211.9" x2="285.8" y2="211.9"/>
<line class="st1" x1="241.9" y1="204.8" x2="239" y2="204.8"/>
<line class="st1" x1="239" y1="204.8" x2="239" y2="202"/>
<line class="st1" x1="278.8" y1="204.8" x2="275.9" y2="204.8"/>
<line class="st1" x1="224.8" y1="215.5" x2="224.8" y2="218.3"/>
<line class="st1" x1="185" y1="232.6" x2="187.9" y2="232.6"/>
<line class="st1" x1="185" y1="272.3" x2="185" y2="269.5"/>
<line class="st1" x1="177.8" y1="225.5" x2="177.8" y2="279.5"/>
<line class="st1" x1="185" y1="232.6" x2="185" y2="235.4"/>
<line class="st1" x1="231.8" y1="225.5" x2="177.8" y2="225.5"/>
<line class="st1" x1="187.9" y1="272.3" x2="185" y2="272.3"/>
<line class="st1" x1="177.8" y1="279.5" x2="231.8" y2="279.5"/>
<line class="st1" x1="177.8" y1="225.5" x2="231.8" y2="225.5"/>
<line class="st1" x1="278.8" y1="168" x2="278.8" y2="165.1"/>
<line class="st1" x1="278.8" y1="165.1" x2="275.9" y2="165.1"/>
<line class="st1" x1="293" y1="144.8" x2="295.9" y2="144.8"/>
<line class="st1" x1="293" y1="184.6" x2="293" y2="181.7"/>
<line class="st1" x1="295.9" y1="184.6" x2="293" y2="184.6"/>
<line class="st1" x1="293" y1="144.8" x2="293" y2="147.7"/>
<line class="st1" x1="339.8" y1="137.8" x2="285.8" y2="137.8"/>
<line class="st1" x1="285.8" y1="137.8" x2="285.8" y2="191.8"/>
<line class="st1" x1="224.8" y1="178.6" x2="221.9" y2="178.6"/>
<line class="st1" x1="231.8" y1="171.5" x2="177.8" y2="171.5"/>
<line class="st1" x1="224.8" y1="181.4" x2="224.8" y2="178.6"/>
<line class="st1" x1="177.8" y1="171.5" x2="177.8" y2="225.5"/>
<line class="st1" x1="231.8" y1="225.5" x2="231.8" y2="171.5"/>
<line class="st1" x1="185" y1="218.3" x2="185" y2="215.5"/>
<line class="st1" x1="185" y1="178.6" x2="185" y2="181.4"/>
<line class="st1" x1="187.9" y1="218.3" x2="185" y2="218.3"/>
<line class="st1" x1="185" y1="178.6" x2="187.9" y2="178.6"/>
<line class="st1" x1="285.8" y1="245.8" x2="339.8" y2="245.8"/>
<line class="st1" x1="295.9" y1="238.6" x2="293" y2="238.6"/>
<line class="st1" x1="293" y1="238.6" x2="293" y2="235.7"/>
<line class="st1" x1="339.8" y1="238.9" x2="339.8" y2="292.9"/>
<line class="st1" x1="285.8" y1="245.8" x2="285.8" y2="299.8"/>
<line class="st1" x1="285.8" y1="299.8" x2="339.8" y2="299.8"/>
<line class="st1" x1="285.8" y1="346.9" x2="285.8" y2="265.9"/>
<line class="st1" x1="224.8" y1="269.5" x2="224.8" y2="272.3"/>
<line class="st1" x1="224.8" y1="232.6" x2="221.9" y2="232.6"/>
<line class="st1" x1="231.8" y1="279.5" x2="231.8" y2="225.5"/>
<line class="st1" x1="224.8" y1="235.4" x2="224.8" y2="232.6"/>
<line class="st1" x1="231.8" y1="211.9" x2="231.8" y2="265.9"/>
<line class="st1" x1="224.8" y1="272.3" x2="221.9" y2="272.3"/>
<line class="st1" x1="239" y1="273.1" x2="239" y2="276"/>
<line class="st1" x1="239" y1="273.1" x2="241.9" y2="273.1"/>
<line class="st1" x1="239" y1="258.8" x2="239" y2="256"/>
<line class="st1" x1="241.9" y1="258.8" x2="239" y2="258.8"/>
<line class="st1" x1="241.9" y1="312.8" x2="239" y2="312.8"/>
<line class="st1" x1="285.8" y1="265.9" x2="231.8" y2="265.9"/>
<line class="st1" x1="231.8" y1="265.9" x2="231.8" y2="319.9"/>
<line class="st1" x1="278.8" y1="312.8" x2="275.9" y2="312.8"/>
<line class="st1" x1="231.8" y1="319.9" x2="285.8" y2="319.9"/>
<line class="st1" x1="278.8" y1="310" x2="278.8" y2="312.8"/>
<line class="st1" x1="239" y1="312.8" x2="239" y2="310"/>
<line class="st1" x1="231.8" y1="265.9" x2="285.8" y2="265.9"/>
<line class="st1" x1="224.8" y1="218.3" x2="221.9" y2="218.3"/>
<line class="st1" x1="285.8" y1="211.9" x2="231.8" y2="211.9"/>
<line class="st1" x1="239" y1="219.1" x2="239" y2="222"/>
<line class="st1" x1="239" y1="219.1" x2="241.9" y2="219.1"/>
<line class="st1" x1="587" y1="412.6" x2="574.6" y2="392.4"/>
</svg>
