0
SECTION
2
HEADER
9
$INSUNITS
70
4
9
$ACADVER
1
AC1014
9
$HANDSEED
5
FFFF
0
ENDSEC
0
SECTION
2
TABLES
0
TABLE
2
VPORT
5
8
100
AcDbSymbolTable
0
ENDTAB
0
TABLE
2
LTYPE
5
5
100
AcDbSymbolTable
0
LTYPE
5
14
100
AcDbSymbolTableRecord
100
AcDbLinetypeTableRecord
2
BYBLOCK
70
0
0
LTYPE
5
15
100
AcDbSymbolTableRecord
100
AcDbLinetypeTableRecord
2
BYLAYER
70
0
0
ENDTAB
0
TABLE
2
LAYER
5
2
100
AcDbSymbolTable
70
2
0
LAYER
5
50
100
AcDbSymbolTableRecord
100
AcDbLayerTableRecord
2
0
70
0
6
CONTINUOUS
0
ENDTAB
0
TABLE
2
STYLE
5
3
100
AcDbSymbolTable
70
1
0
STYLE
5
11
100
AcDbSymbolTableRecord
100
AcDbTextStyleTableRecord
2
STANDARD
70
0
0
ENDTAB
0
TABLE
2
VIEW
5
6
100
AcDbSymbolTable
70
0
0
ENDTAB
0
TABLE
2
UCS
5
7
100
AcDbSymbolTable
70
0
0
ENDTAB
0
TABLE
2
APPID
5
9
100
AcDbSymbolTable
70
2
0
APPID
5
12
100
AcDbSymbolTableRecord
100
AcDbRegAppTableRecord
2
ACAD
70
0
0
ENDTAB
0
TABLE
2
DIMSTYLE
5
A
100
AcDbSymbolTable
70
1
0
ENDTAB
0
TABLE
2
BLOCK_RECORD
5
1
100
AcDbSymbolTable
70
1
0
BLOCK_RECORD
5
1F
100
AcDbSymbolTableRecord
100
AcDbBlockTableRecord
2
*MODEL_SPACE
0
BLOCK_RECORD
5
1B
100
AcDbSymbolTableRecord
100
AcDbBlockTableRecord
2
*PAPER_SPACE
0
ENDTAB
0
ENDSEC
0
SECTION
2
BLOCKS
0
BLOCK
5
20
100
AcDbEntity
100
AcDbBlockBegin
2
*MODEL_SPACE
0
ENDBLK
5
21
100
AcDbEntity
100
AcDbBlockEnd
0
BLOCK
5
1C
100
AcDbEntity
100
AcDbBlockBegin
2
*PAPER_SPACE
0
ENDBLK
5
1D
100
AcDbEntity
100
AcDbBlockEnd
0
ENDSEC
0
SECTION
2
ENTITIES
0
LWPOLYLINE
5
100
100
AcDbEntity
8
0
100
AcDbPolyline
90
55
70
1
43
0.0
10
147.59873827607342
20
-99.391654942740104
10
151.98787567340926
20
-103.78079234007598
42
-0.058779746736655106
10
152.06044089739615
20
-103.87276796726361
10
155.28416685231784
20
-109.12432153899083
42
-0.050050236563961639
10
155.32764617178071
20
-109.21420835813171
10
160.03351738906866
20
-122.08540206595697
42
-0.41421356237309148
10
159.73561039929035
20
-122.72669094426475
10
147.28682908612799
20
-127.27812284729843
42
-0.41417581685744231
10
146.64556233804183
20
-126.98027637457528
10
141.8810591994372
20
-113.95392204881585
42
0.10911849733565029
10
141.76503678620912
20
-113.77212011954245
10
131.81541666666669
20
-103.82250000000001
10
131.84801671841146
20
-103.85509319661678
42
0.10928545745025775
10
131.66589263492793
20
-103.73897668467129
10
118.56343565013728
20
-98.958001256295972
42
0.087693541845183853
10
118.39204352143527
20
-98.927708333333328
10
104.69291666666669
20
-98.927708333333328
42
-0.41421356237309503
10
104.19291666666668
20
-98.427708333333328
10
104.19291666666668
20
-92.283958333333359
42
0.41421356237309503
10
103.69291666666668
20
-91.783958333333345
10
75.670833333333348
20
-91.783958333333345
10
75.755419101660408
20
-91.784447572466149
42
-0.41356737582877973
10
75.258314223024371
20
-91.282667362477326
10
75.28028044168417
20
-85.141996906607019
42
0.41526167510206186
10
74.780283640688765
20
-84.640208333333334
10
61.830416666666679
20
-84.640208333333334
42
-0.41421356237309503
10
61.330416666666679
20
-84.14020833333332
10
61.330416666666679
20
-74.451041666666683
42
0.41421356237309503
10
60.830416666666679
20
-73.951041666666683
10
47.542916666666677
20
-73.951041666666683
42
-0.41421356237309503
10
47.042916666666684
20
-73.451041666666683
10
47.042916666666684
20
-59.663541666666681
10
47.042916666666684
20
-45.876041666666666
42
-0.41421356237309503
10
47.542916666666677
20
-45.376041666666673
10
60.830416666666679
20
-45.376041666666673
42
0.41421356237309503
10
61.330416666666679
20
-44.876041666666673
10
61.330416666666679
20
-42.277708333333337
42
-0.41421356237309503
10
61.830416666666679
20
-41.777708333333337
10
75.117916666666687
20
-41.777708333333337
42
0.41421356237309503
10
75.617916666666687
20
-41.277708333333337
10
75.617916666666687
20
-36.959583333333342
42
-0.41421356237309503
10
76.117916666666687
20
-36.459583333333342
10
89.405416666666682
20
-36.459583333333342
42
0.41421356237309503
10
89.905416666666696
20
-35.959583333333349
10
89.905416666666696
20
-35.133958333333332
42
-0.41421356237309503
10
90.405416666666696
20
-34.633958333333332
10
117.9804166666667
20
-34.633958333333325
42
-0.41421356237309503
10
118.48041666666671
20
-35.133958333333332
10
118.48041666666671
20
-41.277708333333337
42
0.41421356237309503
10
118.98041666666671
20
-41.777708333333337
10
132.55975742499265
20
-41.777708333333337
42
-0.19984571351505759
10
132.91457801979357
20
-41.925426705221511
10
147.30711226146758
20
-56.421690923412122
42
-0.19797935449416459
10
147.45229166666667
20
-56.773972551523954
10
147.45229166666667
20
-99.038101552146841
42
0.19891236737965801
0
ENDSEC
0
SECTION
2
OBJECTS
0
DICTIONARY
5
C
100
AcDbDictionary
3
ACAD_GROUP
350
D
3
ACAD_MLINESTYLE
350
17
0
DICTIONARY
5
D
100
AcDbDictionary
0
DICTIONARY
5
1A
330
C
100
AcDbDictionary
0
DICTIONARY
5
17
100
AcDbDictionary
0
ENDSEC
0
EOF
