<?xml version="1.0" encoding="utf-8"?>
<!-- Generator: Adobe Illustrator 22.1.0, SVG Export Plug-In . SVG Version: 6.00 Build 0)  -->
<svg version="1.1" id="Layer_1" xmlns="http://www.w3.org/2000/svg" xmlns:xlink="http://www.w3.org/1999/xlink" x="0px" y="0px"
	 viewBox="0 0 792 612" style="enable-background:new 0 0 792 612;" xml:space="preserve">
<style type="text/css">
	.st0{fill:#FFFFFF;}
	.st1{fill:none;stroke:#000000;stroke-width:0.72;stroke-linecap:round;stroke-linejoin:round;stroke-miterlimit:10;}
</style>
<rect class="st0" width="1584" height="1224"/>
<path class="st1" d="M287.8,346.8c-1,0-1.8-0.8-1.8-1.9"/>
<path class="st1" d="M284.2,319.9c0.5,0,1,0.2,1.3,0.6c0.4,0.4,0.6,0.8,0.6,1.3"/>
<line class="st1" x1="286" y1="345" x2="286.1" y2="321.8"/>
<line class="st1" x1="391.9" y1="346.9" x2="287.9" y2="346.9"/>
<line class="st1" x1="179.6" y1="171.5" x2="229.9" y2="171.5"/>
<path class="st1" d="M179.6,279.6c-1.1,0-1.9-0.8-1.9-1.9"/>
<line class="st1" x1="229.9" y1="279.5" x2="179.6" y2="279.5"/>
<path class="st1" d="M177.7,173.4c0-1.1,0.8-1.9,1.9-1.9"/>
<line class="st1" x1="177.8" y1="277.7" x2="177.8" y2="173.4"/>
<line class="st1" x1="233.6" y1="157.9" x2="283.9" y2="157.9"/>
<path class="st1" d="M231.7,169.7c0,0.5-0.1,1-0.5,1.3c-0.4,0.4-0.8,0.5-1.3,0.5"/>
<path class="st1" d="M285.7,156c0,1-0.8,1.8-1.8,1.8"/>
<line class="st1" x1="231.8" y1="169.7" x2="231.8" y2="159.8"/>
<path class="st1" d="M231.7,159.8c0-0.6,0.1-1.1,0.5-1.4c0.4-0.4,0.8-0.5,1.4-0.5"/>
<path class="st1" d="M339.7,132.8c0-0.6,0.1-1.1,0.5-1.4c0.4-0.4,0.8-0.5,1.4-0.5"/>
<line class="st1" x1="285.8" y1="156" x2="285.8" y2="139.7"/>
<path class="st1" d="M285.7,139.7c0-0.6,0.1-1.1,0.5-1.4c0.4-0.4,0.8-0.5,1.4-0.5"/>
<path class="st1" d="M339.7,136c0,0.5-0.1,1-0.5,1.3c-0.4,0.4-0.8,0.5-1.3,0.5"/>
<line class="st1" x1="341.6" y1="130.9" x2="445.9" y2="130.9"/>
<line class="st1" x1="287.6" y1="137.9" x2="337.9" y2="137.9"/>
<line class="st1" x1="339.8" y1="136" x2="339.8" y2="132.8"/>
<path class="st1" d="M233.6,319.9c-1.1,0-1.9-0.8-1.9-1.9"/>
<line class="st1" x1="231.8" y1="318" x2="231.8" y2="281.4"/>
<path class="st1" d="M229.9,279.5c0.5,0,1,0.2,1.3,0.6c0.4,0.4,0.6,0.8,0.6,1.3"/>
<line class="st1" x1="284.2" y1="319.9" x2="233.6" y2="319.9"/>
<line class="st1" x1="449.6" y1="157.9" x2="501" y2="157.9"/>
<path class="st1" d="M445.9,130.9c1.1,0,1.9,0.8,1.9,1.9"/>
<path class="st1" d="M449.6,157.9c-1.1,0-1.9-0.8-1.9-1.9"/>
<path class="st1" d="M501,157.9c0.5,0,1,0.2,1.3,0.6"/>
<line class="st1" x1="447.8" y1="132.8" x2="447.8" y2="156"/>
<path class="st1" d="M556.7,213.2c0.4,0.4,0.6,0.8,0.6,1.3"/>
<line class="st1" x1="502.3" y1="158.5" x2="556.8" y2="213.2"/>
<path class="st1" d="M604.8,461.4c0.2,0.5,0.2,1,0,1.4s-0.6,0.8-1.1,1"/>
<path class="st1" d="M535.8,430.1c0.2,0.1,0.4,0.4,0.5,0.7"/>
<line class="st1" x1="554.3" y1="480" x2="536.3" y2="430.7"/>
<line class="st1" x1="603.7" y1="463.9" x2="556.7" y2="481.1"/>
<path class="st1" d="M556.6,481.1c-1,0.4-2-0.1-2.4-1.2"/>
<line class="st1" x1="587" y1="412.8" x2="604.8" y2="461.4"/>
<path class="st1" d="M395.6,373.9c-1.1,0-1.9-0.8-1.9-1.9"/>
<path class="st1" d="M391.9,346.9c1.1,0,1.9,0.8,1.9,1.9"/>
<path class="st1" d="M447.5,373.9c0.2,0,0.5,0.1,0.6,0.1"/>
<line class="st1" x1="447.5" y1="373.9" x2="395.6" y2="373.9"/>
<line class="st1" x1="393.8" y1="372" x2="393.8" y2="348.8"/>
<line class="st1" x1="497.6" y1="392.2" x2="448.1" y2="374"/>
<path class="st1" d="M497.5,392c0.2,0,0.5,0.2,0.7,0.4"/>
<path class="st1" d="M557.9,375.7c-0.4-0.4-0.6-0.8-0.6-1.3"/>
<line class="st1" x1="535.8" y1="430.1" x2="498.4" y2="392.5"/>
<path class="st1" d="M574.4,392.3c0.1,0.1,0.2,0.2,0.2,0.4"/>
<path class="st1" d="M586.8,412.4c0.1,0.1,0.1,0.2,0.2,0.4"/>
<line class="st1" x1="557.9" y1="375.7" x2="574.4" y2="392.3"/>
<line class="st1" x1="557.3" y1="214.6" x2="557.3" y2="374.4"/>
<line class="st1" x1="574.7" y1="392.6" x2="586.9" y2="412.4"/>
</svg>
