<?xml version="1.0" encoding="utf-8"?>
<!-- Generator: Adobe Illustrator 22.1.0, SVG Export Plug-In . SVG Version: 6.00 Build 0)  -->
<svg version="1.1" id="Layer_1" xmlns:svg="http://www.w3.org/2000/svg"
	 xmlns="http://www.w3.org/2000/svg" xmlns:xlink="http://www.w3.org/1999/xlink" x="0px" y="0px" viewBox="0 0 1008 612"
	 style="enable-background:new 0 0 1008 612;" xml:space="preserve">
<style type="text/css">
	.st0{stroke:#000000;stroke-linecap:round;stroke-linejoin:round;}
</style>
<title>SVG Picture created as keyboard-B_Mask.svg date 2022/12/03 00:00:29</title>
<desc>Picture generated by PCBNEW</desc>
<g transform="translate(0 0) scale(1 1)">
</g>
<g>
	<g>
		<path class="st0" d="M360.5,111.7v4.3H359v-4.3H360.5z"/>
		<path class="st0" d="M363.5,111.7v4.3h-2v-4.3H363.5z"/>
		<path class="st0" d="M365.6,111.7v4.3h-1.3v-4.3H365.6z"/>
		<path class="st0" d="M368.2,111.7v4.3h-1.7v-4.3H368.2z"/>
	</g>
	<g>
		<circle class="st0" cx="429.4" cy="246.5" r="3.2"/>
	</g>
	<g>
		<circle class="st0" cx="422.2" cy="246.5" r="3.2"/>
	</g>
	<g>
		<circle class="st0" cx="415" cy="246.5" r="3.2"/>
	</g>
	<g>
		<circle class="st0" cx="407.8" cy="246.5" r="3.2"/>
	</g>
	<g>
		<circle class="st0" cx="400.6" cy="246.5" r="3.2"/>
	</g>
	<g>
		<circle class="st0" cx="400.6" cy="235.2" r="3.2"/>
	</g>
	<g>
		<circle class="st0" cx="407.8" cy="235.2" r="3.2"/>
	</g>
	<g>
		<circle class="st0" cx="415" cy="235.2" r="3.2"/>
	</g>
	<g>
		<circle class="st0" cx="422.2" cy="235.2" r="3.2"/>
	</g>
	<g>
		<circle class="st0" cx="429.4" cy="235.2" r="3.2"/>
	</g>
	<g>
		<circle class="st0" cx="389.4" cy="147.6" r="3.2"/>
	</g>
	<g>
		<circle class="st0" cx="389.4" cy="154.8" r="3.2"/>
	</g>
	<g>
		<circle class="st0" cx="389.4" cy="162" r="3.2"/>
	</g>
	<g>
		<circle class="st0" cx="389.4" cy="169.2" r="3.2"/>
	</g>
	<g>
		<circle class="st0" cx="389.4" cy="176.4" r="3.2"/>
	</g>
	<g>
		<circle class="st0" cx="389.4" cy="183.6" r="3.2"/>
	</g>
	<g>
		<circle class="st0" cx="389.4" cy="190.8" r="3.2"/>
	</g>
	<g>
		<circle class="st0" cx="389.4" cy="198" r="3.2"/>
	</g>
	<g>
		<circle class="st0" cx="389.4" cy="205.2" r="3.2"/>
	</g>
	<g>
		<circle class="st0" cx="389.4" cy="212.4" r="3.2"/>
	</g>
	<g>
		<circle class="st0" cx="389.4" cy="219.6" r="3.2"/>
	</g>
	<g>
		<circle class="st0" cx="389.4" cy="226.8" r="3.2"/>
	</g>
	<g>
		<circle class="st0" cx="432.6" cy="226.8" r="3.2"/>
	</g>
	<g>
		<circle class="st0" cx="432.6" cy="219.6" r="3.2"/>
	</g>
	<g>
		<circle class="st0" cx="432.6" cy="212.4" r="3.2"/>
	</g>
	<g>
		<circle class="st0" cx="432.6" cy="205.2" r="3.2"/>
	</g>
	<g>
		<circle class="st0" cx="432.6" cy="198" r="3.2"/>
	</g>
	<g>
		<circle class="st0" cx="432.6" cy="190.8" r="3.2"/>
	</g>
	<g>
		<circle class="st0" cx="432.6" cy="183.6" r="3.2"/>
	</g>
	<g>
		<circle class="st0" cx="432.6" cy="176.4" r="3.2"/>
	</g>
	<g>
		<circle class="st0" cx="432.6" cy="169.2" r="3.2"/>
	</g>
	<g>
		<circle class="st0" cx="432.6" cy="162" r="3.2"/>
	</g>
	<g>
		<circle class="st0" cx="432.6" cy="154.8" r="3.2"/>
	</g>
	<g>
		<circle class="st0" cx="432.6" cy="147.6" r="3.2"/>
	</g>
	<g>
		<circle class="st0" cx="411.1" cy="212.4" r="3.2"/>
	</g>
	<g>
		<path class="st0" d="M226.7,279.5v5.7H221v-5.7H226.7z"/>
		<circle class="st0" cx="223.9" cy="268.1" r="2.8"/>
	</g>
	<g>
		<circle class="st0" cx="223.9" cy="275.2" r="2.8"/>
	</g>
	<g>
		<path class="st0" d="M207.2,256.5v5.7h-9.1v-5.7H207.2z"/>
		<path class="st0" d="M207.2,288.3v5.7h-9.1v-5.7H207.2z"/>
		<circle class="st0" cx="182.8" cy="268.1" r="2.8"/>
	</g>
	<g>
		<circle class="st0" cx="182.8" cy="282.3" r="2.8"/>
	</g>
	<g>
		<path class="st0" d="M474.7,420.9l-1.5-4l1.5-0.5l1.5,4L474.7,420.9z"/>
		<path class="st0" d="M471.9,421.9l-1.5-4l1.9-0.7l1.5,4L471.9,421.9z"/>
		<path class="st0" d="M469.9,422.7l-1.5-4l1.2-0.4l1.5,4L469.9,422.7z"/>
		<path class="st0" d="M467.5,423.5l-1.5-4l1.6-0.6l1.5,4L467.5,423.5z"/>
	</g>
	<g>
		<path class="st0" d="M333.9,250.3h2.3v5.4h-2.3V250.3z"/>
		<path class="st0" d="M339.3,250.3h2.3v5.4h-2.3V250.3z"/>
		<path class="st0" d="M336.6,258.8h2.3v5.4h-2.3V258.8z"/>
	</g>
	<g>
		<path class="st0" d="M191.1,157.7h-5.7v-6.5h5.7V157.7z"/>
		<path class="st0" d="M198.3,193.1h-5.7v-6.5h5.7V193.1z"/>
	</g>
	<g>
		<path class="st0" d="M443.3,326.6l-3,3l-1.1-1.1l3-3L443.3,326.6z"/>
		<path class="st0" d="M445.4,328.7l-3,3l-1.4-1.4l3-3L445.4,328.7z"/>
		<path class="st0" d="M446.9,330.2l-3,3l-0.9-0.9l3-3L446.9,330.2z"/>
		<path class="st0" d="M448.7,332l-3,3l-1.2-1.2l3-3L448.7,332z"/>
	</g>
	<g>
		<path class="st0" d="M268.2,230.1h5.7v6.5h-5.7V230.1z"/>
		<path class="st0" d="M261,194.7h5.7v6.5H261V194.7z"/>
	</g>
	<g>
		<path class="st0" d="M177.9,101.6h4.3v1.6h-4.3V101.6z"/>
		<path class="st0" d="M177.9,98.6h4.3v2h-4.3V98.6z"/>
		<path class="st0" d="M177.9,96.5h4.3v1.3h-4.3V96.5z"/>
		<path class="st0" d="M177.9,93.9h4.3v1.7h-4.3V93.9z"/>
	</g>
	<g>
		<path class="st0" d="M370.4,332.2l0.1-0.2l0.2-0.2l0.3-0.1l0.3,0l1.6,0.6l0.2,0.1l0.2,0.2l0.1,0.3l0,0.3l-0.5,1.3l-0.1,0.2
			l-0.2,0.2l-0.3,0.1l-0.3,0l-1.6-0.6l-0.2-0.1l-0.2-0.2l-0.1-0.3l0-0.3L370.4,332.2z"/>
		<path class="st0" d="M375,333.9l0.1-0.2l0.2-0.2l0.3-0.1l0.3,0l1.6,0.6l0.2,0.1l0.2,0.2l0.1,0.3l0,0.3l-0.5,1.3l-0.1,0.2l-0.2,0.2
			l-0.3,0.1l-0.3,0l-1.6-0.6l-0.2-0.1l-0.2-0.2l-0.1-0.3l0-0.3L375,333.9z"/>
	</g>
	<g>
		<path class="st0" d="M442.4,411.9l0.3,0l0.3,0.1l0.2,0.2l0.1,0.2l0.6,1.6l0,0.3l-0.1,0.3l-0.2,0.2l-0.2,0.1l-1.3,0.5l-0.3,0
			l-0.3-0.1l-0.2-0.2l-0.1-0.2l-0.6-1.6l0-0.3l0.1-0.3l0.2-0.2l0.2-0.1L442.4,411.9z"/>
		<path class="st0" d="M444.1,416.5l0.3,0l0.3,0.1l0.2,0.2l0.1,0.2l0.6,1.6l0,0.3l-0.1,0.3l-0.2,0.2l-0.2,0.1l-1.3,0.5l-0.3,0
			l-0.3-0.1l-0.2-0.2l-0.1-0.2l-0.6-1.6l0-0.3l0.1-0.3l0.2-0.2l0.2-0.1L444.1,416.5z"/>
	</g>
	<g>
		<path class="st0" d="M209.8,93l0.1-0.3l0.1-0.2l0.2-0.1l0.3-0.1h1.7l0.3,0.1l0.2,0.1l0.1,0.2l0.1,0.3v1.3l-0.1,0.3l-0.1,0.2
			l-0.2,0.1l-0.3,0.1h-1.7l-0.3-0.1l-0.2-0.1l-0.1-0.2l-0.1-0.3V93z"/>
		<path class="st0" d="M214.7,93l0.1-0.3l0.1-0.2l0.2-0.1l0.3-0.1h1.7l0.3,0.1l0.2,0.1l0.1,0.2l0.1,0.3v1.3l-0.1,0.3l-0.1,0.2
			l-0.2,0.1L217,95h-1.7l-0.3-0.1l-0.2-0.1l-0.1-0.2l-0.1-0.3V93z"/>
	</g>
	<g>
		<path class="st0" d="M366.3,333.6l1.5-4l1.5,0.5l-1.5,4L366.3,333.6z"/>
		<path class="st0" d="M363.5,332.6l1.5-4l1.9,0.7l-1.5,4L363.5,332.6z"/>
		<path class="st0" d="M361.5,331.9l1.5-4l1.2,0.4l-1.5,4L361.5,331.9z"/>
		<path class="st0" d="M359.1,331l1.5-4l1.6,0.6l-1.5,4L359.1,331z"/>
	</g>
	<g>
		<path class="st0" d="M134,279.9l0.1-0.3l0.1-0.2l0.2-0.1l0.3-0.1h1.7l0.3,0.1l0.2,0.1l0.1,0.2l0.1,0.3v1.3l-0.1,0.3l-0.1,0.2
			l-0.2,0.1l-0.3,0.1h-1.7l-0.3-0.1l-0.2-0.1l-0.1-0.2l-0.1-0.3V279.9z"/>
		<path class="st0" d="M138.9,279.9l0.1-0.3l0.1-0.2l0.2-0.1l0.3-0.1h1.7l0.3,0.1l0.2,0.1l0.1,0.2l0.1,0.3v1.3l-0.1,0.3l-0.1,0.2
			l-0.2,0.1l-0.3,0.1h-1.7l-0.3-0.1l-0.2-0.1l-0.1-0.2l-0.1-0.3V279.9z"/>
	</g>
	<g>
		<path class="st0" d="M243.3,233.9h-3.4v-3.4h3.4V233.9z"/>
		<path class="st0" d="M243.3,223.7h-3.4v-3.4h3.4V223.7z"/>
	</g>
	<g>
		<path class="st0" d="M231.4,160.2H228v-3.4h3.4V160.2z"/>
		<path class="st0" d="M231.4,150H228v-3.4h3.4V150z"/>
	</g>
	<g>
		<path class="st0" d="M437.8,330.6l0.2-0.1l0.3-0.1l0.3,0.1l0.2,0.1l1.2,1.2l0.1,0.2l0.1,0.3l-0.1,0.3l-0.1,0.2l-1,1l-0.2,0.1
			l-0.3,0.1l-0.3-0.1l-0.2-0.1l-1.2-1.2l-0.1-0.2l-0.1-0.3l0.1-0.3l0.1-0.2L437.8,330.6z"/>
		<path class="st0" d="M441.2,334.1l0.2-0.1l0.3-0.1l0.3,0.1l0.2,0.1l1.2,1.2l0.1,0.2l0.1,0.3l-0.1,0.3l-0.1,0.2l-1,1l-0.2,0.1
			l-0.3,0.1l-0.3-0.1l-0.2-0.1l-1.2-1.2l-0.1-0.2l-0.1-0.3l0.1-0.3l0.1-0.2L441.2,334.1z"/>
	</g>
	<g>
		<path class="st0" d="M160.2,162.6h5.7v6.5h-5.7V162.6z"/>
		<path class="st0" d="M153,127.2h5.7v6.5H153V127.2z"/>
	</g>
	<g>
		<path class="st0" d="M123.7,260.8h4.3v1.6h-4.3V260.8z"/>
		<path class="st0" d="M123.7,257.9h4.3v2h-4.3V257.9z"/>
		<path class="st0" d="M123.7,255.7h4.3v1.3h-4.3V255.7z"/>
		<path class="st0" d="M123.7,253.2h4.3v1.7h-4.3V253.2z"/>
	</g>
	<g>
		<path class="st0" d="M131.8,149l0.3,0.1l0.2,0.1l0.1,0.2l0.1,0.3v1.7l-0.1,0.3l-0.1,0.2L132,152l-0.3,0.1h-1.3l-0.3-0.1l-0.2-0.1
			l-0.1-0.2l-0.1-0.3v-1.7l0.1-0.3l0.1-0.2l0.2-0.1l0.3-0.1H131.8z"/>
		<path class="st0" d="M131.8,153.9l0.3,0.1l0.2,0.1l0.1,0.2l0.1,0.3v1.7l-0.1,0.3l-0.1,0.2l-0.2,0.1l-0.3,0.1h-1.3l-0.3-0.1
			l-0.2-0.1l-0.1-0.2l-0.1-0.3v-1.7l0.1-0.3l0.1-0.2l0.2-0.1l0.3-0.1H131.8z"/>
	</g>
	<g>
		<path class="st0" d="M335.4,93.3h-4.3v-1.6h4.3V93.3z"/>
		<path class="st0" d="M335.4,96.3h-4.3v-2h4.3V96.3z"/>
		<path class="st0" d="M335.4,98.4h-4.3v-1.3h4.3V98.4z"/>
		<path class="st0" d="M335.4,101h-4.3v-1.7h4.3V101z"/>
	</g>
	<g>
		<path class="st0" d="M376.2,149.1h5.7v6.5h-5.7V149.1z"/>
		<path class="st0" d="M369,113.7h5.7v6.5H369V113.7z"/>
	</g>
	<g>
		<path class="st0" d="M243.3,215.5h-3.4v-3.4h3.4V215.5z"/>
		<path class="st0" d="M243.3,205.3h-3.4v-3.4h3.4V205.3z"/>
	</g>
	<g>
		<path class="st0" d="M144.2,125.2v4.3h-1.6v-4.3H144.2z"/>
		<path class="st0" d="M147.2,125.2v4.3h-2v-4.3H147.2z"/>
		<path class="st0" d="M149.3,125.2v4.3h-1.3v-4.3H149.3z"/>
		<path class="st0" d="M151.9,125.2v4.3h-1.7v-4.3H151.9z"/>
	</g>
	<g>
		<path class="st0" d="M243.3,141.8h-3.4v-3.4h3.4V141.8z"/>
		<path class="st0" d="M243.3,131.6h-3.4v-3.4h3.4V131.6z"/>
	</g>
	<g>
		<path class="st0" d="M243.3,178.6h-3.4v-3.4h3.4V178.6z"/>
		<path class="st0" d="M243.3,168.4h-3.4V165h3.4V168.4z"/>
	</g>
	<g>
		<path class="st0" d="M231.4,197H228v-3.4h3.4V197z"/>
		<path class="st0" d="M231.4,186.8H228v-3.4h3.4V186.8z"/>
	</g>
	<g>
		<path class="st0" d="M323,251.3l0.3,0.1l0.2,0.2l0.2,0.2l0.1,0.3v2.3l-0.1,0.3l-0.2,0.2l-0.2,0.2L323,255h-3.5l-0.3-0.1l-0.2-0.2
			l-0.2-0.2l-0.1-0.3V252l0.1-0.3l0.2-0.2l0.2-0.2l0.3-0.1H323z"/>
		<path class="st0" d="M323,260.1l0.3,0.1l0.2,0.2l0.2,0.2l0.1,0.3v2.3l-0.1,0.3l-0.2,0.2l-0.2,0.2l-0.3,0.1h-3.5l-0.3-0.1l-0.2-0.2
			l-0.2-0.2l-0.1-0.3v-2.3l0.1-0.3l0.2-0.2l0.2-0.2l0.3-0.1H323z"/>
	</g>
	<g>
		<path class="st0" d="M356.2,114.4l-0.1,0.3l-0.1,0.2l-0.2,0.1l-0.3,0.1h-1.7l-0.3-0.1l-0.2-0.1l-0.1-0.2l-0.1-0.3V113l0.1-0.3
			l0.1-0.2l0.2-0.1l0.3-0.1h1.7l0.3,0.1l0.2,0.1l0.1,0.2l0.1,0.3V114.4z"/>
		<path class="st0" d="M351.3,114.4l-0.1,0.3l-0.1,0.2l-0.2,0.1l-0.3,0.1H349l-0.3-0.1l-0.2-0.1l-0.1-0.2l-0.1-0.3V113l0.1-0.3
			l0.1-0.2l0.2-0.1l0.3-0.1h1.7l0.3,0.1l0.2,0.1l0.1,0.2l0.1,0.3V114.4z"/>
	</g>
	<g>
		<path class="st0" d="M234.6,277.8v-1.1h4.3v1.1H234.6z"/>
		<path class="st0" d="M234.6,276v-1.1h4.3v1.1H234.6z"/>
		<path class="st0" d="M234.6,274.1V273h4.3v1.1H234.6z"/>
		<path class="st0" d="M242.2,274.1V273h4.3v1.1H242.2z"/>
		<path class="st0" d="M242.2,276v-1.1h4.3v1.1H242.2z"/>
		<path class="st0" d="M242.2,277.8v-1.1h4.3v1.1H242.2z"/>
	</g>
	<g>
		<path class="st0" d="M268.2,122.1h5.7v6.5h-5.7V122.1z"/>
		<path class="st0" d="M261,86.7h5.7v6.5H261V86.7z"/>
	</g>
	<g>
		<path class="st0" d="M219.5,160.2h-3.4v-3.4h3.4V160.2z"/>
		<path class="st0" d="M219.5,150h-3.4v-3.4h3.4V150z"/>
	</g>
	<g>
		<path class="st0" d="M282.5,92.9v-2.3h2.8v2.3H282.5z"/>
		<path class="st0" d="M303.2,86.6v-2.3h2.8v2.3H303.2z"/>
		<path class="st0" d="M303.2,92.9v-2.3h2.8v2.3H303.2z"/>
		<path class="st0" d="M282.5,86.6v-2.3h2.8v2.3H282.5z"/>
		<path class="st0" d="M286.9,95.7v-4.3h2v4.3H286.9z"/>
		<path class="st0" d="M295.4,95.7v-4.3h2v4.3H295.4z"/>
		<path class="st0" d="M299.6,95.7v-4.3h2v4.3H299.6z"/>
	</g>
	<g>
		<path class="st0" d="M318.2,323.1v-4.3h1.6v4.3H318.2z"/>
		<path class="st0" d="M315.3,323.1v-4.3h2v4.3H315.3z"/>
		<path class="st0" d="M313.1,323.1v-4.3h1.3v4.3H313.1z"/>
		<path class="st0" d="M310.6,323.1v-4.3h1.7v4.3H310.6z"/>
	</g>
	<g>
		<path class="st0" d="M441.1,253.7h-4.3v-1.6h4.3V253.7z"/>
		<path class="st0" d="M441.1,256.7h-4.3v-2h4.3V256.7z"/>
		<path class="st0" d="M441.1,258.8h-4.3v-1.3h4.3V258.8z"/>
		<path class="st0" d="M441.1,261.4h-4.3v-1.7h4.3V261.4z"/>
	</g>
	<g>
		<path class="st0" d="M376.2,203.1h5.7v6.5h-5.7V203.1z"/>
		<path class="st0" d="M369,167.7h5.7v6.5H369V167.7z"/>
	</g>
	<g>
		<path class="st0" d="M131.8,254l0.3,0.1l0.2,0.1l0.1,0.2l0.1,0.3v1.7l-0.1,0.3l-0.1,0.2L132,257l-0.3,0.1h-1.3l-0.3-0.1l-0.2-0.1
			l-0.1-0.2l-0.1-0.3v-1.7l0.1-0.3l0.1-0.2l0.2-0.1l0.3-0.1H131.8z"/>
		<path class="st0" d="M131.8,258.9l0.3,0.1l0.2,0.1l0.1,0.2l0.1,0.3v1.7l-0.1,0.3l-0.1,0.2l-0.2,0.1l-0.3,0.1h-1.3l-0.3-0.1
			l-0.2-0.1l-0.1-0.2l-0.1-0.3v-1.7l0.1-0.3l0.1-0.2l0.2-0.1l0.3-0.1H131.8z"/>
	</g>
	<g>
		<path class="st0" d="M385.6,120.8h-4.3v-1.6h4.3V120.8z"/>
		<path class="st0" d="M385.6,123.8h-4.3v-2h4.3V123.8z"/>
		<path class="st0" d="M385.6,125.9h-4.3v-1.3h4.3V125.9z"/>
		<path class="st0" d="M385.6,128.5h-4.3v-1.7h4.3V128.5z"/>
	</g>
	<g>
		<path class="st0" d="M268.2,284.1h5.7v6.5h-5.7V284.1z"/>
		<path class="st0" d="M261,248.7h5.7v6.5H261V248.7z"/>
	</g>
	<g>
		<path class="st0" d="M191.1,211.7h-5.7v-6.5h5.7V211.7z"/>
		<path class="st0" d="M198.3,247.1h-5.7v-6.5h5.7V247.1z"/>
	</g>
	<g>
		<path class="st0" d="M476.5,389.1l0.3,0l0.3,0.1l0.2,0.2l0.1,0.2l0.6,1.6l0,0.3l-0.1,0.3l-0.2,0.2l-0.2,0.1l-1.3,0.5l-0.3,0
			l-0.3-0.1l-0.2-0.2l-0.1-0.2l-0.6-1.6l0-0.3l0.1-0.3l0.2-0.2l0.2-0.1L476.5,389.1z"/>
		<path class="st0" d="M478.2,393.7l0.3,0l0.3,0.1l0.2,0.2l0.1,0.2l0.6,1.6l0,0.3l-0.1,0.3l-0.2,0.2l-0.2,0.1L478,397l-0.3,0
			l-0.3-0.1l-0.2-0.2l-0.1-0.2l-0.6-1.6l0-0.3l0.1-0.3l0.2-0.2l0.2-0.1L478.2,393.7z"/>
	</g>
	<g>
		<path class="st0" d="M243.3,123.3h-3.4v-3.4h3.4V123.3z"/>
		<path class="st0" d="M243.3,113.1h-3.4v-3.4h3.4V113.1z"/>
	</g>
	<g>
		<path class="st0" d="M287.4,319l-0.3-0.1l-0.2-0.1l-0.1-0.2l-0.1-0.3v-1.7l0.1-0.3l0.1-0.2l0.2-0.1l0.3-0.1h1.3l0.3,0.1l0.2,0.1
			l0.1,0.2l0.1,0.3v1.7l-0.1,0.3l-0.1,0.2l-0.2,0.1l-0.3,0.1H287.4z"/>
		<path class="st0" d="M287.4,314.1l-0.3-0.1l-0.2-0.1l-0.1-0.2l-0.1-0.3v-1.7l0.1-0.3l0.1-0.2l0.2-0.1l0.3-0.1h1.3l0.3,0.1l0.2,0.1
			l0.1,0.2l0.1,0.3v1.7l-0.1,0.3l-0.1,0.2L289,314l-0.3,0.1H287.4z"/>
	</g>
	<g>
		<path class="st0" d="M451.5,335.3l0.1,0.2l0.1,0.3l-0.1,0.3l-0.1,0.2l-1.2,1.2l-0.2,0.1l-0.3,0.1l-0.3-0.1l-0.2-0.1l-1-1l-0.1-0.2
			l-0.1-0.3l0.1-0.3l0.1-0.2l1.2-1.2l0.2-0.1l0.3-0.1l0.3,0.1l0.2,0.1L451.5,335.3z"/>
		<path class="st0" d="M448,338.8l0.1,0.2l0.1,0.3l-0.1,0.3l-0.1,0.2l-1.2,1.2l-0.2,0.1l-0.3,0.1l-0.3-0.1l-0.2-0.1l-1-1l-0.1-0.2
			l-0.1-0.3l0.1-0.3l0.1-0.2l1.2-1.2l0.2-0.1l0.3-0.1l0.3,0.1l0.2,0.1L448,338.8z"/>
	</g>
	<g>
		<path class="st0" d="M151.3,282.8v-4.3h1.6v4.3H151.3z"/>
		<path class="st0" d="M148.4,282.8v-4.3h2v4.3H148.4z"/>
		<path class="st0" d="M146.2,282.8v-4.3h1.3v4.3H146.2z"/>
		<path class="st0" d="M143.7,282.8v-4.3h1.7v4.3H143.7z"/>
	</g>
	<g>
		<path class="st0" d="M219.5,215.5h-3.4v-3.4h3.4V215.5z"/>
		<path class="st0" d="M219.5,205.3h-3.4v-3.4h3.4V205.3z"/>
	</g>
	<g>
		<path class="st0" d="M196.7,281l0.1-0.3l0.2-0.2l0.2-0.2l0.3-0.1h2.3l0.3,0.1l0.2,0.2l0.2,0.2l0.1,0.3v3.5l-0.1,0.3l-0.2,0.2
			l-0.2,0.2l-0.3,0.1h-2.3l-0.3-0.1l-0.2-0.2l-0.2-0.2l-0.1-0.3V281z"/>
		<path class="st0" d="M205.5,281l0.1-0.3l0.2-0.2l0.2-0.2l0.3-0.1h2.3l0.3,0.1l0.2,0.2l0.2,0.2l0.1,0.3v3.5l-0.1,0.3L209,285
			l-0.2,0.2l-0.3,0.1h-2.3l-0.3-0.1l-0.2-0.2l-0.2-0.2l-0.1-0.3V281z"/>
	</g>
	<g>
		<path class="st0" d="M268.2,176.1h5.7v6.5h-5.7V176.1z"/>
		<path class="st0" d="M261,140.7h5.7v6.5H261V140.7z"/>
	</g>
	<g>
		<path class="st0" d="M328.5,92.2l0.3,0.1l0.2,0.1l0.1,0.2l0.1,0.3v1.7l-0.1,0.3l-0.1,0.2l-0.2,0.1l-0.3,0.1h-1.3l-0.3-0.1
			l-0.2-0.1l-0.1-0.2l-0.1-0.3v-1.7l0.1-0.3l0.1-0.2l0.2-0.1l0.3-0.1H328.5z"/>
		<path class="st0" d="M328.5,97.1l0.3,0.1l0.2,0.1l0.1,0.2l0.1,0.3v1.7l-0.1,0.3l-0.1,0.2l-0.2,0.1l-0.3,0.1h-1.3l-0.3-0.1
			l-0.2-0.1l-0.1-0.2l-0.1-0.3v-1.7l0.1-0.3l0.1-0.2l0.2-0.1l0.3-0.1H328.5z"/>
	</g>
	<g>
		<path class="st0" d="M186.9,288.1l0.1-0.3l0.1-0.2l0.2-0.1l0.3-0.1h1.7l0.3,0.1l0.2,0.1l0.1,0.2l0.1,0.3v1.3l-0.1,0.3l-0.1,0.2
			l-0.2,0.1l-0.3,0.1h-1.7l-0.3-0.1l-0.2-0.1l-0.1-0.2l-0.1-0.3V288.1z"/>
		<path class="st0" d="M191.8,288.1l0.1-0.3l0.1-0.2l0.2-0.1l0.3-0.1h1.7l0.3,0.1l0.2,0.1l0.1,0.2l0.1,0.3v1.3l-0.1,0.3l-0.1,0.2
			l-0.2,0.1l-0.3,0.1h-1.7l-0.3-0.1L192,290l-0.1-0.2l-0.1-0.3V288.1z"/>
	</g>
	<g>
		<path class="st0" d="M131.8,200.2l0.3,0.1l0.2,0.1l0.1,0.2l0.1,0.3v1.7l-0.1,0.3l-0.1,0.2l-0.2,0.1l-0.3,0.1h-1.3l-0.3-0.1
			l-0.2-0.1l-0.1-0.2l-0.1-0.3v-1.7l0.1-0.3l0.1-0.2l0.2-0.1l0.3-0.1H131.8z"/>
		<path class="st0" d="M131.8,205.1l0.3,0.1l0.2,0.1l0.1,0.2l0.1,0.3v1.7l-0.1,0.3l-0.1,0.2l-0.2,0.1l-0.3,0.1h-1.3l-0.3-0.1
			l-0.2-0.1l-0.1-0.2l-0.1-0.3v-1.7l0.1-0.3l0.1-0.2l0.2-0.1l0.3-0.1H131.8z"/>
	</g>
	<g>
		<path class="st0" d="M139.7,128.1l-0.1,0.3l-0.1,0.2l-0.2,0.1l-0.3,0.1h-1.7l-0.3-0.1l-0.2-0.1l-0.1-0.2l-0.1-0.3v-1.3l0.1-0.3
			l0.1-0.2l0.2-0.1l0.3-0.1h1.7l0.3,0.1l0.2,0.1l0.1,0.2l0.1,0.3V128.1z"/>
		<path class="st0" d="M134.8,128.1l-0.1,0.3l-0.1,0.2l-0.2,0.1l-0.3,0.1h-1.7l-0.3-0.1l-0.2-0.1l-0.1-0.2l-0.1-0.3v-1.3l0.1-0.3
			l0.1-0.2l0.2-0.1l0.3-0.1h1.7l0.3,0.1l0.2,0.1l0.1,0.2l0.1,0.3V128.1z"/>
	</g>
	<g>
		<path class="st0" d="M441.1,148.3h-4.3v-1.6h4.3V148.3z"/>
		<path class="st0" d="M441.1,151.3h-4.3v-2h4.3V151.3z"/>
		<path class="st0" d="M441.1,153.4h-4.3v-1.3h4.3V153.4z"/>
		<path class="st0" d="M441.1,156h-4.3v-1.7h4.3V156z"/>
	</g>
	<g>
		<path class="st0" d="M376.2,257.1h5.7v6.5h-5.7V257.1z"/>
		<path class="st0" d="M369,221.7h5.7v6.5H369V221.7z"/>
	</g>
	<g>
		<path class="st0" d="M259.3,296.3V292h1.6v4.3H259.3z"/>
		<path class="st0" d="M256.4,296.3V292h2v4.3H256.4z"/>
		<path class="st0" d="M254.2,296.3V292h1.3v4.3H254.2z"/>
		<path class="st0" d="M251.7,296.3V292h1.7v4.3H251.7z"/>
	</g>
	<g>
		<path class="st0" d="M385,116.7l-0.1,0.3l-0.1,0.2l-0.2,0.1l-0.3,0.1h-1.7l-0.3-0.1l-0.2-0.1l-0.1-0.2l-0.1-0.3v-1.3l0.1-0.3
			l0.1-0.2l0.2-0.1l0.3-0.1h1.7l0.3,0.1l0.2,0.1l0.1,0.2l0.1,0.3V116.7z"/>
		<path class="st0" d="M380.1,116.7l-0.1,0.3l-0.1,0.2l-0.2,0.1l-0.3,0.1h-1.7l-0.3-0.1l-0.2-0.1l-0.1-0.2l-0.1-0.3v-1.3l0.1-0.3
			l0.1-0.2l0.2-0.1l0.3-0.1h1.7l0.3,0.1l0.2,0.1l0.1,0.2l0.1,0.3V116.7z"/>
	</g>
	<g>
		<path class="st0" d="M219.5,123.3h-3.4v-3.4h3.4V123.3z"/>
		<path class="st0" d="M219.5,113.1h-3.4v-3.4h3.4V113.1z"/>
	</g>
	<g>
		<path class="st0" d="M330.2,251.3l0.3,0.1l0.2,0.2l0.2,0.2l0.1,0.3v2.3l-0.1,0.3l-0.2,0.2l-0.2,0.2l-0.3,0.1h-3.5l-0.3-0.1
			l-0.2-0.2l-0.2-0.2l-0.1-0.3V252l0.1-0.3l0.2-0.2l0.2-0.2l0.3-0.1H330.2z"/>
		<path class="st0" d="M330.2,260.1l0.3,0.1l0.2,0.2l0.2,0.2l0.1,0.3v2.3l-0.1,0.3l-0.2,0.2l-0.2,0.2l-0.3,0.1h-3.5l-0.3-0.1
			l-0.2-0.2l-0.2-0.2l-0.1-0.3v-2.3l0.1-0.3l0.2-0.2l0.2-0.2l0.3-0.1H330.2z"/>
	</g>
	<g>
		<path class="st0" d="M231.4,123.3H228v-3.4h3.4V123.3z"/>
		<path class="st0" d="M231.4,113.1H228v-3.4h3.4V113.1z"/>
	</g>
	<g>
		<path class="st0" d="M213.4,270l-0.3-0.1l-0.2-0.2l-0.2-0.2l-0.1-0.3V267l0.1-0.3l0.2-0.2l0.2-0.2l0.3-0.1h3.5l0.3,0.1l0.2,0.2
			l0.2,0.2l0.1,0.3v2.3l-0.1,0.3l-0.2,0.2l-0.2,0.2L217,270H213.4z"/>
		<path class="st0" d="M213.4,261.2l-0.3-0.1l-0.2-0.2l-0.2-0.2l-0.1-0.3v-2.3l0.1-0.3l0.2-0.2l0.2-0.2l0.3-0.1h3.5l0.3,0.1l0.2,0.2
			l0.2,0.2l0.1,0.3v2.3l-0.1,0.3l-0.2,0.2l-0.2,0.2l-0.3,0.1H213.4z"/>
	</g>
	<g>
		<path class="st0" d="M414.9,363.9l0.2-0.1l0.3-0.1l0.3,0.1l0.2,0.1l1.2,1.2l0.1,0.2l0.1,0.3l-0.1,0.3L417,366l-1,1l-0.2,0.1
			l-0.3,0.1l-0.3-0.1l-0.2-0.1l-1.2-1.2l-0.1-0.2l-0.1-0.3l0.1-0.3l0.1-0.2L414.9,363.9z"/>
		<path class="st0" d="M418.3,367.3l0.2-0.1l0.3-0.1l0.3,0.1l0.2,0.1l1.2,1.2l0.1,0.2l0.1,0.3l-0.1,0.3l-0.1,0.2l-1,1l-0.2,0.1
			l-0.3,0.1l-0.3-0.1l-0.2-0.1l-1.2-1.2l-0.1-0.2l-0.1-0.3l0.1-0.3l0.1-0.2L418.3,367.3z"/>
	</g>
	<g>
		<path class="st0" d="M286.1,99.4h4.8v4.8h-4.8V99.4z"/>
		<circle class="st0" cx="288.5" cy="110.3" r="2.4"/>
	</g>
	<g>
		<path class="st0" d="M476.8,417.3l0-0.3l0.1-0.3l0.2-0.2l0.2-0.1l1.6-0.6l0.3,0l0.3,0.1l0.2,0.2l0.1,0.2l0.5,1.3l0,0.3l-0.1,0.3
			l-0.2,0.2l-0.2,0.1l-1.6,0.6l-0.3,0l-0.3-0.1l-0.2-0.2l-0.1-0.2L476.8,417.3z"/>
		<path class="st0" d="M481.4,415.6l0-0.3l0.1-0.3l0.2-0.2l0.2-0.1l1.6-0.6l0.3,0l0.3,0.1l0.2,0.2l0.1,0.2l0.5,1.3l0,0.3l-0.1,0.3
			l-0.2,0.2l-0.2,0.1l-1.6,0.6l-0.3,0l-0.3-0.1l-0.2-0.2l-0.1-0.2L481.4,415.6z"/>
	</g>
	<g>
		<path class="st0" d="M196.4,266.6l0.1-0.3l0.2-0.2l0.2-0.2l0.3-0.1h2.3l0.3,0.1l0.2,0.2l0.2,0.2l0.1,0.3v3.5l-0.1,0.3l-0.2,0.2
			l-0.2,0.2l-0.3,0.1h-2.3l-0.3-0.1l-0.2-0.2l-0.2-0.2l-0.1-0.3V266.6z"/>
		<path class="st0" d="M205.2,266.6l0.1-0.3l0.2-0.2l0.2-0.2l0.3-0.1h2.3l0.3,0.1l0.2,0.2l0.2,0.2l0.1,0.3v3.5l-0.1,0.3l-0.2,0.2
			l-0.2,0.2l-0.3,0.1h-2.3l-0.3-0.1l-0.2-0.2l-0.2-0.2l-0.1-0.3V266.6z"/>
	</g>
	<g>
		<path class="st0" d="M438.5,409.8l4-1.5l0.5,1.5l-4,1.5L438.5,409.8z"/>
		<path class="st0" d="M437.5,407l4-1.5l0.7,1.9l-4,1.5L437.5,407z"/>
		<path class="st0" d="M436.8,405l4-1.5l0.4,1.2l-4,1.5L436.8,405z"/>
		<path class="st0" d="M435.9,402.6l4-1.5l0.6,1.6l-4,1.5L435.9,402.6z"/>
	</g>
	<g>
		<path class="st0" d="M454.9,338.9l0.1,0.2l0.1,0.3l-0.1,0.3l-0.1,0.2l-1.2,1.2l-0.2,0.1l-0.3,0.1l-0.3-0.1l-0.2-0.1l-1-1l-0.1-0.2
			l-0.1-0.3l0.1-0.3l0.1-0.2l1.2-1.2l0.2-0.1l0.3-0.1l0.3,0.1l0.2,0.1L454.9,338.9z"/>
		<path class="st0" d="M451.5,342.4l0.1,0.2l0.1,0.3l-0.1,0.3l-0.1,0.2l-1.2,1.2l-0.2,0.1l-0.3,0.1l-0.3-0.1l-0.2-0.1l-1-1l-0.1-0.2
			l-0.1-0.3l0.1-0.3l0.1-0.2l1.2-1.2l0.2-0.1l0.3-0.1l0.3,0.1l0.2,0.1L451.5,342.4z"/>
	</g>
	<g>
		<path class="st0" d="M243.3,160.2h-3.4v-3.4h3.4V160.2z"/>
		<path class="st0" d="M243.3,150h-3.4v-3.4h3.4V150z"/>
	</g>
	<g>
		<path class="st0" d="M441.1,194.2h-4.3v-1.6h4.3V194.2z"/>
		<path class="st0" d="M441.1,197.2h-4.3v-2h4.3V197.2z"/>
		<path class="st0" d="M441.1,199.3h-4.3V198h4.3V199.3z"/>
		<path class="st0" d="M441.1,201.8h-4.3v-1.7h4.3V201.8z"/>
	</g>
	<g>
		<path class="st0" d="M231.4,141.8H228v-3.4h3.4V141.8z"/>
		<path class="st0" d="M231.4,131.6H228v-3.4h3.4V131.6z"/>
	</g>
	<g>
		<path class="st0" d="M231.4,233.9H228v-3.4h3.4V233.9z"/>
		<path class="st0" d="M231.4,223.7H228v-3.4h3.4V223.7z"/>
	</g>
	<g>
		<path class="st0" d="M191.1,103.7h-5.7v-6.5h5.7V103.7z"/>
		<path class="st0" d="M198.3,139.1h-5.7v-6.5h5.7V139.1z"/>
	</g>
	<g>
		<path class="st0" d="M219.5,178.6h-3.4v-3.4h3.4V178.6z"/>
		<path class="st0" d="M219.5,168.4h-3.4V165h3.4V168.4z"/>
	</g>
	<g>
		<path class="st0" d="M219.5,141.8h-3.4v-3.4h3.4V141.8z"/>
		<path class="st0" d="M219.5,131.6h-3.4v-3.4h3.4V131.6z"/>
	</g>
	<g>
		<path class="st0" d="M246.7,87.9l-0.1,0.3l-0.1,0.2l-0.2,0.1l-0.3,0.1h-1.7l-0.3-0.1l-0.2-0.1l-0.1-0.2l-0.1-0.3v-1.3l0.1-0.3
			l0.1-0.2l0.2-0.1l0.3-0.1h1.7l0.3,0.1l0.2,0.1l0.1,0.2l0.1,0.3V87.9z"/>
		<path class="st0" d="M241.8,87.9l-0.1,0.3l-0.1,0.2l-0.2,0.1l-0.3,0.1h-1.7l-0.3-0.1l-0.2-0.1l-0.1-0.2l-0.1-0.3v-1.3l0.1-0.3
			l0.1-0.2l0.2-0.1l0.3-0.1h1.7l0.3,0.1l0.2,0.1l0.1,0.2l0.1,0.3V87.9z"/>
	</g>
	<g>
		<path class="st0" d="M160.2,270.6h5.7v6.5h-5.7V270.6z"/>
		<path class="st0" d="M153,235.2h5.7v6.5H153V235.2z"/>
	</g>
	<g>
		<path class="st0" d="M335.2,83.8v4.8h-2.6v-4.8H335.2z"/>
		<path class="st0" d="M325.5,83.8v4.8H323v-4.8H325.5z"/>
	</g>
	<g>
		<path class="st0" d="M217,280.9l0.3,0.1l0.2,0.2l0.2,0.2l0.1,0.3v2.3l-0.1,0.3l-0.2,0.2l-0.2,0.2l-0.3,0.1h-3.5l-0.3-0.1l-0.2-0.2
			l-0.2-0.2l-0.1-0.3v-2.3l0.1-0.3l0.2-0.2l0.2-0.2l0.3-0.1H217z"/>
		<path class="st0" d="M217,289.6l0.3,0.1l0.2,0.2l0.2,0.2l0.1,0.3v2.3l-0.1,0.3l-0.2,0.2l-0.2,0.2l-0.3,0.1h-3.5l-0.3-0.1l-0.2-0.2
			l-0.2-0.2l-0.1-0.3v-2.3l0.1-0.3l0.2-0.2l0.2-0.2l0.3-0.1H217z"/>
	</g>
	<g>
		<path class="st0" d="M123.9,207h4.3v1.6h-4.3V207z"/>
		<path class="st0" d="M123.9,204h4.3v2h-4.3V204z"/>
		<path class="st0" d="M123.9,201.9h4.3v1.3h-4.3V201.9z"/>
		<path class="st0" d="M123.9,199.3h4.3v1.7h-4.3V199.3z"/>
	</g>
	<g>
		<path class="st0" d="M310.1,91.6l0.1-0.3l0.1-0.2l0.2-0.1l0.3-0.1h1.7l0.3,0.1l0.2,0.1l0.1,0.2l0.1,0.3v1.3l-0.1,0.3l-0.1,0.2
			l-0.2,0.1l-0.3,0.1h-1.7l-0.3-0.1l-0.2-0.1l-0.1-0.2l-0.1-0.3V91.6z"/>
		<path class="st0" d="M315,91.6l0.1-0.3l0.1-0.2l0.2-0.1l0.3-0.1h1.7l0.3,0.1l0.2,0.1l0.1,0.2l0.1,0.3v1.3l-0.1,0.3l-0.1,0.2
			l-0.2,0.1l-0.3,0.1h-1.7l-0.3-0.1l-0.2-0.1l-0.1-0.2l-0.1-0.3V91.6z"/>
	</g>
	<g>
		<path class="st0" d="M222,290.7l0.1-0.3l0.1-0.2l0.2-0.1l0.3-0.1h1.7l0.3,0.1l0.2,0.1l0.1,0.2l0.1,0.3v1.3l-0.1,0.3l-0.1,0.2
			l-0.2,0.1l-0.3,0.1h-1.7l-0.3-0.1l-0.2-0.1l-0.1-0.2l-0.1-0.3V290.7z"/>
		<path class="st0" d="M226.9,290.7l0.1-0.3l0.1-0.2l0.2-0.1l0.3-0.1h1.7l0.3,0.1l0.2,0.1l0.1,0.2l0.1,0.3v1.3l-0.1,0.3l-0.1,0.2
			l-0.2,0.1l-0.3,0.1h-1.7l-0.3-0.1l-0.2-0.1l-0.1-0.2l-0.1-0.3V290.7z"/>
	</g>
	<g>
		<path class="st0" d="M219.5,197h-3.4v-3.4h3.4V197z"/>
		<path class="st0" d="M219.5,186.8h-3.4v-3.4h3.4V186.8z"/>
	</g>
	<g>
		<path class="st0" d="M311.1,84.9v4.3h-1.6v-4.3H311.1z"/>
		<path class="st0" d="M314.1,84.9v4.3h-2v-4.3H314.1z"/>
		<path class="st0" d="M316.2,84.9v4.3H315v-4.3H316.2z"/>
		<path class="st0" d="M318.8,84.9v4.3h-1.7v-4.3H318.8z"/>
	</g>
	<g>
		<path class="st0" d="M299.1,123.9h-5.7v-6.5h5.7V123.9z"/>
		<path class="st0" d="M306.3,159.3h-5.7v-6.5h5.7V159.3z"/>
	</g>
	<g>
		<path class="st0" d="M231.4,215.5H228v-3.4h3.4V215.5z"/>
		<path class="st0" d="M231.4,205.3H228v-3.4h3.4V205.3z"/>
	</g>
	<g>
		<path class="st0" d="M356.3,316l-1.9,5.3l-6.1-2.2l1.9-5.3L356.3,316z"/>
		<path class="st0" d="M392.1,321.3l-1.9,5.3l-6.1-2.2l1.9-5.3L392.1,321.3z"/>
	</g>
	<g>
		<path class="st0" d="M299.1,285.9h-5.7v-6.5h5.7V285.9z"/>
		<path class="st0" d="M306.3,321.3h-5.7v-6.5h5.7V321.3z"/>
	</g>
	<g>
		<path class="st0" d="M299.1,177.9h-5.7v-6.5h5.7V177.9z"/>
		<path class="st0" d="M306.3,213.3h-5.7v-6.5h5.7V213.3z"/>
	</g>
	<g>
		<path class="st0" d="M241.9,293.3l0.1-0.3l0.1-0.2l0.2-0.1l0.3-0.1h1.7l0.3,0.1l0.2,0.1l0.1,0.2l0.1,0.3v1.3l-0.1,0.3l-0.1,0.2
			l-0.2,0.1l-0.3,0.1h-1.7l-0.3-0.1l-0.2-0.1l-0.1-0.2l-0.1-0.3V293.3z"/>
		<path class="st0" d="M246.8,293.3l0.1-0.3l0.1-0.2l0.2-0.1l0.3-0.1h1.7l0.3,0.1l0.2,0.1l0.1,0.2l0.1,0.3v1.3l-0.1,0.3l-0.1,0.2
			l-0.2,0.1l-0.3,0.1h-1.7l-0.3-0.1l-0.2-0.1l-0.1-0.2l-0.1-0.3V293.3z"/>
	</g>
	<g>
		<path class="st0" d="M410.7,363.4l3-3l1.1,1.1l-3,3L410.7,363.4z"/>
		<path class="st0" d="M408.5,361.3l3-3l1.4,1.4l-3,3L408.5,361.3z"/>
		<path class="st0" d="M407,359.8l3-3l0.9,0.9l-3,3L407,359.8z"/>
		<path class="st0" d="M405.2,358l3-3l1.2,1.2l-3,3L405.2,358z"/>
	</g>
	<g>
		<path class="st0" d="M445.5,390.8l-5.3,1.9l-2.2-6.1l5.3-1.9L445.5,390.8z"/>
		<path class="st0" d="M464.4,421.6l-5.3,1.9l-2.2-6.1l5.3-1.9L464.4,421.6z"/>
	</g>
	<g>
		<path class="st0" d="M251.4,84.8v4.3h-1.6v-4.3H251.4z"/>
		<path class="st0" d="M254.3,84.8v4.3h-2v-4.3H254.3z"/>
		<path class="st0" d="M256.5,84.8v4.3h-1.3v-4.3H256.5z"/>
		<path class="st0" d="M259,84.8v4.3h-1.7v-4.3H259z"/>
	</g>
	<g>
		<path class="st0" d="M200,91.4v4.3h-1.6v-4.3H200z"/>
		<path class="st0" d="M202.9,91.4v4.3h-2v-4.3H202.9z"/>
		<path class="st0" d="M205.1,91.4v4.3h-1.3v-4.3H205.1z"/>
		<path class="st0" d="M207.6,91.4v4.3h-1.7v-4.3H207.6z"/>
	</g>
	<g>
		<path class="st0" d="M409,343.2l-4,4l-4.6-4.6l4-4L409,343.2z"/>
		<path class="st0" d="M439.2,363.2l-4,4l-4.6-4.6l4-4L439.2,363.2z"/>
	</g>
	<g>
		<path class="st0" d="M160.2,216.6h5.7v6.5h-5.7V216.6z"/>
		<path class="st0" d="M153,181.2h5.7v6.5H153V181.2z"/>
	</g>
	<g>
		<path class="st0" d="M329.5,321.6l-0.1,0.3l-0.1,0.2l-0.2,0.1l-0.3,0.1h-1.7l-0.3-0.1l-0.2-0.1l-0.1-0.2l-0.1-0.3v-1.3l0.1-0.3
			l0.1-0.2l0.2-0.1l0.3-0.1h1.7l0.3,0.1l0.2,0.1l0.1,0.2l0.1,0.3V321.6z"/>
		<path class="st0" d="M324.6,321.6l-0.1,0.3l-0.1,0.2l-0.2,0.1l-0.3,0.1h-1.7l-0.3-0.1l-0.2-0.1l-0.1-0.2l-0.1-0.3v-1.3l0.1-0.3
			l0.1-0.2l0.2-0.1l0.3-0.1h1.7l0.3,0.1l0.2,0.1l0.1,0.2l0.1,0.3V321.6z"/>
	</g>
	<g>
		<path class="st0" d="M222,258.3l0.1-0.3l0.1-0.2l0.2-0.1l0.3-0.1h1.7l0.3,0.1l0.2,0.1l0.1,0.2l0.1,0.3v1.3l-0.1,0.3l-0.1,0.2
			l-0.2,0.1l-0.3,0.1h-1.7l-0.3-0.1l-0.2-0.1l-0.1-0.2l-0.1-0.3V258.3z"/>
		<path class="st0" d="M226.9,258.3l0.1-0.3l0.1-0.2l0.2-0.1l0.3-0.1h1.7l0.3,0.1l0.2,0.1l0.1,0.2l0.1,0.3v1.3l-0.1,0.3l-0.1,0.2
			l-0.2,0.1l-0.3,0.1h-1.7l-0.3-0.1l-0.2-0.1l-0.1-0.2l-0.1-0.3V258.3z"/>
	</g>
	<g>
		<path class="st0" d="M193.7,296.3V292h1.6v4.3H193.7z"/>
		<path class="st0" d="M190.7,296.3V292h2v4.3H190.7z"/>
		<path class="st0" d="M188.6,296.3V292h1.3v4.3H188.6z"/>
		<path class="st0" d="M186,296.3V292h1.7v4.3H186z"/>
	</g>
	<g>
		<path class="st0" d="M231.4,178.6H228v-3.4h3.4V178.6z"/>
		<path class="st0" d="M231.4,168.4H228V165h3.4V168.4z"/>
	</g>
	<g>
		<path class="st0" d="M438.4,164.9l-0.3-0.1l-0.2-0.1l-0.1-0.2l-0.1-0.3v-1.7l0.1-0.3l0.1-0.2l0.2-0.1l0.3-0.1h1.3l0.3,0.1l0.2,0.1
			l0.1,0.2l0.1,0.3v1.7l-0.1,0.3l-0.1,0.2l-0.2,0.1l-0.3,0.1H438.4z"/>
		<path class="st0" d="M438.4,160l-0.3-0.1l-0.2-0.1l-0.1-0.2l-0.1-0.3v-1.7l0.1-0.3l0.1-0.2l0.2-0.1l0.3-0.1h1.3l0.3,0.1l0.2,0.1
			l0.1,0.2l0.1,0.3v1.7l-0.1,0.3l-0.1,0.2L440,160l-0.3,0.1H438.4z"/>
	</g>
	<g>
		<path class="st0" d="M299.1,231.9h-5.7v-6.5h5.7V231.9z"/>
		<path class="st0" d="M306.3,267.3h-5.7v-6.5h5.7V267.3z"/>
	</g>
	<g>
		<path class="st0" d="M219.5,233.9h-3.4v-3.4h3.4V233.9z"/>
		<path class="st0" d="M219.5,223.7h-3.4v-3.4h3.4V223.7z"/>
	</g>
	<g>
		<path class="st0" d="M180.3,105.3l0.3,0.1l0.2,0.1l0.1,0.2l0.1,0.3v1.7l-0.1,0.3l-0.1,0.2l-0.2,0.1l-0.3,0.1h-1.3l-0.3-0.1
			l-0.2-0.1l-0.1-0.2l-0.1-0.3V106l0.1-0.3l0.1-0.2l0.2-0.1l0.3-0.1H180.3z"/>
		<path class="st0" d="M180.3,110.2l0.3,0.1l0.2,0.1l0.1,0.2l0.1,0.3v1.7l-0.1,0.3l-0.1,0.2l-0.2,0.1l-0.3,0.1h-1.3l-0.3-0.1
			l-0.2-0.1l-0.1-0.2l-0.1-0.3v-1.7l0.1-0.3l0.1-0.2l0.2-0.1l0.3-0.1H180.3z"/>
	</g>
	<g>
		<path class="st0" d="M123.9,155.7h4.3v1.6h-4.3V155.7z"/>
		<path class="st0" d="M123.9,152.7h4.3v2h-4.3V152.7z"/>
		<path class="st0" d="M123.9,150.6h4.3v1.3h-4.3V150.6z"/>
		<path class="st0" d="M123.9,148.1h4.3v1.7h-4.3V148.1z"/>
	</g>
	<g>
		<path class="st0" d="M483.2,387.9l-4,1.5l-0.5-1.5l4-1.5L483.2,387.9z"/>
		<path class="st0" d="M484.2,390.7l-4,1.5l-0.7-1.9l4-1.5L484.2,390.7z"/>
		<path class="st0" d="M485,392.7l-4,1.5l-0.4-1.2l4-1.5L485,392.7z"/>
		<path class="st0" d="M485.8,395.1l-4,1.5l-0.6-1.6l4-1.5L485.8,395.1z"/>
	</g>
	<g>
		<path class="st0" d="M285.9,306.9h4.3v1.6h-4.3V306.9z"/>
		<path class="st0" d="M285.9,303.9h4.3v2h-4.3V303.9z"/>
		<path class="st0" d="M285.9,301.8h4.3v1.3h-4.3V301.8z"/>
		<path class="st0" d="M285.9,299.3h4.3v1.7h-4.3V299.3z"/>
	</g>
	<g>
		<path class="st0" d="M243.3,197h-3.4v-3.4h3.4V197z"/>
		<path class="st0" d="M243.3,186.8h-3.4v-3.4h3.4V186.8z"/>
	</g>
</g>
</svg>
