<?xml version="1.0" standalone="no"?>
 <!DOCTYPE svg PUBLIC "-//W3C//DTD SVG 1.1//EN" 
 "http://www.w3.org/Graphics/SVG/1.1/DTD/svg11.dtd"> 
<svg
  xmlns:svg="http://www.w3.org/2000/svg"
  xmlns="http://www.w3.org/2000/svg"
  xmlns:xlink="http://www.w3.org/1999/xlink"
  version="1.1"
  width="35.560000cm" height="21.590000cm" viewBox="0 0 355600000 215900000">
<title>SVG Picture created as keyboard-Edge_Cuts.svg date 2022/12/03 00:00:29 </title>
  <desc>Picture generated by PCBNEW </desc>
<g style="fill:#000000; fill-opacity:1.000000;stroke:#000000; stroke-opacity:1.000000;
stroke-linecap:round; stroke-linejoin:round;"
 transform="translate(0 0) scale(1 1)">
</g>
<g style="fill:#000000; fill-opacity:0.0; 
stroke:#000000; stroke-width:0.000000; stroke-opacity:1; 
stroke-linecap:round; stroke-linejoin:round;">
</g>
<g style="fill:#000000; fill-opacity:0.0; 
stroke:#000000; stroke-width:100000.000000; stroke-opacity:1; 
stroke-linecap:round; stroke-linejoin:round;">
<path d="M153746200 92633800
L154275915 93163515
" />
<path d="M62940884.999775 31428085.000113 A1000015.000000 1000015.000000 0.0 0 0 61940885.000000 32428100.000000" />
<path d="M154508199.395935 93954599.867292 A856953.000000 856953.000000 0.0 0 0 154275914.992313 93163515.007719" />
<path d="M138902900.000000 49234600.000000 A1000000.000000 1000000.000000 0.0 0 0 137902885.000000 48234600.000113" />
<path d="M150196485 72372900
L141477685 72372900
" />
<path d="M136790885 39540100
L136790885 47234600
" />
<path d="M119259354.226946 114802676.081046 A999800.000000 999800.000000 0.0 0 0 118911169.000000 114740100.000481" />
<path d="M141646085.511688 91067301.248530 A7592923.000000 7592923.000000 0.0 0 0 139156885.173506 103462499.826468" />
<path d="M168405454.767841 128564072.225114 A1000359.000000 1000359.000000 0.0 0 0 168304884.844702 128359655.099832" />
<path d="M156428867.002112 113564065.001495 A1000133.000000 1000133.000000 0.0 0 0 156721558.714408 114270960.285398" />
<path d="M153684274.833438 105986187.962524 A1000015.000000 1000015.000000 0.0 0 0 153684274.833438 106425212.037476" />
<path d="M153683097 98291979
L154499895 101922188
" />
<path d="M150408340.049943 135020418.798682 A999768.000000 999768.000000 0.0 0 0 150172221.232079 134645435.767907" />
<path d="M168405447 128564075
L174629057 145701249
" />
<path d="M81990885 29142100
L118141685 29142100
" />
<path d="M153680905 97862939
L154508200 93954600
" />
<path d="M79990885.000225 31428084.999887 A999985.000000 999985.000000 0.0 0 0 80990885.000000 30428100.000000" />
<path d="M156682889.916167 152230498.168802 A972904.000000 972904.000000 0.0 0 0 157925436.026012 152805826.071936" />
<path d="M62940885 31428100
L79990885 31428100
" />
<path d="M60940885 100516100
L43840085 100516100
" />
<path d="M42840085 99516100
L42840085 44366100
" />
<path d="M62940885 105342100
L98990085 105342100
" />
<path d="M99990085 113740100
L99990085 106342100
" />
<path d="M150196485.000259 72372882.999886 A986083.000000 986083.000000 0.0 0 0 151182485.026701 71372899.999624" />
<path d="M174029161.506924 146983024.463691 A1000020.000000 1000020.000000 0.0 0 0 174629057.156661 145701248.943108" />
<path d="M125200000 54381400
L112800000 54381400
" />
<path d="M112800000 54381400
L112800000 87581400
" />
<path d="M112800000 87581400
L125200000 87581400
" />
<path d="M125200000 87581400
L125200000 54381400
" />
<path d="M118911169 114740100
L100990085 114740100
" />
<path d="M137790885 48234600
L137902885 48234600
" />
<path d="M152398253.986359 113405200.309795 A1000028.000000 1000028.000000 0.0 0 0 153974338.524071 112825011.892919" />
<path d="M60940885.000225 43366084.999888 A999985.000000 999985.000000 0.0 0 0 61940885.000000 42366100.000000" />
<path d="M154499895.428312 102361212.096371 A999986.000000 999986.000000 0.0 0 0 154499895.428312 101922187.903629" />
<path d="M61940885 101516100
L61940885 104342100
" />
<path d="M154499895 102361212
L153684275 105986188
" />
<path d="M136790900.000000 39540100.000000 A1000000.000000 1000000.000000 0.0 0 0 135790885.000000 38540100.000113" />
<path d="M163718913 121268128
L156721559 114270960
" />
<path d="M80990885 30428100
L80990885 30142100
" />
<path d="M61940885 32428100
L61940885 42366100
" />
<path d="M153684275 106425212
L154499895 110050188
" />
<path d="M138902885 59942900
L138902885 49234600
" />
<path d="M135790885 38540100
L120141685 38540100
" />
<path d="M168304885 128359655
L163852984 121434476
" />
<path d="M137025202.262151 121498434.738627 A1000321.000000 1000321.000000 0.0 0 0 136666292.122885 121268108.669256" />
<path d="M140477700.000000 71372900.000000 A1000000.000000 1000000.000000 0.0 0 0 141477685.000000 72372899.999887" />
<path d="M138902896.000000 59942900.000000 A1028704.000000 1028704.000000 0.0 0 0 139690285.115114 60942899.522974" />
<path d="M42840100.000000 99516100.000000 A1000000.000000 1000000.000000 0.0 0 0 43840085.000000 100516099.999887" />
<path d="M81990884.999775 29142085.000113 A1000015.000000 1000015.000000 0.0 0 0 80990885.000000 30142100.000000" />
<path d="M119141700.000000 37540100.000000 A1000000.000000 1000000.000000 0.0 0 0 120141685.000000 38540099.999887" />
<path d="M119141700.000000 30142100.000000 A1000000.000000 1000000.000000 0.0 0 0 118141685.000000 29142100.000113" />
<path d="M153680918.139003 97862941.815951 A999986.000000 999986.000000 0.0 0 0 153683097.119443 98291978.973129" />
<path d="M60940885 43366100
L43840085 43366100
" />
<path d="M156426885 113564065
L156426885 51478099
" />
<path d="M99990100.000000 113740100.000000 A1000000.000000 1000000.000000 0.0 0 0 100990085.000000 114740099.999887" />
<path d="M150408348 135020416
L156682885 152230500
" />
<path d="M154499895.428312 110489212.096371 A999986.000000 999986.000000 0.0 0 0 154499895.428312 110050187.903629" />
<path d="M151182485 71372900
L151182485 51478100
" />
<path d="M163852981.656346 121434477.506411 A999485.000000 999485.000000 0.0 0 0 163718913.120574 121268127.879416" />
<path d="M156428899.999999 51478098.999985 A1000000.000000 1000000.000000 0.0 0 0 155428886.000000 50478100.000098" />
<path d="M137025211 121498426
L150172221 134645436
" />
<path d="M136790900.000000 47234600.000000 A1000000.000000 1000000.000000 0.0 0 0 137790885.000000 48234599.999887" />
<path d="M174029157 146983012
L157925436 152805826
" />
<path d="M153746200.092121 92633799.891473 A11216439.000000 11216439.000000 0.0 0 0 141646084.833657 91067299.652388" />
<path d="M139156885 103462500
L152398282 113405163
" />
<path d="M152182484.999775 50478085.000113 A1000015.000000 1000015.000000 0.0 0 0 151182485.000000 51478100.000000" />
<path d="M119259355 114802674
L136666292 121268109
" />
<path d="M140477697.000000 61942900.000000 A1028697.000000 1028697.000000 0.0 0 0 139690284.893586 60942900.441032" />
<path d="M99990100.000000 106342100.000000 A1000000.000000 1000000.000000 0.0 0 0 98990085.000000 105342100.000113" />
<path d="M61940900.000000 104342100.000000 A1000000.000000 1000000.000000 0.0 0 0 62940885.000000 105342099.999887" />
<path d="M140477685 71372900
L140477685 61942900
" />
<path d="M61940900.000000 101516100.000000 A1000000.000000 1000000.000000 0.0 0 0 60940885.000000 100516100.000113" />
<path d="M155428886 50478100
L152182485 50478100
" />
<path d="M154499895 110489212
L153974339 112825012
" />
<path d="M119141685 30142100
L119141685 37540100
" />
<path d="M43840084.999775 43366085.000113 A1000015.000000 1000015.000000 0.0 0 0 42840085.000000 44366100.000000" />
<g >
</g>
<g >
</g>
<g >
</g>
<g >
</g>
<g >
</g>
<g >
</g>
<g >
</g>
<g >
</g>
<g >
</g>
<g >
</g>
<g >
</g>
<g >
</g>
<g >
</g>
<g >
</g>
<g >
</g>
<g >
</g>
<g >
</g>
<g >
</g>
<g >
</g>
<g >
</g>
<g >
</g>
<g >
</g>
<g >
</g>
<g >
</g>
<g >
</g>
<g >
</g>
<g >
</g>
<g >
</g>
<g >
</g>
<g >
</g>
<g >
</g>
<g >
</g>
<g >
</g>
<g >
</g>
<g >
</g>
<g >
</g>
<g >
</g>
<g >
</g>
<g >
</g>
<g >
</g>
<g >
</g>
<g >
</g>
<g >
</g>
<g >
</g>
<g >
</g>
<g >
</g>
<g >
</g>
<g >
</g>
<g >
</g>
<g >
</g>
<g >
</g>
<g >
</g>
<g >
</g>
<g >
</g>
<g >
</g>
<g >
</g>
<g >
</g>
<g >
</g>
<g >
</g>
<g >
</g>
<g >
</g>
<g >
</g>
<g >
</g>
<g >
</g>
<g >
</g>
<g >
</g>
<g >
</g>
<g >
</g>
<g >
</g>
<g >
</g>
<g >
</g>
<g >
</g>
<g >
</g>
<g >
</g>
<g >
</g>
<g >
</g>
<g >
</g>
<g >
</g>
<g >
</g>
<g >
</g>
<g >
</g>
<g >
</g>
<g >
</g>
<g >
</g>
<g >
</g>
<g >
</g>
<g >
</g>
<g >
</g>
<g >
</g>
<g >
</g>
<g >
</g>
<g >
</g>
<g >
</g>
<g >
</g>
<g >
</g>
<g >
</g>
<g >
</g>
<g >
</g>
<g >
</g>
<g >
</g>
<g >
</g>
<g >
</g>
<g >
</g>
<g >
</g>
<g >
</g>
<g >
</g>
<g >
</g>
<g >
</g>
<g >
</g>
<g >
</g>
<g >
</g>
<g >
</g>
<g >
</g>
<g >
</g>
<g >
</g>
<g >
</g>
<g >
</g>
<g >
</g>
<g >
</g>
</g> 
</svg>
